<?xml version="1.0" standalone="no"?>
<!DOCTYPE svg PUBLIC "-//W3C//DTD SVG 1.1//EN" "http://www.w3.org/Graphics/SVG/1.1/DTD/svg11.dtd" >
<svg xmlns="http://www.w3.org/2000/svg">
<metadata></metadata>
<defs>
<font id="yrsasemibold" horiz-adv-x="1181" >
<font-face units-per-em="2048" ascent="1638" descent="-410" />
<missing-glyph horiz-adv-x="403" />
<glyph horiz-adv-x="0" />
<glyph unicode="&#xd;" horiz-adv-x="0" />
<glyph unicode=" "  horiz-adv-x="403" />
<glyph unicode="&#x09;" horiz-adv-x="403" />
<glyph unicode="&#xa0;" horiz-adv-x="403" />
<glyph unicode="!" horiz-adv-x="516" d="M123 109q0 55 38 88.5t97 33.5t96 -33.5t37 -88.5q0 -53 -37 -88t-96 -35t-97 34.5t-38 88.5zM129 1130v146h258v-146l-59 -761h-140z" />
<glyph unicode="&#x22;" horiz-adv-x="397" d="M92 1280h213l-37 -625h-139zM512 1280h213l-37 -625h-139z" />
<glyph unicode="#" horiz-adv-x="1105" d="M76 262v123h172l28 268h-176v119h193l26 250h175l-25 -250h219l27 250h174l-27 -250h174l-2 -119h-188l-27 -268h182l3 -123h-199l-27 -262h-176l27 262h-221l-27 -262h-176l28 262h-157zM424 385h215l31 268h-219z" />
<glyph unicode="$" horiz-adv-x="901" d="M80 92q-2 70 3 144.5t13 132.5h140l26 -152q2 -16 10.5 -27.5t18.5 -19.5q20 -20 62 -37.5t100 -17.5q74 0 114.5 34.5t40.5 90.5q0 70 -68.5 111.5t-168.5 88.5q-111 51 -196 116t-85 181q0 106 82 185t248 92v170h135v-172q61 -6 118.5 -19.5t102.5 -31.5q4 -63 1 -131 t-15 -132h-133l-31 138q-2 16 -8 28.5t-21 20.5q-18 14 -49 23.5t-69 9.5q-72 0 -107 -32t-35 -79q0 -70 67.5 -107.5t172.5 -87.5q129 -61 210 -127.5t81 -175.5q0 -102 -83 -192t-268 -103v-170h-133v172q-84 8 -155.5 31t-120.5 45z" />
<glyph unicode="%" horiz-adv-x="1509" d="M55 831q0 166 94.5 252t217.5 86q137 0 214.5 -87t77.5 -226q0 -166 -94 -252t-217 -86q-137 0 -215 87t-78 226zM242 856q0 -119 32.5 -180.5t90.5 -61.5q51 0 78.5 53.5t27.5 163.5q0 117 -31.5 179.5t-91.5 62.5q-51 0 -78.5 -53t-27.5 -164zM317 0l715 1163h162 l-717 -1163h-160zM850 307q0 166 94 252t217 86q137 0 216 -87t79 -228q0 -166 -94 -252t-217 -86q-139 0 -217 87t-78 228zM1038 332q0 -119 32 -181.5t89 -62.5q51 0 79 54.5t28 164.5q0 117 -32 179.5t-89 62.5q-51 0 -79 -54t-28 -163z" />
<glyph unicode="&#x26;" horiz-adv-x="1230" d="M68 279q0 137 76.5 202.5t158.5 91.5q-59 82 -93 158t-34 154q0 131 94.5 215t253.5 84q143 0 222 -70t79 -186q0 -106 -68.5 -187.5t-201.5 -126.5q61 -76 142 -170t155 -170q31 47 43 102.5t12 100.5q0 16 -5 29.5t-23 17.5l-117 23v102h403v-102l-75 -23 q-18 -6 -23.5 -15t-7.5 -30q-14 -74 -47 -142.5t-97 -125.5q70 -61 117 -76.5t127 -15.5v-101q-39 -12 -90 -22t-96 -10q-51 0 -102.5 18.5t-110.5 63.5q-61 -45 -141 -68t-166 -23q-164 0 -274.5 72t-110.5 230zM281 311q0 -100 61.5 -162.5t167.5 -62.5q39 0 85 10t89 35 q-88 80 -176 184.5t-143 176.5q-35 -31 -59.5 -73t-24.5 -108zM395 938q0 -51 21.5 -106.5t87.5 -147.5q63 53 92 121.5t29 138.5q0 76 -28 117t-79 41q-57 0 -90 -44t-33 -120z" />
<glyph unicode="'" horiz-adv-x="397" d="M92 1280h213l-37 -625h-139z" />
<glyph unicode="(" horiz-adv-x="548" d="M68 588q0 201 48 362.5t111.5 278.5t126 188.5t90.5 95.5l76 -75q-29 -45 -68.5 -117t-76.5 -173t-63.5 -235.5t-26.5 -302.5q-2 -186 25.5 -331.5t64.5 -253t77.5 -180t67.5 -113.5l-76 -76q-25 20 -86 87t-125.5 180.5t-114.5 279.5t-50 385z" />
<glyph unicode=")" horiz-adv-x="548" d="M29 -268q29 43 68.5 114.5t76.5 173t63.5 236.5t26.5 303q2 184 -25.5 329.5t-64.5 252t-78 180.5t-67 117l75 75q25 -20 86.5 -86.5t126 -181.5t114.5 -280.5t50 -384.5q0 -201 -48 -362t-111.5 -277.5t-126 -188t-91.5 -96.5z" />
<glyph unicode="*" horiz-adv-x="905" d="M88 864l129 58l174 45l-174 45l-129 57l94 162l113 -82l127 -129l-47 174l-17 141h189l-17 -141l-47 -174l127 129l113 82l94 -162l-129 -57l-174 -45l174 -45l129 -58l-94 -162l-113 82l-127 129l47 -174l17 -139h-189l17 139l47 174l-127 -129l-113 -82z" />
<glyph unicode="+" horiz-adv-x="829" d="M70 383v147h155l117 -6l-6 117v168h158v-168l-5 -117l117 6h156v-147h-156l-117 6l5 -119v-164h-158v164l6 119l-117 -6h-155z" />
<glyph unicode="," horiz-adv-x="460" d="M66 -276q57 53 93 114.5t36 112.5q0 33 -13.5 41t-31.5 22q-23 16 -42.5 44t-19.5 69q0 57 37 92t94 35q66 0 110 -50.5t44 -144.5q0 -129 -80 -233.5t-182 -161.5z" />
<glyph unicode="-" horiz-adv-x="778" d="M104 369v151h570v-151h-570z" />
<glyph unicode="." horiz-adv-x="454" d="M90 115q0 57 38 92t99 35t99.5 -35t38.5 -92t-38 -93t-100 -36q-61 0 -99 35.5t-38 93.5z" />
<glyph unicode="/" horiz-adv-x="753" d="M45 -215l479 1511h187l-478 -1511h-188z" />
<glyph unicode="0" horiz-adv-x="1019" d="M88 504q0 279 122 412t314 133q227 0 317.5 -150.5t90.5 -372.5q0 -281 -120.5 -413.5t-313.5 -132.5q-227 0 -318.5 151.5t-91.5 372.5zM346 547q0 -233 37 -347t131 -114q84 0 123 94t39 303q0 233 -38 346t-132 113q-84 0 -122 -93t-38 -302z" />
<glyph unicode="1" horiz-adv-x="729" d="M76 891q86 20 179 67.5t146 92.5l119 -21v-868q0 -18 9.5 -29.5t27.5 -13.5l145 -25v-94h-622v94l174 27q18 2 28.5 12t10.5 31v655q-33 -8 -94.5 -17t-106.5 -11z" />
<glyph unicode="2" horiz-adv-x="919" d="M55 125q266 231 374 352t108 228q0 82 -49.5 123.5t-116.5 41.5q-59 0 -111.5 -32.5t-97.5 -96.5l-74 64q39 98 132 171t237 73q141 0 236 -82t95 -224q0 -147 -126.5 -282t-403.5 -311h182q49 0 94.5 4t69.5 10q23 4 35 13t18 26l64 141l121 -14q0 -78 -8.5 -167 t-22.5 -163h-713z" />
<glyph unicode="3" horiz-adv-x="878" d="M51 115l60 84q45 -33 104 -55.5t131 -22.5q82 0 142.5 43t62.5 139q2 76 -43 125t-119 57q-25 -6 -56.5 -13t-56.5 -9l-26 102q98 25 175 75t77 138q0 51 -35 86t-92 35q-63 0 -118.5 -31.5t-88.5 -70.5l-72 65q47 76 135 131.5t218 55.5q117 0 208 -59.5t91 -180.5 q0 -96 -76 -167t-160 -93q49 2 100.5 -12.5t94.5 -45t70.5 -78.5t27.5 -114q0 -143 -122 -232.5t-288 -89.5q-123 0 -208 43t-136 95z" />
<glyph unicode="4" horiz-adv-x="933" d="M18 293q109 172 208.5 357.5t193.5 381.5h205l32 -45q-137 -260 -238.5 -426t-215.5 -262l315 16l25 234l190 10v-235l160 8v-146h-160v-186h-217v186h-446z" />
<glyph unicode="5" horiz-adv-x="884" d="M53 121l62 84q45 -37 104.5 -60.5t122.5 -23.5q94 0 155.5 55t61.5 154q0 88 -50 141t-138 53q-43 0 -84 -13t-82 -34l-80 53l39 496h594l-21 -170h-438l-31 -254q47 37 103.5 51.5t107.5 14.5q152 0 243 -86t91 -232q0 -168 -119 -270.5t-297 -102.5q-109 0 -201 40 t-143 104z" />
<glyph unicode="6" horiz-adv-x="956" d="M80 451q0 266 145.5 432t370.5 166q63 0 124.5 -13.5t108.5 -42.5l-34 -100q-37 12 -72 19.5t-64 7.5q-129 0 -217 -90.5t-108 -249.5q39 41 105.5 65.5t142.5 24.5q141 0 223 -90.5t82 -229.5q0 -160 -104.5 -266.5t-288.5 -106.5q-186 0 -300 123t-114 351zM328 422 q0 -158 47 -247t131 -89q70 0 109.5 60.5t39.5 164.5q0 109 -46 167.5t-122 58.5q-35 0 -81 -12.5t-78 -35.5v-4v-63z" />
<glyph unicode="7" horiz-adv-x="858" d="M70 844.5q4 97.5 16 181.5h696l56 -121q-141 -184 -232.5 -398t-109.5 -507h-213l-33 39q16 240 144 464t294 378h-217q-51 0 -97 -4.5t-73 -10.5q-20 -4 -30.5 -12t-18.5 -29l-59 -170l-121 -2q-6 94 -2 191.5z" />
<glyph unicode="8" horiz-adv-x="966" d="M76 250q0 92 57 162.5t154 103.5q-63 41 -111.5 102.5t-48.5 149.5q0 125 99.5 203t265.5 78q154 0 250 -67t96 -175q0 -82 -52.5 -144.5t-134.5 -95.5q94 -47 167 -113.5t73 -179.5q0 -137 -115 -217t-301 -80q-178 0 -288.5 72t-110.5 201zM287 270q0 -94 60 -141 t138 -47t121 42t43 101q0 82 -72.5 128t-168.5 96q-6 2 -12.5 6t-10.5 6q-49 -35 -73.5 -84t-24.5 -107zM340 823q0 -72 60.5 -118t148.5 -89q47 37 65.5 83t18.5 87q0 78 -42 119t-112 41q-63 0 -101 -34t-38 -89z" />
<glyph unicode="9" horiz-adv-x="954" d="M68 674q0 162 103 268.5t288 106.5q188 0 301.5 -124t113.5 -364q0 -276 -139 -430t-346 -154q-76 0 -147.5 21.5t-120.5 60.5l39 97q33 -18 81 -31.5t101 -13.5q104 0 186 84t97 256q-39 -41 -105.5 -68t-140.5 -27q-147 0 -229 90.5t-82 227.5zM299 715 q0 -104 46 -163.5t124 -59.5q35 0 80 11t78 32v65q0 150 -46 245t-132 95q-74 0 -112 -63.5t-38 -161.5z" />
<glyph unicode=":" horiz-adv-x="493" d="M111 115q0 57 36.5 92t100.5 35q61 0 98 -35t37 -92t-37 -93t-98 -36q-63 0 -100 35.5t-37 93.5zM111 733q0 57 36.5 92t100.5 35q61 0 98 -35t37 -92t-37 -91t-98 -34q-63 0 -100 34t-37 91z" />
<glyph unicode=";" horiz-adv-x="507" d="M92 -276q57 53 94 114.5t37 112.5q0 33 -13 41t-34 22q-23 16 -41 44t-18 69q0 57 35.5 92t93.5 35q68 0 110.5 -50.5t42.5 -144.5q0 -129 -79.5 -233.5t-182.5 -161.5zM117 737q0 57 36.5 92t98.5 35q63 0 100 -35t37 -92t-37 -93t-100 -36q-61 0 -98 36t-37 93z" />
<glyph unicode="&#x3c;" horiz-adv-x="839" d="M59 393v125l625 320l68 -148l-504 -231l504 -236l-68 -147z" />
<glyph unicode="=" horiz-adv-x="907" d="M102 221v150h695v-150h-695zM102 543v151h695v-151h-695z" />
<glyph unicode="&#x3e;" horiz-adv-x="839" d="M86 223l504 234l-504 233l68 148l626 -320v-125l-626 -317z" />
<glyph unicode="?" horiz-adv-x="841" d="M55 1190q57 47 145.5 82t192.5 35q180 0 289 -100.5t109 -241.5q0 -117 -71 -195t-175 -154q-57 -45 -72.5 -63t-23.5 -70l-17 -114h-131q-18 37 -37.5 87t-19.5 93q0 68 41 109.5t104 99.5q82 76 121 135t39 133q0 70 -38 117t-101 47q-39 0 -69 -15.5t-46 -33.5 q-14 -14 -20.5 -30.5t-8.5 -43.5l-20 -168h-137q-20 66 -36 142.5t-18 148.5zM238 109q0 55 35.5 88.5t97.5 33.5q59 0 96 -33.5t37 -88.5q0 -53 -37 -88t-96 -35q-61 0 -97 34.5t-36 88.5z" />
<glyph unicode="@" horiz-adv-x="1581" d="M70 258q-2 195 66.5 361.5t184 286.5t272.5 187.5t331 67.5q252 0 417.5 -147.5t165.5 -417.5q0 -156 -53 -273.5t-127 -195.5t-151.5 -117t-128.5 -39q-53 0 -83 43t-30 119q0 29 6 77t16 118q-49 -139 -131 -254t-188 -115q-88 0 -158.5 88t-70.5 242q0 90 28.5 182 t80.5 166t129 120t173 46q43 0 89 -12.5t100 -40.5l43 51l129 -41q-6 -27 -19.5 -94.5t-27 -147.5t-24.5 -163t-11 -140q0 -55 10 -76.5t33 -21.5q27 0 66.5 27.5t76.5 81t62.5 134t25.5 185.5q0 137 -46 232t-118.5 152.5t-164 83t-181.5 25.5q-135 0 -252.5 -51 t-202.5 -145t-134.5 -228.5t-49.5 -298.5q0 -299 148.5 -441t355.5 -142q82 0 172 19.5t135 47.5l37 -78q-63 -51 -165.5 -81.5t-219.5 -30.5q-287 0 -450.5 178t-165.5 471zM594 350q0 -76 22.5 -145.5t69.5 -69.5q55 0 124 99.5t116 254.5q8 29 16 56.5t14 52.5 q-33 37 -80 57.5t-85 20.5q-98 0 -147.5 -104.5t-49.5 -221.5z" />
<glyph unicode="A" d="M-8 0v96l98 25q14 4 25.5 13t15.5 24l344 1009h230l350 -1009q6 -14 16 -23.5t27 -13.5l90 -25v-96h-520v96l145 27l-72 223h-403l-70 -223l144 -27v-96h-420zM375 461h327l-167 516z" />
<glyph unicode="B" horiz-adv-x="1163" d="M72 0v96l121 23q14 2 23 13t9 26v843q0 14 -9 24.5t-23 12.5l-121 25v100h272q72 0 132.5 5.5t135.5 5.5q231 0 318.5 -70t87.5 -203q0 -111 -55.5 -182.5t-149.5 -97.5q123 -8 203 -79t80 -198q0 -150 -104.5 -251t-387.5 -101q-76 0 -129 4t-129 4h-274zM467 102 q25 -4 59.5 -7t67.5 -3q125 0 179 61.5t54 178.5t-53 165t-160 48q-27 0 -66.5 -1t-80.5 -1v-441zM467 655q39 -2 75 -2h56q90 0 134 57.5t44 166.5q0 104 -46 152t-150 48q-23 0 -61 -3t-52 -5v-414z" />
<glyph unicode="C" horiz-adv-x="1081" d="M78 559q0 317 156.5 471t414.5 154q82 0 176.5 -15.5t173.5 -44.5q2 -40 2 -84q0 -34 -1 -68q-3 -82 -17 -167h-143l-39 184q-4 14 -13.5 30.5t-27.5 27.5q-20 14 -58 24t-79 10q-127 0 -199 -115.5t-72 -377.5q0 -240 64.5 -374t210.5 -134q41 0 81 12t66 33 q10 8 18.5 21.5t14.5 33.5l51 166l141 -10q2 -38 2 -79q0 -31 -1 -65q-3 -78 -15 -153q-76 -27 -177.5 -45.5t-197.5 -18.5q-268 0 -400 153t-132 431z" />
<glyph unicode="D" horiz-adv-x="1253" d="M72 0v96l121 23q14 2 23 13t9 26v843q0 14 -9 24.5t-23 12.5l-121 25v100h272q74 0 137.5 5.5t128.5 5.5q285 0 425.5 -137.5t140.5 -418.5q0 -310 -156 -472q-152 -159 -415 -158h-13q-51 2 -124 7t-122 5h-274zM469 111q23 -8 60.5 -12.5t70.5 -4.5q147 2 228 110.5 t81 377.5q0 238 -75.5 364.5t-247.5 126.5q-41 0 -73 -6t-44 -8v-948z" />
<glyph unicode="E" horiz-adv-x="1069" d="M72 0v96l116 23q18 2 27.5 13t9.5 30v833q0 18 -10 30.5t-27 14.5l-116 23v100h872q8 -76 8 -151.5t-6 -155.5h-117l-36 139q-4 18 -15.5 28.5t-27.5 18.5q-23 8 -60 12.5t-76 4.5h-145v-406l334 13v-142l-334 8v-421h180q41 0 83 4t63 12q14 8 23 18.5t16 30.5l61 176 l117 -18q0 -84 -8.5 -166t-22.5 -168h-909z" />
<glyph unicode="F" horiz-adv-x="991" d="M72 0v96l118 23q16 2 25.5 13t9.5 28v835q0 18 -10 30.5t-27 14.5l-116 23v100h872q8 -76 8 -151.5t-6 -155.5h-117l-36 139q-4 18 -15.5 28.5t-27.5 18.5q-23 8 -60 12.5t-76 4.5h-145v-424l334 10v-139l-334 10v-358q0 -14 9 -24.5t24 -12.5l190 -25v-96h-620z" />
<glyph unicode="G" horiz-adv-x="1187" d="M78 569q0 311 156.5 463t431.5 152q98 0 194 -18.5t172 -51.5q2 -31 2 -63q0 -40 -3 -81q-5 -73 -13 -149h-148l-39 164q-6 23 -15 35t-23 22q-23 16 -59 27.5t-85 11.5q-137 0 -213 -121.5t-76 -388.5q0 -213 60.5 -336.5t220.5 -123.5q53 0 99 14t81 41v309l-164 17 v106h478v-106l-80 -13v-463l-49 -26l-129 104q-51 -51 -129 -84t-183 -33q-238 0 -362.5 160t-124.5 432z" />
<glyph unicode="H" horiz-adv-x="1390" d="M72 0v96l116 23q18 2 27.5 13t9.5 30v833q0 18 -10 30.5t-27 14.5l-116 23v100h530v-100l-100 -23q-16 -2 -24.5 -14t-8.5 -31v-342h455v342q0 18 -9.5 29.5t-25.5 15.5l-92 23v100h524v-100l-119 -23q-16 -2 -25.5 -15t-9.5 -30v-833q0 -18 9.5 -29.5t25.5 -13.5 l119 -23v-96h-522v96l88 23q16 4 26.5 14t10.5 29v368h-455v-368q0 -18 8 -29.5t27 -13.5l98 -23v-96h-530z" />
<glyph unicode="I" horiz-adv-x="692" d="M72 0v96l116 23q18 2 27.5 13t9.5 30v833q0 18 -10 30.5t-27 14.5l-116 23v100h549v-100l-117 -23q-18 -2 -26.5 -14t-8.5 -31v-831q0 -20 8 -31.5t27 -13.5l117 -23v-96h-549z" />
<glyph unicode="J" horiz-adv-x="651" d="M-23 -205q145 86 187.5 174t42.5 279v747q0 18 -9.5 30.5t-27.5 14.5l-115 23v100h533v-100l-101 -23q-18 -4 -27 -15t-9 -30v-714q0 -258 -81 -381t-347 -205z" />
<glyph unicode="K" horiz-adv-x="1226" d="M72 0v96l116 23q16 2 26.5 13t10.5 30v833q0 20 -10 31.5t-27 13.5l-116 23v100h549v-100l-117 -23q-18 -2 -27.5 -14t-9.5 -31v-448l412 491l-134 25v100h441v-100l-115 -23q-14 -2 -26.5 -8t-20.5 -16l-268 -301q41 -51 74.5 -105.5t78.5 -132.5l172 -307 q10 -20 22.5 -34.5t39.5 -20.5l74 -19v-96h-295q-31 0 -59.5 42t-63.5 112l-107 215q-27 57 -49 97t-43 71l-133 -152v-227q0 -16 9 -26.5t30 -14.5l117 -21v-96h-551z" />
<glyph unicode="L" horiz-adv-x="1042" d="M72 0v96l116 23q18 2 27.5 13t9.5 30v835q0 16 -9 28.5t-28 14.5l-116 23v100h587v-100l-155 -25q-16 -2 -25.5 -13t-9.5 -30v-882h156q49 0 86 5t59 13q14 6 25.5 17.5t17.5 29.5l70 228l123 -17q0 -90 -5.5 -189.5t-25.5 -199.5h-903z" />
<glyph unicode="M" horiz-adv-x="1681" d="M37 0v96l113 25q16 2 25 13t11 28l101 831q2 18 -6.5 31.5t-26.5 15.5l-129 23v100h493l230 -807l203 807h495v-100l-133 -23q-20 -2 -28.5 -15t-6.5 -32l127 -831q2 -16 12.5 -27.5t26.5 -13.5l111 -25v-96h-527v96l138 23l-125 876l-242 -952h-190l-287 944l-98 -868 l159 -23v-96h-446z" />
<glyph unicode="N" horiz-adv-x="1339" d="M72 0v96l116 23q18 2 27.5 13t9.5 30v833q0 18 -10 30.5t-27 14.5l-116 23v100h401l524 -833v665q0 18 -9 30.5t-27 14.5l-123 23v100h442v-100l-106 -23q-18 -4 -27.5 -15t-9.5 -30v-995h-217l-555 889v-727q0 -18 9 -29.5t27 -13.5l136 -23v-96h-465z" />
<glyph unicode="O" horiz-adv-x="1191" d="M78 561q0 297 140 461t396 164t378 -158t122 -426q0 -295 -141.5 -460t-397.5 -165q-254 0 -375.5 158t-121.5 426zM344 575q0 -254 62.5 -372.5t185.5 -118.5t188.5 121t65.5 385q0 256 -61.5 372.5t-186.5 116.5q-123 0 -188.5 -120.5t-65.5 -383.5z" />
<glyph unicode="P" horiz-adv-x="1077" d="M72 0v96l118 23q14 2 24.5 13t10.5 26v843q0 12 -9 23.5t-23 13.5l-121 25v100h278q55 0 112.5 4t145.5 4q246 0 337 -88t91 -247q0 -195 -120.5 -303.5t-333.5 -108.5q-29 0 -57.5 1t-55.5 3v-270q0 -14 9 -24.5t24 -12.5l184 -25v-96h-614zM469 530q27 -2 51.5 -4 t57.5 -2q88 0 148 64.5t60 240.5q0 129 -53 186.5t-158 57.5q-43 0 -65.5 -3t-40.5 -5v-535z" />
<glyph unicode="Q" horiz-adv-x="1191" d="M78 561q0 293 140 459t396 166t378 -160t122 -424q0 -233 -94 -389t-262 -209q41 -14 76.5 -32.5t74.5 -41.5q57 -37 111.5 -57t116.5 -20q25 0 45 2t37 4l22 -82q-29 -31 -90 -60.5t-131 -29.5q-84 0 -142.5 33.5t-106.5 79.5t-97 95.5t-115 81.5q-244 4 -362.5 163 t-118.5 421zM344 575q0 -256 62.5 -373.5t185.5 -117.5t188.5 121t65.5 385q0 256 -61.5 372.5t-186.5 116.5q-123 0 -188.5 -119.5t-65.5 -384.5z" />
<glyph unicode="R" horiz-adv-x="1208" d="M72 0v96l116 23q16 2 26.5 13t10.5 30v835q0 18 -10 29.5t-27 13.5l-116 23v100h268q66 0 125 5.5t137 5.5q240 0 344.5 -74t104.5 -238q0 -166 -82 -233.5t-168 -89.5q53 -27 92 -69t72 -112l90 -192q12 -27 25.5 -37t33.5 -14l74 -19v-96h-291q-33 0 -59.5 44 t-57.5 116l-75 184q-20 51 -43 91t-46 65h-149v-342q0 -16 9 -26.5t30 -14.5l117 -21v-96h-551zM467 600q37 -4 79 -4h62q80 2 133.5 62.5t53.5 191.5q0 117 -51.5 171t-168.5 54q-31 0 -59.5 -3t-48.5 -5v-467z" />
<glyph unicode="S" horiz-adv-x="974" d="M92 66q-2 35 -2 71q0 45 3 91q5 84 18 155h139l29 -186q2 -16 9 -29.5t21 -28.5q23 -23 70 -43t104 -20q86 0 132.5 45t46.5 119q0 100 -74 155.5t-178 106.5q-115 57 -210.5 132t-95.5 222q0 141 102.5 235.5t305.5 94.5q86 0 175 -17.5t153 -44.5q3 -40 3 -81 q0 -33 -2 -69q-5 -76 -16 -147h-137l-29 162q-4 20 -11 34.5t-21 25.5q-20 14 -57.5 26t-75.5 12q-76 0 -118 -40.5t-42 -108.5q0 -92 67.5 -141t188.5 -109q125 -63 220 -144t95 -220q0 -125 -99 -237t-331 -112q-117 0 -216 28t-167 63z" />
<glyph unicode="T" horiz-adv-x="1175" d="M48 964v17q0 88 9 182h1061q9 -95 9 -183v-18q-1 -96 -11 -200h-121l-61 242q-2 14 -11.5 24t-23.5 16q-20 6 -51 10.5t-68 4.5h-69v-893q0 -18 9 -28.5t28 -12.5l174 -29v-96h-668v96l176 29q18 2 27.5 12t9.5 29v893h-72q-37 0 -68.5 -4t-50.5 -11q-16 -6 -25 -16 t-11 -27l-60 -239h-121q-10 106 -11 202z" />
<glyph unicode="U" horiz-adv-x="1277" d="M68 1063v100h522v-100l-123 -25q-18 -2 -27.5 -14t-9.5 -31v-573q0 -166 61.5 -251t190.5 -85q141 0 198.5 91t57.5 243v577q0 18 -8 30.5t-27 14.5l-125 23v100h434v-100l-84 -21q-18 -4 -26 -16t-8 -29v-567q0 -242 -122 -345t-329 -103q-236 0 -349.5 110.5 t-113.5 349.5v555q0 16 -9 28.5t-26 16.5z" />
<glyph unicode="V" d="M-12 1063v100h524v-100l-147 -29l288 -821l256 821l-147 29v100h422v-100l-99 -23q-14 -4 -25 -13t-16 -23l-333 -1008h-219l-371 1008q-6 14 -16.5 23t-24.5 13z" />
<glyph unicode="W" horiz-adv-x="1710" d="M-6 1063v100h512v-100l-135 -29l225 -823l199 698l-33 92q-4 14 -14.5 24.5t-24.5 14.5l-70 23v100h498v-100l-147 -29l219 -813l217 813l-135 29v100h405v-100l-100 -23q-14 -4 -24.5 -13t-14.5 -26l-287 -1007h-219l-207 717l-199 -717h-219l-311 1007 q-4 14 -14.5 24.5t-24.5 14.5z" />
<glyph unicode="X" horiz-adv-x="1144" d="M14 0v96l109 23q14 2 24.5 9t18.5 22l287 409l-291 449q-8 12 -18.5 20t-24.5 12l-84 23v100h518v-100l-125 -27l195 -317l208 317l-129 27v100h400v-100l-98 -23q-14 -4 -24.5 -11t-18.5 -19l-271 -381l316 -479q8 -14 18 -21.5t25 -9.5l86 -23v-96h-521v96l123 25 l-213 344l-225 -344l143 -25v-96h-428z" />
<glyph unicode="Y" horiz-adv-x="1114" d="M-14 1063v100h530v-100l-123 -29l228 -434l215 434l-136 29v100h406v-100l-88 -21q-14 -4 -25.5 -11t-17.5 -21l-285 -559v-285q0 -18 9.5 -28.5t27.5 -12.5l141 -29v-96h-608v96l143 29q16 2 26.5 12t10.5 29v287l-317 555q-8 14 -19.5 22t-25.5 10z" />
<glyph unicode="Z" horiz-adv-x="1048" d="M41 84l639 977h-176q-47 0 -85 -4t-59 -13q-16 -6 -26 -17t-19 -28l-61 -202h-135q-2 36 -2 73q0 55 4 113q6 96 20 182h793l37 -86l-627 -966h234q47 0 84.5 4t60.5 12q14 6 25.5 17.5t15.5 29.5l72 211l131 -16v-30q-1 -67 -7 -153q-8 -106 -22 -188h-848z" />
<glyph unicode="[" horiz-adv-x="612" d="M152 -281v1727l30 31q82 2 191.5 -4.5t204.5 -18.5v-96l-183 -21q-20 -2 -30.5 -12t-10.5 -31v-1421q0 -18 10.5 -30.5t30.5 -14.5l183 -18v-97q-94 -10 -204 -16t-192 -6z" />
<glyph unicode="\" horiz-adv-x="753" d="M43 1296h186l478 -1511h-187z" />
<glyph unicode="]" horiz-adv-x="612" d="M33 -190l184 18q18 2 28.5 14.5t10.5 30.5v1421q0 20 -10 30.5t-29 12.5l-184 21v96q94 12 203.5 18.5t193.5 4.5l33 -31v-1727l-33 -28q-84 0 -193.5 6t-203.5 16v97z" />
<glyph unicode="^" horiz-adv-x="948" d="M63 635l312 506l178 14l336 -520l-98 -66l-328 379l-316 -379z" />
<glyph unicode="_" horiz-adv-x="1304" d="M0 -186h1305v-113h-1305v113z" />
<glyph unicode="`" horiz-adv-x="745" d="M129 1214l133 123l279 -327l-66 -76q-104 61 -198 136t-148 144z" />
<glyph unicode="a" horiz-adv-x="921" d="M57 190q0 123 102.5 180.5t227.5 65.5l158 10v91q0 98 -44 137t-126 39q-70 0 -129.5 -22.5t-110.5 -69.5l-53 49q33 94 126 146t234 52q170 0 249 -80.5t79 -240.5v-387q0 -23 10.5 -33t30.5 -12l76 -11v-90q-27 -8 -75 -18t-89 -10q-61 0 -103 24.5t-63 77.5 q-45 -51 -110.5 -77.5t-145.5 -26.5q-109 0 -176.5 55t-67.5 151zM297 217q0 -49 24.5 -74.5t75.5 -25.5q39 0 79 13t69 36v188l-103 -8q-78 -4 -111.5 -39t-33.5 -90z" />
<glyph unicode="b" horiz-adv-x="980" d="M-16 1202v92q76 20 170 32.5t168 14.5l32 -30v-535q45 45 104.5 69.5t133.5 24.5q135 0 228 -97t93 -306q0 -225 -121 -354t-346 -129q-96 0 -188 19.5t-137 37.5v1102q0 18 -9.5 29.5t-25.5 13.5zM354 106q20 -10 48 -17t61 -7q98 0 149.5 80t53.5 258v14q0 164 -46 228 q-48 68 -133 67q-37 0 -70.5 -10t-62.5 -31v-582z" />
<glyph unicode="c" horiz-adv-x="845" d="M68 414q0 213 116.5 334.5t309.5 121.5q76 0 152.5 -17t125.5 -44q2 -31 2 -63q0 -40 -3 -80q-5 -72 -15 -136h-115l-39 142q-6 25 -12 39t-19 22q-14 12 -36.5 21.5t-51.5 9.5q-74 0 -120 -74t-46 -239q0 -160 52.5 -241t162.5 -81q66 0 117 24.5t80 51.5l53 -43 q-29 -80 -113.5 -130t-211.5 -50q-199 0 -294 124t-95 308z" />
<glyph unicode="d" horiz-adv-x="1024" d="M70 399q0 231 116.5 351t321.5 120q33 0 64.5 -4t58.5 -8v285q0 18 -9.5 29.5t-25.5 13.5l-104 16v92q76 20 170 32.5t169 14.5l33 -32v-1149q0 -25 10.5 -34t28.5 -11l78 -11v-90q-27 -8 -75 -18t-93 -10q-63 0 -104 26.5t-62 75.5q-43 -45 -103.5 -74.5t-137.5 -29.5 q-141 0 -238.5 99t-97.5 316zM315 428q0 -172 47 -241.5t125 -69.5q39 0 76 10t68 31v581q-20 12 -51 19.5t-62 7.5q-88 0 -144.5 -72.5t-58.5 -265.5z" />
<glyph unicode="e" horiz-adv-x="880" d="M70 418q0 217 108.5 333.5t304.5 116.5q164 0 246 -78.5t82 -209.5q0 -27 -2 -57.5t-8 -57.5h-494v-4q0 -178 54.5 -255t168.5 -77q63 0 123 24.5t99 71.5l55 -39q-29 -98 -122 -151t-224 -53q-201 0 -296 119.5t-95 316.5zM311 557h283q2 8 2 16.5v18.5q0 78 -32.5 127 t-100.5 49q-61 0 -101 -47t-51 -164z" />
<glyph unicode="f" horiz-adv-x="688" d="M53 733v90l137 25v49q0 82 34 161t87.5 141.5t123 101t138.5 38.5q57 0 112.5 -22.5t102.5 -54.5l-45 -132q-45 8 -91 14.5t-74 6.5q-78 -2 -119 -36t-41 -138v-131h241v-129h-241v-563q0 -18 10 -28.5t29 -12.5l153 -17v-96h-544v96l81 15q18 2 27.5 12t9.5 31v557z" />
<glyph unicode="g" horiz-adv-x="978" d="M55 -178q0 76 43 123t117 73q-45 20 -66.5 55.5t-21.5 80.5q0 57 30.5 97t80.5 62q-82 35 -119 100.5t-37 149.5q0 147 103.5 227t281.5 80q86 0 153.5 -20.5t112.5 -58.5q29 39 66 60t75 21q20 0 42 -5t38 -9v-162h-157q8 -25 13 -52.5t5 -57.5q0 -135 -93 -221 t-284 -86q-33 0 -61.5 3t-54.5 7q-14 -14 -20.5 -30.5t-6.5 -35.5q0 -43 38 -59.5t126 -16.5h162q147 0 225 -56t78 -169q0 -152 -136.5 -243t-361.5 -91q-193 0 -282 66.5t-89 167.5zM276 -137q0 -70 43.5 -117t147.5 -47q100 0 160.5 46t60.5 134q0 57 -30.5 84t-110.5 27 h-166q-16 0 -32.5 1t-31.5 3q-18 -25 -29.5 -57.5t-11.5 -73.5zM315 578q0 -102 35 -151.5t105 -49.5t101.5 49t31.5 149q0 104 -33 151.5t-102 47.5q-63 0 -100.5 -43.5t-37.5 -152.5z" />
<glyph unicode="h" horiz-adv-x="1081" d="M27 1208v92q74 20 168 29.5t167 11.5l33 -32v-547q55 55 125 79.5t150 24.5q147 0 202.5 -85t55.5 -238v-387q0 -20 9 -31.5t28 -13.5l84 -15v-96h-449v96l59 15q16 6 26.5 15t10.5 30v358q0 111 -32.5 160t-108.5 49q-39 0 -81 -11.5t-79 -35.5v-520q0 -20 9.5 -29.5 t27.5 -15.5l60 -15v-96h-449v96l82 15q18 2 28.5 13t10.5 30v995q0 18 -9.5 29.5t-27.5 13.5z" />
<glyph unicode="i" horiz-adv-x="579" d="M55 727v98q76 20 166 30.5t164 12.5l33 -30v-682q0 -20 9 -31.5t28 -13.5l84 -15v-96h-476v96l84 15q18 2 27.5 13t9.5 32v510q0 18 -8 30.5t-26 14.5zM151 1100q0 57 37 91t100 34q59 0 96.5 -34t37.5 -91t-37 -91t-97 -34q-63 0 -100 33.5t-37 91.5z" />
<glyph unicode="j" horiz-adv-x="530" d="M-53 -301q131 72 177 150.5t46 220.5v596q0 18 -9 30.5t-26 14.5l-96 16v98q74 20 165 30.5t165 12.5l30 -30v-758q0 -143 -29.5 -221t-93.5 -129q-55 -45 -129.5 -77t-156.5 -52zM121 1100q0 57 37 91t100 34q59 0 96.5 -34t37.5 -91t-37 -91t-97 -34q-63 0 -100 33.5 t-37 91.5z" />
<glyph unicode="k" horiz-adv-x="1042" d="M27 1202v92q76 20 168 32.5t167 14.5l33 -30v-895l293 315l-139 25v90h432v-90l-86 -23q-29 -4 -44 -11t-32 -22l-155 -155q25 -31 46 -66t46 -80l131 -237q8 -20 20.5 -29.5t30.5 -13.5l86 -23v-96h-283q-35 0 -59.5 41t-50.5 98l-72 154q-14 27 -26.5 51.5t-24.5 44.5 l-113 -113v-120q0 -20 9.5 -31.5t27.5 -13.5l82 -15v-96h-471v96l84 15q16 2 26.5 14t10.5 31v987q0 18 -9.5 29.5t-27.5 13.5z" />
<glyph unicode="l" horiz-adv-x="567" d="M29 1202v92q76 20 170 32.5t170 14.5l30 -32v-1153q0 -20 10.5 -31.5t26.5 -13.5l96 -15v-96h-497v96l96 15q18 2 27.5 13t9.5 30v989q0 18 -9 29.5t-28 13.5z" />
<glyph unicode="m" horiz-adv-x="1605" d="M55 727v98q72 20 153 30.5t150 12.5l35 -30l13 -82q51 57 121.5 83.5t148.5 26.5q88 0 143 -30.5t82 -87.5q57 63 132 90.5t157 27.5q152 0 206 -86t54 -243v-381q0 -20 9 -31.5t28 -13.5l86 -15v-96h-449v96l58 15q18 6 27.5 15t9.5 30v352q0 113 -33 164t-111 51 q-37 0 -75.5 -11.5t-77.5 -35.5q6 -29 9 -62.5t3 -70.5v-387q0 -20 9 -29.5t26 -15.5l59 -15v-96h-420v96l58 15q16 6 26 15t10 30v358q0 111 -29.5 160t-107.5 49q-35 0 -73.5 -11.5t-73.5 -31.5v-524q0 -20 8 -29.5t25 -15.5l61 -15v-96h-449v96l87 15q16 2 25 13t9 32 v510q0 18 -8 30.5t-26 14.5z" />
<glyph unicode="n" horiz-adv-x="1103" d="M55 727v98q72 20 153 30.5t150 12.5l35 -30l15 -86q57 61 128.5 87.5t153.5 26.5q147 0 202.5 -85t55.5 -238v-387q0 -20 9.5 -31.5t27.5 -13.5l84 -15v-96h-451v96l62 15q18 6 27.5 15t9.5 30v358q0 111 -32 160t-107 49q-39 0 -81 -11.5t-79 -35.5v-520q0 -20 9 -29.5 t26 -15.5l61 -15v-96h-451v96l87 15q16 2 25 13t9 32v510q0 18 -8 30.5t-26 14.5z" />
<glyph unicode="o" horiz-adv-x="972" d="M68 418q0 244 125.5 348t306.5 104q197 0 300 -112.5t103 -325.5q0 -244 -124 -347t-306 -103q-197 0 -301 111.5t-104 324.5zM319 436q0 -180 36 -266t137 -86q82 0 120.5 75t38.5 255q0 182 -35.5 268t-134.5 86q-82 0 -122 -75t-40 -257z" />
<glyph unicode="p" horiz-adv-x="1028" d="M39 727v98q70 18 151.5 29.5t151.5 13.5l35 -30l14 -76q43 49 104.5 78.5t143.5 29.5q135 0 228.5 -98t93.5 -307q0 -231 -123 -356t-330 -125q-25 0 -52.5 2t-54.5 8v-211q0 -16 9.5 -27.5t27.5 -13.5l119 -16v-95h-510v95l86 16q16 2 25.5 13.5t9.5 27.5v883 q0 18 -8 30.5t-25 14.5zM401 104q23 -12 50.5 -17t58.5 -5q92 0 147.5 74.5t55.5 267.5v14q0 149 -41 218q-43 73 -135 73q-41 0 -76 -12t-60 -29v-584z" />
<glyph unicode="q" horiz-adv-x="993" d="M70 399q0 221 115.5 346t314.5 125q57 0 116.5 -14t104.5 -37l102 45l39 -30v-1051q0 -16 10.5 -27.5t26.5 -13.5l70 -16v-95h-504v95l127 16q18 2 27.5 12t9.5 29v293q-39 -41 -95.5 -66.5t-127.5 -25.5q-143 0 -239.5 99t-96.5 316zM315 436q0 -178 47 -248.5 t125 -70.5q39 0 75 11t67 30v573q-20 16 -50 25.5t-65 9.5q-88 0 -143.5 -76t-55.5 -254z" />
<glyph unicode="r" horiz-adv-x="825" d="M55 727v98q68 20 146 30.5t143 12.5l37 -30l25 -146q51 78 119.5 128t142.5 50q25 0 59.5 -7t54.5 -15q3 -32 3 -70q0 -36 -3 -80q-6 -88 -22 -163h-103l-26 94q-8 27 -20.5 36t-37.5 9q-33 0 -74.5 -14.5t-80.5 -49.5v-454q0 -20 10 -31.5t29 -13.5l133 -15v-96h-527v96 l84 15q18 2 27.5 13t9.5 32v510q0 18 -8 30.5t-26 14.5z" />
<glyph unicode="s" horiz-adv-x="821" d="M80 164q2 62 10 117h119l31 -111q6 -23 13 -36t21 -23q16 -12 49 -24.5t78 -12.5q63 0 96 31.5t33 76.5q0 63 -64.5 97t-164.5 79q-94 45 -154.5 100.5t-60.5 153.5q0 117 88 186.5t256 69.5q70 0 147.5 -14t131.5 -35q2 -30 2 -63q0 -24 -1 -50q-3 -60 -14 -114h-110 l-31 104q-4 20 -12 32.5t-25 23.5q-20 10 -42.5 16t-49.5 8q-53 0 -88 -25.5t-35 -76.5q0 -63 56.5 -94t129.5 -62q104 -45 187.5 -103.5t83.5 -176.5q0 -129 -102.5 -195t-258.5 -66q-92 0 -174 20.5t-139 45.5q-6 47 -6 97v24z" />
<glyph unicode="t" horiz-adv-x="698" d="M39 737v88l94 17q20 4 30.5 13t14.5 28l74 231h131l6 -266h248v-125h-244v-428q0 -88 28 -121t79 -33q35 0 71.5 13.5t65.5 40.5l49 -54q-35 -78 -111.5 -116.5t-173.5 -38.5q-109 0 -176 53.5t-67 198.5v479z" />
<glyph unicode="u" horiz-adv-x="1064" d="M39 731v98q74 18 161 27.5t158 11.5l31 -30v-523q0 -111 32 -154.5t103 -43.5q39 0 77 12t71 35v506q0 18 -9.5 30.5t-25.5 14.5l-94 18v98q76 18 166 27.5t165 9.5l31 -30v-678q0 -25 10.5 -34t28.5 -11l78 -11v-90q-27 -8 -75 -18t-93 -10q-63 0 -104 26.5t-62 75.5 q-47 -49 -109.5 -76.5t-154.5 -27.5q-135 0 -200.5 72.5t-65.5 226.5v385q0 18 -8.5 30.5t-26.5 14.5z" />
<glyph unicode="v" horiz-adv-x="952" d="M8 754v94h459v-96l-115 -23l185 -543l182 543l-113 23v96h332v-94l-55 -19q-14 -4 -25.5 -12t-17.5 -23l-254 -712h-203l-281 712q-6 14 -15 22.5t-24 12.5z" />
<glyph unicode="w" horiz-adv-x="1384" d="M12 754v94h422v-96l-106 -23l145 -516l170 635h195l176 -633l137 514l-111 23v96h328v-94l-53 -17q-14 -4 -24.5 -13t-16.5 -26l-217 -710h-185l-182 600l-166 -600h-188l-232 712q-4 14 -14 23.5t-24 13.5z" />
<glyph unicode="x" horiz-adv-x="978" d="M33 0v94l73 15q14 2 25.5 8t22.5 18l219 275l-228 303q-8 12 -18 19t-25 9l-61 15v92h455v-92l-99 -23l140 -201l149 201l-92 23v92h336v-92l-68 -15q-14 -2 -25.5 -9t-19.5 -17l-211 -262l242 -318q8 -12 19.5 -19t25.5 -10l61 -12v-94h-452v94l90 21l-146 211 l-155 -211l110 -21v-94h-368z" />
<glyph unicode="y" horiz-adv-x="956" d="M14 754v94l465 -2v-94l-114 -25l188 -541l170 543l-111 23v96h334v-94l-59 -19q-16 -6 -26.5 -14t-16.5 -25l-248 -716q-63 -184 -149.5 -274.5t-215.5 -90.5q-47 0 -99 5t-95 13v115q172 23 275.5 69t170.5 183h-100l-266 696q-6 14 -17.5 24.5t-27.5 14.5z" />
<glyph unicode="z" horiz-adv-x="880" d="M49 86l488 664h-121q-31 0 -62.5 -2.5t-54.5 -4.5q-18 -2 -29.5 -11t-17.5 -30l-35 -145h-108q-7 73 -11 149q-1 28 -2 54q0 46 4 88h674l39 -86l-481 -664h121q37 0 73.5 2t67.5 9q20 2 31.5 10t15.5 24l51 160l107 -12q5 -54 5 -109q0 -18 -1 -38q-2 -74 -10 -144h-703 z" />
<glyph unicode="{" horiz-adv-x="673" d="M16 514v141q129 10 160 56.5t31 117.5q0 80 -14.5 175.5t-14.5 197.5q0 115 66.5 185.5t212.5 80.5q45 4 93 7.5t87 3.5l14 -103l-98 -24q-86 -18 -123 -60.5t-37 -130.5q0 -76 9.5 -173t9.5 -179q0 -102 -64.5 -151.5t-165.5 -69.5q100 -20 165 -72.5t65 -157.5 q0 -82 -9.5 -179t-9.5 -173q0 -88 37 -130t123 -62l98 -21l-14 -104q-39 0 -87 3t-93 7q-145 12 -212 81.5t-67 184.5q0 104 14.5 198.5t14.5 174.5q0 72 -31 118t-160 58z" />
<glyph unicode="|" horiz-adv-x="481" d="M152 -233v1650h178l-2 -1650h-176z" />
<glyph unicode="}" horiz-adv-x="673" d="M23 -207l98 21q86 18 123 60t37 130q0 78 -8.5 175t-8.5 179q0 104 63.5 155.5t164.5 72.5q-100 18 -164 69.5t-64 153.5q0 82 8.5 180t8.5 174q0 88 -37 131t-123 62l-98 20l16 103q39 0 87 -2t93 -7q143 -12 211 -81.5t68 -186.5q0 -102 -15.5 -197.5t-15.5 -175.5 q0 -72 31.5 -117.5t160.5 -56.5v-141q-129 -12 -160.5 -58t-31.5 -118q0 -80 15.5 -175t15.5 -198q0 -117 -68 -186.5t-211 -81.5q-45 -2 -93 -5t-87 -3z" />
<glyph unicode="~" horiz-adv-x="972" d="M92 389q39 92 106.5 146.5t143.5 54.5q88 0 165 -51.5t146 -51.5q43 0 82 27t70 66l67 -56q-39 -90 -106.5 -145t-142.5 -55q-88 0 -165 51t-147 51q-45 0 -83 -26.5t-70 -63.5z" />
<glyph unicode="&#xa1;" horiz-adv-x="491" d="M111 750q0 55 37.5 87.5t99.5 32.5q59 0 95 -32.5t36 -87.5q0 -57 -36 -90t-95 -33q-61 0 -99 32.5t-38 90.5zM117 -272l59 761h139l60 -761v-146h-258v146z" />
<glyph unicode="&#xa2;" horiz-adv-x="878" d="M72 438q0 201 104.5 317.5t274.5 135.5v162h135v-162q63 -8 119.5 -24.5t93.5 -37.5q4 -70 0 -140.5t-17 -133.5h-118l-35 141q-4 25 -12.5 39.5t-18.5 22.5q-14 14 -40 22t-54 8q-80 0 -131 -78.5t-51 -230.5q0 -160 56 -243.5t161 -83.5q76 0 126 28.5t80 61.5l58 -56 q-33 -70 -110 -118t-179 -60v-164h-133v168q-154 27 -231.5 145.5t-77.5 280.5z" />
<glyph unicode="&#xa3;" horiz-adv-x="1024" d="M59 106q66 37 119 98.5t53 184.5v76h-145v104h145v62q0 190 96.5 304t278.5 114q74 0 138.5 -16.5t115.5 -39.5q6 -68 2 -135t-16 -137h-131l-31 147q-2 14 -9 28.5t-24 27.5q-16 12 -36.5 18t-41.5 6q-37 0 -70.5 -43t-33.5 -176v-160h229v-104h-229v-33 q0 -96 -22.5 -160.5t-47.5 -99.5q61 0 124 -16.5t116 -16.5q55 0 85 23.5t42 68.5q8 27 14 62t8 67h146q8 -33 15 -75.5t7 -85.5q0 -119 -64.5 -170.5t-156.5 -51.5q-59 0 -111.5 17.5t-101.5 38t-97 38t-99 17.5q-45 -37 -99.5 -63.5t-105.5 -36.5z" />
<glyph unicode="&#xa4;" horiz-adv-x="1048" d="M82 211l166 164q-29 39 -45.5 88t-16.5 104q0 57 17.5 109.5t48.5 95.5l-170 168l90 94l172 -170q39 25 84 38t94 13t95.5 -13t84.5 -36l172 170l95 -94l-168 -166q29 -39 45 -88t16 -104q0 -57 -17.5 -109.5t-47.5 -95.5l168 -166l-93 -94l-172 170q-39 -25 -84 -38 t-94 -13t-94 13t-84 36l-170 -172zM356 573q0 -74 50 -125t116 -51q84 0 125 52.5t41 123.5q0 78 -51 129.5t-119 51.5q-78 0 -120 -55.5t-42 -125.5z" />
<glyph unicode="&#xa5;" horiz-adv-x="1130" d="M57 940v86h492v-86l-117 -25l197 -325l186 330l-125 24v86h377v-86l-80 -18q-14 -4 -23.5 -10.5t-17.5 -18.5l-219 -356h244v-99h-281v-108h281v-98h-281v-84q0 -16 9.5 -26.5t25.5 -12.5l133 -27v-86h-561v86l135 27q14 2 24.5 12t10.5 27v84h-283v98h283v108h-283v99 h238l-238 352q-8 10 -16 17.5t-23 11.5z" />
<glyph unicode="&#xa6;" horiz-adv-x="477" d="M150 -233v708h178v-708h-178zM150 707v710h178v-710h-178z" />
<glyph unicode="&#xa7;" horiz-adv-x="948" d="M76 512q0 92 45 158.5t104 99.5q-51 39 -75.5 86t-24.5 111q0 102 84 185t278 83q106 0 197.5 -26.5t128.5 -47.5q4 -61 0 -122.5t-14 -123.5h-133l-25 132q-2 12 -9 24t-26 27q-20 14 -58 25.5t-77 11.5q-74 0 -110.5 -32t-36.5 -81q0 -66 69.5 -105.5t208.5 -105.5 q121 -55 196.5 -124t75.5 -179q0 -88 -41.5 -154.5t-99.5 -99.5q53 -39 81 -86t28 -113q0 -104 -89 -186t-286 -82q-119 0 -216 30.5t-136 53.5q-2 59 1 120.5t13 125.5h133l27 -131q2 -12 8 -25.5t25 -26.5q27 -23 70.5 -35t90.5 -12q76 0 117 32t41 81q0 63 -71.5 103 t-219.5 106q-123 55 -198.5 123.5t-75.5 179.5zM242 596q0 -72 70.5 -121.5t215.5 -112.5q37 -16 71 -32.5t60 -30.5q20 27 35 61.5t15 65.5q0 72 -71 120t-214 111q-39 18 -72 35t-59 33q-23 -27 -37 -62.5t-14 -66.5z" />
<glyph unicode="&#xa8;" horiz-adv-x="745" d="M82 1100q0 53 32 85t85 32q51 0 82 -32t31 -85t-31 -86t-82 -33q-53 0 -85 33t-32 86zM432 1100q0 53 33 85t84 32t82 -32t31 -85t-31 -86t-82 -33t-84 33t-33 86z" />
<glyph unicode="&#xa9;" horiz-adv-x="1492" d="M72 582q0 145 51 270t141 215t214 141.5t270 51.5q293 0 483 -193t190 -485q0 -145 -51 -269.5t-140 -214.5t-213 -141t-269 -51t-269.5 51t-214.5 141t-141 214.5t-51 269.5zM182 582q0 -254 159 -418t407 -164q246 0 404.5 164t158.5 418q0 256 -158 420.5t-405 164.5 q-248 0 -407 -164.5t-159 -420.5zM406 575q0 190 104 290t262 100q74 0 140.5 -18.5t103.5 -45.5q6 -57 3 -117.5t-13 -121.5h-105l-31 120q-2 14 -7 25.5t-19 21.5t-37 19.5t-49 9.5q-70 0 -111 -62.5t-41 -189.5q0 -135 49.5 -204.5t143.5 -69.5q51 0 101 18.5t79 48.5 l49 -45q-29 -66 -105 -110.5t-180 -44.5q-160 0 -248.5 103.5t-88.5 272.5z" />
<glyph unicode="&#xaa;" horiz-adv-x="823" d="M76 664q0 90 81 138t185 52l121 6v64q0 70 -33 95t-98 25q-53 0 -100.5 -16t-86.5 -49l-47 39q29 76 105 118t192 42q141 0 206 -64.5t65 -187.5v-279q0 -18 8 -25.5t22 -9.5l60 -6v-78q-23 -6 -63 -14t-77 -8q-51 0 -85.5 17.5t-53.5 60.5q-35 -39 -87 -58.5t-116 -19.5 q-90 0 -144 44t-54 114zM291 688q0 -35 16 -52.5t55 -17.5q27 0 53.5 7.5t47.5 19.5v139l-68 -4q-59 -2 -81.5 -28.5t-22.5 -63.5z" />
<glyph unicode="&#xab;" horiz-adv-x="632" d="M61 397v115l437 342l65 -82l-254 -317l258 -312l-69 -82zM524 397v115l437 342l65 -82l-254 -317l258 -312l-69 -82z" />
<glyph unicode="&#xac;" horiz-adv-x="950" d="M104 381v151h736v-454h-162v303h-574z" />
<glyph unicode="&#xad;" horiz-adv-x="798" d="M104 369v151h590v-151h-590z" />
<glyph unicode="&#xae;" horiz-adv-x="1300" d="M74 813q0 250 164.5 413t412.5 163t411 -164t163 -412t-163 -412.5t-411 -164.5t-412.5 164.5t-164.5 412.5zM174 813q0 -215 135 -353t342 -138t341 138t134 353q0 213 -133 351.5t-342 138.5q-207 0 -342 -138.5t-135 -351.5zM365 502v61l43 12q10 2 16 10.5t6 18.5 v418q0 10 -6 18.5t-18 10.5l-41 10v69h137q43 -2 82 0.5t75 2.5q131 0 190.5 -42t59.5 -137q0 -59 -30.5 -107t-106.5 -67q27 -10 43 -27.5t27 -43.5l43 -93q10 -20 24.5 -28t51.5 -19v-67h-154q-20 0 -35.5 19.5t-26.5 51.5l-38 103q-8 25 -19.5 43t-21.5 33l-88 -2v-148 q0 -12 6 -19.5t18 -9.5l47 -10v-61h-284zM578 827q23 -2 41 -2h36q43 0 70 30t27 91q0 59 -27 86t-86 27q-14 0 -29.5 -2t-31.5 -6v-224z" />
<glyph unicode="&#xaf;" horiz-adv-x="745" d="M107 1012v137h530v-137h-530z" />
<glyph unicode="&#xb0;" horiz-adv-x="688" d="M66 963q0 117 81.5 196.5t194.5 79.5q121 0 201 -83t80 -193q0 -117 -82 -196t-199 -79q-113 0 -194.5 82t-81.5 193zM203 963q0 -59 42 -104.5t99 -45.5q61 0 100 43t39 107q0 59 -41 104t-100 45q-61 0 -100 -43t-39 -106z" />
<glyph unicode="&#xb1;" horiz-adv-x="878" d="M92 483v142h158l117 -4l-7 118v144h158v-144l-4 -118l115 4h157v-142h-157l-115 4l4 -114v-137h-158v137l7 114l-117 -4h-158zM100 0v141h678v-141h-678z" />
<glyph unicode="&#xb2;" horiz-adv-x="768" d="M82 545q166 119 262 215t96 194q0 57 -34.5 94t-98.5 37q-51 0 -94 -22.5t-76 -54.5l-45 43q20 59 88 109t182 50q131 0 201 -68.5t70 -160.5q0 -63 -31 -121.5t-81 -109t-111.5 -93.5t-122.5 -75h133q74 0 103.5 13t37.5 32l39 84l92 -11q-2 -51 -10.5 -117.5 t-22.5 -117.5h-553z" />
<glyph unicode="&#xb3;" horiz-adv-x="720" d="M68 553l45 72q35 -23 87 -39.5t105 -16.5q70 0 114 30t44 85q0 51 -42 75.5t-120 24.5h-78v88h21q92 0 136 34t44 85t-39 75t-92 24q-41 0 -82 -13.5t-76 -44.5l-43 47q33 70 106.5 100.5t151.5 30.5q106 0 180 -51t74 -133q0 -74 -53 -119t-119 -55q88 0 155.5 -45 t67.5 -135q0 -88 -81.5 -152.5t-227.5 -64.5q-90 0 -161.5 26.5t-116.5 71.5z" />
<glyph unicode="&#xb4;" horiz-adv-x="745" d="M238 1006l289 331l133 -123q-51 -68 -153 -143.5t-208 -136.5z" />
<glyph unicode="&#xb5;" horiz-adv-x="1116" d="M143 842l188 26l33 -28l-6 -441q2 -123 56.5 -174t111.5 -51q49 0 100 36t80 112l-6 520l180 26l33 -28l-19 -574q-2 -80 19.5 -107.5t58.5 -27.5h95v-86q-37 -27 -86.5 -45t-92.5 -18q-66 0 -110.5 49t-57.5 147q-33 -94 -96 -145t-133 -51q-45 0 -93 25.5t-79 82.5 l39 -424l-176 -65l-33 30q2 152 4 324t2 295q0 158 -5 291t-7 301z" />
<glyph unicode="&#xb6;" horiz-adv-x="1146" d="M51 856q0 141 93.5 234.5t293.5 93.5q94 0 210 -10.5t253 -10.5h166v-100l-109 -23q-18 -2 -27 -14t-9 -29v-837q0 -16 9 -27.5t25 -13.5l119 -23v-96h-338v1049q-33 2 -80 5t-86 3v-895q0 -207 -78.5 -299.5t-275.5 -147.5l-43 103q131 70 173 154.5t42 260.5v269 q-123 12 -230.5 96t-107.5 258z" />
<glyph unicode="&#xb7;" horiz-adv-x="475" d="M102 498q0 57 38 92t99 35t99.5 -35t38.5 -92t-38 -93t-100 -36q-61 0 -99 35.5t-38 93.5z" />
<glyph unicode="&#xb8;" horiz-adv-x="745" d="M211 -309q76 6 115 33.5t39 66.5q0 33 -26.5 49.5t-65.5 18.5l61 180h82l-31 -105h27q61 -4 100 -40.5t39 -94.5q0 -86 -81 -138t-203 -52h-22.5t-21.5 2z" />
<glyph unicode="&#xb9;" horiz-adv-x="710" d="M86 1071q70 16 142.5 52t136.5 87l110 -18v-574q0 -18 7 -26t26 -10l145 -23v-94h-549v94l162 23q18 2 26.5 10t8.5 26v400q-43 -14 -94 -24.5t-101 -12.5z" />
<glyph unicode="&#xba;" horiz-adv-x="825" d="M72 829q0 190 101 268.5t251 78.5q156 0 243 -81t87 -251q0 -190 -101.5 -268t-249.5 -78q-156 0 -243.5 80.5t-87.5 250.5zM295 844q0 -141 25.5 -199.5t95.5 -58.5q57 0 84.5 53t27.5 188q0 143 -24.5 201.5t-93.5 58.5q-57 0 -86 -53t-29 -190z" />
<glyph unicode="&#xbb;" horiz-adv-x="1087" d="M66 143l258 312l-254 317l65 82l436 -342v-115l-436 -336zM520 143l258 312l-254 317l66 82l436 -342v-115l-436 -336z" />
<glyph unicode="&#xbc;" horiz-adv-x="1814" d="M74 1071q70 16 142.5 52t136.5 87l110 -18v-574q0 -18 7 -26t26 -10l145 -23v-94h-549v94l162 23q18 2 26.5 10t8.5 26v400q-43 -14 -94 -24.5t-101 -12.5zM452 0l717 1163h160l-717 -1163h-160zM1098 213q86 129 158.5 262t134.5 264h160l26 -33q-111 -209 -184.5 -311 t-140.5 -162l225 13l29 180h133v-170l127 6v-123h-127v-139h-166v139h-322z" />
<glyph unicode="&#xbd;" horiz-adv-x="1798" d="M70 1071q70 16 142.5 52t136.5 87l110 -18v-574q0 -18 7 -26t26 -10l145 -23v-94h-549v94l162 23q18 2 26.5 10t8.5 26v400q-43 -14 -94 -24.5t-101 -12.5zM448 0l717 1163h160l-717 -1163h-160zM1135 80q166 119 262 215t96 194q0 57 -34.5 94t-98.5 37q-51 0 -94 -22.5 t-76 -54.5l-45 43q20 59 88 109t182 50q131 0 201 -68.5t70 -160.5q0 -63 -31 -121.5t-81 -109t-111.5 -93.5t-122.5 -75h133q74 0 103.5 13t37.5 32l39 84l92 -11q-2 -51 -10.5 -117.5t-22.5 -117.5h-553z" />
<glyph unicode="&#xbe;" horiz-adv-x="1804" d="M60 553l45 72q35 -23 87 -39.5t105 -16.5q70 0 114 30t44 85q0 51 -42 75.5t-120 24.5h-78v88h21q92 0 136 34t44 85t-39 75t-92 24q-41 0 -82 -13.5t-76 -44.5l-43 47q33 70 106.5 100.5t151.5 30.5q106 0 180 -51t74 -133q0 -74 -53 -119t-119 -55q88 0 155.5 -45 t67.5 -135q0 -88 -81.5 -152.5t-227.5 -64.5q-90 0 -161.5 26.5t-116.5 71.5zM442 0l717 1163h160l-717 -1163h-160zM1087 213q86 129 158.5 262t134.5 264h160l26 -33q-111 -209 -184.5 -311t-140.5 -162l225 13l29 180h133v-170l127 6v-123h-127v-139h-166v139h-322z" />
<glyph unicode="&#xbf;" horiz-adv-x="829" d="M45 -106q0 115 69.5 193.5t174.5 154.5q59 45 74.5 63.5t23.5 69.5l14 117h134q18 -39 37.5 -89.5t19.5 -95.5q0 -66 -41 -108.5t-105 -100.5q-82 -76 -119.5 -134t-37.5 -134q0 -70 36.5 -117t100.5 -47q39 0 68.5 16.5t46.5 32.5q14 16 20 32.5t10 43.5l19 166h137 q23 -66 37 -141.5t16 -147.5q-57 -49 -146 -83t-192 -34q-180 0 -288.5 100.5t-108.5 242.5zM330 750q0 53 36.5 86.5t98.5 33.5q61 0 97 -32.5t36 -87.5q0 -57 -36 -90t-97 -33t-98 34t-37 89z" />
<glyph unicode="&#xc0;" d="M-8 0v96l98 25q14 4 25.5 13t15.5 24l344 1009h230l350 -1009q6 -14 16 -23.5t27 -13.5l90 -25v-96h-520v96l145 27l-72 223h-403l-70 -223l144 -27v-96h-420zM309 1436l109 147l367 -260l-48 -84q-106 37 -230 88t-198 109zM375 461h327l-167 516z" />
<glyph unicode="&#xc1;" d="M-8 0v96l98 25q14 4 25.5 13t15.5 24l344 1009h230l350 -1009q6 -14 16 -23.5t27 -13.5l90 -25v-96h-520v96l145 27l-72 223h-403l-70 -223l144 -27v-96h-420zM375 461h327l-167 516zM408 1325l381 250l104 -150q-76 -55 -206 -102t-238 -80z" />
<glyph unicode="&#xc2;" d="M-8 0v96l98 25q14 4 25.5 13t15.5 24l344 1009h230l350 -1009q6 -14 16 -23.5t27 -13.5l90 -25v-96h-520v96l145 27l-72 223h-403l-70 -223l144 -27v-96h-420zM275 1309l231 239l154 6l247 -239l-67 -78l-258 154l-242 -156zM375 461h327l-167 516z" />
<glyph unicode="&#xc3;" d="M-8 0v96l98 25q14 4 25.5 13t15.5 24l344 1009h230l350 -1009q6 -14 16 -23.5t27 -13.5l90 -25v-96h-520v96l145 27l-72 223h-403l-70 -223l144 -27v-96h-420zM254 1307q23 80 81 144.5t142 64.5q86 0 143.5 -50.5t114.5 -50.5q37 0 68 27.5t55 64.5l72 -39 q-23 -80 -81 -144t-142 -64q-86 0 -143.5 50t-114.5 50q-39 0 -69 -27.5t-54 -64.5zM375 461h327l-167 516z" />
<glyph unicode="&#xc4;" d="M-8 0v96l98 25q14 4 25.5 13t15.5 24l344 1009h230l350 -1009q6 -14 16 -23.5t27 -13.5l90 -25v-96h-520v96l145 27l-72 223h-403l-70 -223l144 -27v-96h-420zM283 1378q0 51 31.5 85t82.5 34t83 -34t32 -85q0 -53 -31.5 -85.5t-83.5 -32.5q-51 0 -82.5 32.5t-31.5 85.5z M375 461h327l-167 516zM672 1378q0 51 31.5 85t83.5 34q51 0 82.5 -34t31.5 -85q0 -53 -31.5 -85.5t-82.5 -32.5t-83 32.5t-32 85.5z" />
<glyph unicode="&#xc5;" d="M-8 0v96l98 25q14 4 25.5 13t15.5 24l344 1009h230l350 -1009q6 -14 16 -23.5t27 -13.5l90 -25v-96h-520v96l145 27l-72 223h-403l-70 -223l144 -27v-96h-420zM365 1335q2 88 70.5 139.5t164.5 51.5q109 0 163 -54.5t54 -138.5q0 -88 -66.5 -140t-160.5 -52 q-109 0 -167 53t-58 141zM375 461h327l-167 516zM496 1337q0 -41 23.5 -72.5t72.5 -31.5q47 0 71.5 24.5t24.5 71.5q0 45 -22.5 75t-73.5 30q-45 0 -70.5 -25t-25.5 -72z" />
<glyph unicode="&#xc6;" horiz-adv-x="1583" d="M-10 0v96l108 25q14 2 23.5 11t17.5 24l377 876l-190 31v100h1130q8 -76 8 -151.5t-6 -155.5h-117l-36 139q-4 18 -15.5 28.5t-27.5 18.5q-20 8 -57.5 12.5t-78.5 4.5h-145v-412l334 12v-139l-334 8v-417h180q41 0 83 4t63 12q16 8 24 18.5t15 30.5l63 176l115 -18 q0 -84 -7.5 -166t-21.5 -168h-901v96l119 23q16 2 25.5 13t9.5 30v252h-345l-124 -295l147 -23v-96h-436zM453 530h295v519h-78z" />
<glyph unicode="&#xc7;" horiz-adv-x="1081" d="M78 559q0 317 156.5 471t414.5 154q82 0 176.5 -15.5t173.5 -44.5q4 -70 1 -151.5t-17 -167.5h-143l-39 184q-4 14 -13.5 30.5t-27.5 27.5q-20 14 -58 24t-79 10q-127 0 -199 -115.5t-72 -377.5q0 -240 64.5 -374t210.5 -134q41 0 81 12t66 33q10 8 18.5 21.5t14.5 33.5 l51 166l141 -10q4 -66 1 -143.5t-15 -153.5q-76 -27 -177.5 -45.5t-197.5 -18.5q-268 0 -400 153t-132 431zM434 -309q76 6 115 33.5t39 66.5q0 33 -26.5 49.5t-65.5 18.5l61 180h82l-31 -105h27q61 -4 100 -40.5t39 -94.5q0 -86 -81 -138t-203 -52h-22.5t-21.5 2z" />
<glyph unicode="&#xc8;" horiz-adv-x="1069" d="M72 0v96l116 23q18 2 27.5 13t9.5 30v833q0 18 -10 30.5t-27 14.5l-116 23v100h872q8 -76 8 -151.5t-6 -155.5h-117l-36 139q-4 18 -15.5 28.5t-27.5 18.5q-23 8 -60 12.5t-76 4.5h-145v-406l334 13v-142l-334 8v-421h180q41 0 83 4t63 12q14 8 23 18.5t16 30.5l61 176 l117 -18q0 -84 -8.5 -166t-22.5 -168h-909zM270 1436l109 147l367 -260l-48 -84q-106 37 -230 88t-198 109z" />
<glyph unicode="&#xc9;" horiz-adv-x="1069" d="M72 0v96l116 23q18 2 27.5 13t9.5 30v833q0 18 -10 30.5t-27 14.5l-116 23v100h872q8 -76 8 -151.5t-6 -155.5h-117l-36 139q-4 18 -15.5 28.5t-27.5 18.5q-23 8 -60 12.5t-76 4.5h-145v-406l334 13v-142l-334 8v-421h180q41 0 83 4t63 12q14 8 23 18.5t16 30.5l61 176 l117 -18q0 -84 -8.5 -166t-22.5 -168h-909zM369 1325l381 250l104 -150q-76 -55 -206 -102t-238 -80z" />
<glyph unicode="&#xca;" horiz-adv-x="1069" d="M72 0v96l116 23q18 2 27.5 13t9.5 30v833q0 18 -10 30.5t-27 14.5l-116 23v100h872q8 -76 8 -151.5t-6 -155.5h-117l-36 139q-4 18 -15.5 28.5t-27.5 18.5q-23 8 -60 12.5t-76 4.5h-145v-406l334 13v-142l-334 8v-421h180q41 0 83 4t63 12q14 8 23 18.5t16 30.5l61 176 l117 -18q0 -84 -8.5 -166t-22.5 -168h-909zM236 1309l231 239l154 6l247 -239l-67 -78l-258 154l-242 -156z" />
<glyph unicode="&#xcb;" horiz-adv-x="1069" d="M72 0v96l116 23q18 2 27.5 13t9.5 30v833q0 18 -10 30.5t-27 14.5l-116 23v100h872q8 -76 8 -151.5t-6 -155.5h-117l-36 139q-4 18 -15.5 28.5t-27.5 18.5q-23 8 -60 12.5t-76 4.5h-145v-406l334 13v-142l-334 8v-421h180q41 0 83 4t63 12q14 8 23 18.5t16 30.5l61 176 l117 -18q0 -84 -8.5 -166t-22.5 -168h-909zM244 1378q0 51 31.5 85t82.5 34t83 -34t32 -85q0 -53 -31.5 -85.5t-83.5 -32.5q-51 0 -82.5 32.5t-31.5 85.5zM633 1378q0 51 31.5 85t83.5 34q51 0 82.5 -34t31.5 -85q0 -53 -31.5 -85.5t-82.5 -32.5t-83 32.5t-32 85.5z" />
<glyph unicode="&#xcc;" horiz-adv-x="692" d="M63 1436l109 147l367 -260l-48 -84q-106 37 -230 88t-198 109zM72 0v96l116 23q18 2 27.5 13t9.5 30v833q0 18 -10 30.5t-27 14.5l-116 23v100h549v-100l-117 -23q-18 -2 -26.5 -14t-8.5 -31v-831q0 -20 8 -31.5t27 -13.5l117 -23v-96h-549z" />
<glyph unicode="&#xcd;" horiz-adv-x="692" d="M72 0v96l116 23q18 2 27.5 13t9.5 30v833q0 18 -10 30.5t-27 14.5l-116 23v100h549v-100l-117 -23q-18 -2 -26.5 -14t-8.5 -31v-831q0 -20 8 -31.5t27 -13.5l117 -23v-96h-549zM162 1325l381 250l104 -150q-76 -55 -206 -102t-238 -80z" />
<glyph unicode="&#xce;" horiz-adv-x="692" d="M29 1309l231 239l154 6l247 -239l-67 -78l-258 154l-242 -156zM72 0v96l116 23q18 2 27.5 13t9.5 30v833q0 18 -10 30.5t-27 14.5l-116 23v100h549v-100l-117 -23q-18 -2 -26.5 -14t-8.5 -31v-831q0 -20 8 -31.5t27 -13.5l117 -23v-96h-549z" />
<glyph unicode="&#xcf;" horiz-adv-x="692" d="M37 1378q0 51 31.5 85t82.5 34t83 -34t32 -85q0 -53 -31.5 -85.5t-83.5 -32.5q-51 0 -82.5 32.5t-31.5 85.5zM72 0v96l116 23q18 2 27.5 13t9.5 30v833q0 18 -10 30.5t-27 14.5l-116 23v100h549v-100l-117 -23q-18 -2 -26.5 -14t-8.5 -31v-831q0 -20 8 -31.5t27 -13.5 l117 -23v-96h-549zM426 1378q0 51 31.5 85t83.5 34q51 0 82.5 -34t31.5 -85q0 -53 -31.5 -85.5t-82.5 -32.5t-83 32.5t-32 85.5z" />
<glyph unicode="&#xd0;" horiz-adv-x="1255" d="M74 0v96l119 23q14 2 23 13t9 26v379h-143v114h143v350q0 14 -8 24.5t-22 12.5l-121 25v100h270q76 0 139.5 5.5t128.5 5.5q285 0 424.5 -137.5t139.5 -418.5q0 -309 -155 -471.5t-427 -158.5q-51 2 -125 7t-121 5h-274zM469 111q25 -8 62.5 -12.5t68.5 -4.5 q147 2 229 110.5t82 377.5q0 238 -76.5 364.5t-248.5 126.5q-39 0 -71 -6t-46 -8v-408h215v-114h-215v-426z" />
<glyph unicode="&#xd1;" horiz-adv-x="1339" d="M72 0v96l116 23q18 2 27.5 13t9.5 30v833q0 18 -10 30.5t-27 14.5l-116 23v100h401l524 -833v665q0 18 -9 30.5t-27 14.5l-123 23v100h442v-100l-106 -23q-18 -4 -27.5 -15t-9.5 -30v-995h-217l-555 889v-727q0 -18 9 -29.5t27 -13.5l136 -23v-96h-465zM336 1307 q23 80 81 144.5t142 64.5q86 0 143.5 -50.5t114.5 -50.5q37 0 68 27.5t55 64.5l72 -39q-23 -80 -81 -144t-142 -64q-86 0 -143.5 50t-114.5 50q-39 0 -69 -27.5t-54 -64.5z" />
<glyph unicode="&#xd2;" horiz-adv-x="1191" d="M78 561q0 297 140 461t396 164t378 -158t122 -426q0 -295 -141.5 -460t-397.5 -165q-254 0 -375.5 158t-121.5 426zM313 1436l109 147l367 -260l-48 -84q-106 37 -230 88t-198 109zM344 575q0 -254 62.5 -372.5t185.5 -118.5t188.5 121t65.5 385q0 256 -61.5 372.5 t-186.5 116.5q-123 0 -188.5 -120.5t-65.5 -383.5z" />
<glyph unicode="&#xd3;" horiz-adv-x="1191" d="M78 561q0 297 140 461t396 164t378 -158t122 -426q0 -295 -141.5 -460t-397.5 -165q-254 0 -375.5 158t-121.5 426zM344 575q0 -254 62.5 -372.5t185.5 -118.5t188.5 121t65.5 385q0 256 -61.5 372.5t-186.5 116.5q-123 0 -188.5 -120.5t-65.5 -383.5zM412 1325l381 250 l104 -150q-76 -55 -206 -102t-238 -80z" />
<glyph unicode="&#xd4;" horiz-adv-x="1191" d="M78 561q0 297 140 461t396 164t378 -158t122 -426q0 -295 -141.5 -460t-397.5 -165q-254 0 -375.5 158t-121.5 426zM279 1309l231 239l154 6l247 -239l-67 -78l-258 154l-242 -156zM344 575q0 -254 62.5 -372.5t185.5 -118.5t188.5 121t65.5 385q0 256 -61.5 372.5 t-186.5 116.5q-123 0 -188.5 -120.5t-65.5 -383.5z" />
<glyph unicode="&#xd5;" horiz-adv-x="1191" d="M78 561q0 297 140 461t396 164t378 -158t122 -426q0 -295 -141.5 -460t-397.5 -165q-254 0 -375.5 158t-121.5 426zM258 1307q23 80 81 144.5t142 64.5q86 0 143.5 -50.5t114.5 -50.5q37 0 68 27.5t55 64.5l72 -39q-23 -80 -81 -144t-142 -64q-86 0 -143.5 50t-114.5 50 q-39 0 -69 -27.5t-54 -64.5zM344 575q0 -254 62.5 -372.5t185.5 -118.5t188.5 121t65.5 385q0 256 -61.5 372.5t-186.5 116.5q-123 0 -188.5 -120.5t-65.5 -383.5z" />
<glyph unicode="&#xd6;" horiz-adv-x="1191" d="M78 561q0 297 140 461t396 164t378 -158t122 -426q0 -295 -141.5 -460t-397.5 -165q-254 0 -375.5 158t-121.5 426zM287 1378q0 51 31.5 85t82.5 34t83 -34t32 -85q0 -53 -31.5 -85.5t-83.5 -32.5q-51 0 -82.5 32.5t-31.5 85.5zM344 575q0 -254 62.5 -372.5t185.5 -118.5 t188.5 121t65.5 385q0 256 -61.5 372.5t-186.5 116.5q-123 0 -188.5 -120.5t-65.5 -383.5zM676 1378q0 51 31.5 85t83.5 34q51 0 82.5 -34t31.5 -85q0 -53 -31.5 -85.5t-82.5 -32.5t-83 32.5t-32 85.5z" />
<glyph unicode="&#xd7;" horiz-adv-x="827" d="M84 242l225 217l-225 217l115 119l215 -234l215 234l112 -119l-223 -217l223 -217l-112 -117l-215 233l-215 -233z" />
<glyph unicode="&#xd8;" horiz-adv-x="1191" d="M74 561q0 297 140 461t396 164q53 0 101.5 -7.5t91.5 -21.5l69 143l109 -57l-70 -141q100 -72 149.5 -200t49.5 -300q0 -295 -141.5 -460t-397.5 -165q-51 0 -98 6.5t-86 20.5l-84 -166l-108 56l81 163q-102 72 -152 202t-50 302zM328 575q0 -113 12 -199.5t37 -146.5 l371 793q-29 31 -68 45t-86 14q-129 0 -197.5 -119t-68.5 -387zM438 135q29 -27 67 -41t83 -14q129 0 197.5 121t68.5 389q0 111 -11.5 194.5t-33.5 143.5z" />
<glyph unicode="&#xd9;" horiz-adv-x="1277" d="M68 1063v100h522v-100l-123 -25q-18 -2 -27.5 -14t-9.5 -31v-573q0 -166 61.5 -251t190.5 -85q141 0 198.5 91t57.5 243v577q0 18 -8 30.5t-27 14.5l-125 23v100h434v-100l-84 -21q-18 -4 -26 -16t-8 -29v-567q0 -242 -122 -345t-329 -103q-236 0 -349.5 110.5 t-113.5 349.5v555q0 16 -9 28.5t-26 16.5zM374 1436l109 147l367 -260l-48 -84q-106 37 -230 88t-198 109z" />
<glyph unicode="&#xda;" horiz-adv-x="1277" d="M68 1063v100h522v-100l-123 -25q-18 -2 -27.5 -14t-9.5 -31v-573q0 -166 61.5 -251t190.5 -85q141 0 198.5 91t57.5 243v577q0 18 -8 30.5t-27 14.5l-125 23v100h434v-100l-84 -21q-18 -4 -26 -16t-8 -29v-567q0 -242 -122 -345t-329 -103q-236 0 -349.5 110.5 t-113.5 349.5v555q0 16 -9 28.5t-26 16.5zM473 1325l381 250l104 -150q-76 -55 -206 -102t-238 -80z" />
<glyph unicode="&#xdb;" horiz-adv-x="1277" d="M68 1063v100h522v-100l-123 -25q-18 -2 -27.5 -14t-9.5 -31v-573q0 -166 61.5 -251t190.5 -85q141 0 198.5 91t57.5 243v577q0 18 -8 30.5t-27 14.5l-125 23v100h434v-100l-84 -21q-18 -4 -26 -16t-8 -29v-567q0 -242 -122 -345t-329 -103q-236 0 -349.5 110.5 t-113.5 349.5v555q0 16 -9 28.5t-26 16.5zM340 1309l231 239l154 6l247 -239l-67 -78l-258 154l-242 -156z" />
<glyph unicode="&#xdc;" horiz-adv-x="1277" d="M68 1063v100h522v-100l-123 -25q-18 -2 -27.5 -14t-9.5 -31v-573q0 -166 61.5 -251t190.5 -85q141 0 198.5 91t57.5 243v577q0 18 -8 30.5t-27 14.5l-125 23v100h434v-100l-84 -21q-18 -4 -26 -16t-8 -29v-567q0 -242 -122 -345t-329 -103q-236 0 -349.5 110.5 t-113.5 349.5v555q0 16 -9 28.5t-26 16.5zM348 1378q0 51 31.5 85t82.5 34t83 -34t32 -85q0 -53 -31.5 -85.5t-83.5 -32.5q-51 0 -82.5 32.5t-31.5 85.5zM737 1378q0 51 31.5 85t83.5 34q51 0 82.5 -34t31.5 -85q0 -53 -31.5 -85.5t-82.5 -32.5t-83 32.5t-32 85.5z" />
<glyph unicode="&#xdd;" horiz-adv-x="1114" d="M-14 1063v100h530v-100l-123 -29l228 -434l215 434l-136 29v100h406v-100l-88 -21q-14 -4 -25.5 -11t-17.5 -21l-285 -559v-285q0 -18 9.5 -28.5t27.5 -12.5l141 -29v-96h-608v96l143 29q16 2 26.5 12t10.5 29v287l-317 555q-8 14 -19.5 22t-25.5 10zM391 1325l381 250 l104 -150q-76 -55 -206 -102t-238 -80z" />
<glyph unicode="&#xde;" horiz-adv-x="1077" d="M78 0v96l102 23q18 2 27.5 13t9.5 30v833q0 18 -10 29.5t-27 15.5l-102 23v100h538v-100l-122 -23q-18 -2 -27.5 -14t-9.5 -31v-92q55 4 110.5 9.5t106.5 5.5q172 0 260 -77t88 -239q0 -184 -103.5 -271t-293.5 -87q-51 0 -91 2t-77 6v-88q0 -20 9 -31.5t28 -13.5 l122 -23v-96h-538zM457 350q33 -4 66.5 -6t60.5 -2q82 0 132 57.5t50 192.5q0 94 -42 157.5t-146 63.5q-29 0 -60 -2t-61 -6v-455z" />
<glyph unicode="&#xdf;" horiz-adv-x="1206" d="M53 733v90l131 25v47q0 176 142.5 310t332.5 134q135 0 243 -81.5t110 -235.5q0 -47 -10.5 -97.5t-28.5 -99.5q-82 -18 -130 -56t-48 -91q0 -49 44 -83t119 -79q100 -57 154.5 -116.5t54.5 -153.5q0 -131 -100.5 -200t-247.5 -69q-84 0 -160.5 20.5t-130.5 43.5 q-2 25 -4 51.5t-2 50.5q0 37 3 72t10 68h116l31 -111q8 -27 14 -39t21 -22q16 -14 42.5 -25.5t59.5 -11.5q51 0 85 28.5t34 77.5q0 63 -52 104.5t-130 86.5q-76 45 -129.5 98t-53.5 141q0 90 54.5 150.5t130.5 95.5q8 33 13 64.5t5 60.5q0 94 -47 153.5t-139 59.5 q-80 0 -127 -53.5t-47 -179.5v-961h-353v96l84 15q18 2 27.5 13t9.5 30v559z" />
<glyph unicode="&#xe0;" horiz-adv-x="921" d="M57 190q0 123 102.5 180.5t227.5 65.5l158 10v91q0 98 -44 137t-126 39q-70 0 -129.5 -22.5t-110.5 -69.5l-53 49q33 94 126 146t234 52q170 0 249 -80.5t79 -240.5v-387q0 -23 10.5 -33t30.5 -12l76 -11v-90q-27 -8 -75 -18t-89 -10q-61 0 -103 24.5t-63 77.5 q-45 -51 -110.5 -77.5t-145.5 -26.5q-109 0 -176.5 55t-67.5 151zM200 1214l133 123l279 -327l-66 -76q-104 61 -198 136t-148 144zM297 217q0 -49 24.5 -74.5t75.5 -25.5q39 0 79 13t69 36v188l-103 -8q-78 -4 -111.5 -39t-33.5 -90z" />
<glyph unicode="&#xe1;" horiz-adv-x="921" d="M57 190q0 123 102.5 180.5t227.5 65.5l158 10v91q0 98 -44 137t-126 39q-70 0 -129.5 -22.5t-110.5 -69.5l-53 49q33 94 126 146t234 52q170 0 249 -80.5t79 -240.5v-387q0 -23 10.5 -33t30.5 -12l76 -11v-90q-27 -8 -75 -18t-89 -10q-61 0 -103 24.5t-63 77.5 q-45 -51 -110.5 -77.5t-145.5 -26.5q-109 0 -176.5 55t-67.5 151zM297 217q0 -49 24.5 -74.5t75.5 -25.5q39 0 79 13t69 36v188l-103 -8q-78 -4 -111.5 -39t-33.5 -90zM309 1006l289 331l133 -123q-51 -68 -153 -143.5t-208 -136.5z" />
<glyph unicode="&#xe2;" horiz-adv-x="921" d="M57 190q0 123 102.5 180.5t227.5 65.5l158 10v91q0 98 -44 137t-126 39q-70 0 -129.5 -22.5t-110.5 -69.5l-53 49q33 94 126 146t234 52q170 0 249 -80.5t79 -240.5v-387q0 -23 10.5 -33t30.5 -12l76 -11v-90q-27 -8 -75 -18t-89 -10q-61 0 -103 24.5t-63 77.5 q-45 -51 -110.5 -77.5t-145.5 -26.5q-109 0 -176.5 55t-67.5 151zM139 1008l219 290l149 15l242 -299l-78 -72l-239 195l-219 -197zM297 217q0 -49 24.5 -74.5t75.5 -25.5q39 0 79 13t69 36v188l-103 -8q-78 -4 -111.5 -39t-33.5 -90z" />
<glyph unicode="&#xe3;" horiz-adv-x="921" d="M57 190q0 123 102.5 180.5t227.5 65.5l158 10v91q0 98 -44 137t-126 39q-70 0 -129.5 -22.5t-110.5 -69.5l-53 49q33 94 126 146t234 52q170 0 249 -80.5t79 -240.5v-387q0 -23 10.5 -33t30.5 -12l76 -11v-90q-27 -8 -75 -18t-89 -10q-61 0 -103 24.5t-63 77.5 q-45 -51 -110.5 -77.5t-145.5 -26.5q-109 0 -176.5 55t-67.5 151zM118 1010q20 84 76.5 150.5t138.5 66.5q41 0 75 -16.5t62.5 -36t56.5 -36t54 -16.5q35 0 64.5 29t52.5 68l72 -41q-23 -82 -78 -148.5t-139 -66.5q-41 0 -75 16t-62.5 35.5t-55.5 36t-53 16.5 q-37 0 -66.5 -28.5t-50.5 -67.5zM297 217q0 -49 24.5 -74.5t75.5 -25.5q39 0 79 13t69 36v188l-103 -8q-78 -4 -111.5 -39t-33.5 -90z" />
<glyph unicode="&#xe4;" horiz-adv-x="921" d="M57 190q0 123 102.5 180.5t227.5 65.5l158 10v91q0 98 -44 137t-126 39q-70 0 -129.5 -22.5t-110.5 -69.5l-53 49q33 94 126 146t234 52q170 0 249 -80.5t79 -240.5v-387q0 -23 10.5 -33t30.5 -12l76 -11v-90q-27 -8 -75 -18t-89 -10q-61 0 -103 24.5t-63 77.5 q-45 -51 -110.5 -77.5t-145.5 -26.5q-109 0 -176.5 55t-67.5 151zM153 1100q0 53 32 85t85 32q51 0 82 -32t31 -85t-31 -86t-82 -33q-53 0 -85 33t-32 86zM297 217q0 -49 24.5 -74.5t75.5 -25.5q39 0 79 13t69 36v188l-103 -8q-78 -4 -111.5 -39t-33.5 -90zM503 1100 q0 53 33 85t84 32t82 -32t31 -85t-31 -86t-82 -33t-84 33t-33 86z" />
<glyph unicode="&#xe5;" horiz-adv-x="921" d="M57 190q0 123 102.5 180.5t227.5 65.5l158 10v91q0 98 -44 137t-126 39q-70 0 -129.5 -22.5t-110.5 -69.5l-53 49q33 94 126 146t234 52q170 0 249 -80.5t79 -240.5v-387q0 -23 10.5 -33t30.5 -12l76 -11v-90q-27 -8 -75 -18t-89 -10q-61 0 -103 24.5t-63 77.5 q-45 -51 -110.5 -77.5t-145.5 -26.5q-109 0 -176.5 55t-67.5 151zM223 1141q0 84 67.5 133t161.5 49q104 0 158.5 -52t54.5 -134q0 -86 -66.5 -136.5t-156.5 -50.5q-104 0 -161.5 51.5t-57.5 139.5zM297 217q0 -49 24.5 -74.5t75.5 -25.5q39 0 79 13t69 36v188l-103 -8 q-78 -4 -111.5 -39t-33.5 -90zM354 1141q0 -39 22.5 -69t67.5 -30t67.5 22.5t22.5 68.5q0 41 -22.5 69.5t-67.5 28.5q-43 0 -66.5 -22.5t-23.5 -67.5z" />
<glyph unicode="&#xe6;" horiz-adv-x="1343" d="M57 188q0 123 102.5 182.5t227.5 65.5l158 13v88q0 96 -47 136t-129 40q-61 0 -122 -22.5t-112 -69.5l-53 49q33 94 128 146t216 52q88 0 146.5 -26.5t93.5 -75.5q51 49 121.5 75.5t160.5 26.5q160 0 244 -78.5t84 -209.5q0 -27 -4 -57.5t-8 -57.5h-492v-2 q0 -184 58.5 -259t162.5 -75q63 0 123 24.5t96 71.5l58 -39q-31 -100 -126 -152t-218 -52q-109 0 -186.5 38.5t-123.5 108.5q-49 -70 -128.5 -107.5t-178.5 -37.5q-117 0 -184.5 55t-67.5 149zM297 217q0 -49 24.5 -74.5t75.5 -25.5q47 0 96.5 19.5t90.5 56.5 q-14 35 -24.5 75.5t-12.5 85.5l-105 -8q-80 -4 -112.5 -40t-32.5 -89zM776 557h283v35q0 76 -33.5 126t-99.5 50q-57 0 -97.5 -48t-52.5 -163z" />
<glyph unicode="&#xe7;" horiz-adv-x="845" d="M68 414q0 213 116.5 334.5t309.5 121.5q76 0 152.5 -17t125.5 -44q4 -70 -1 -142.5t-15 -136.5h-115l-39 142q-6 25 -12 39t-19 22q-14 12 -36.5 21.5t-51.5 9.5q-74 0 -120 -74t-46 -239q0 -160 52.5 -241t162.5 -81q66 0 117 24.5t80 51.5l53 -43q-29 -80 -113.5 -130 t-211.5 -50q-199 0 -294 124t-95 308zM278 -309q76 6 115 33.5t39 66.5q0 33 -26.5 49.5t-65.5 18.5l61 180h82l-31 -105h27q61 -4 100 -40.5t39 -94.5q0 -86 -81 -138t-203 -52h-22.5t-21.5 2z" />
<glyph unicode="&#xe8;" horiz-adv-x="880" d="M70 418q0 217 108.5 333.5t304.5 116.5q164 0 246 -78.5t82 -209.5q0 -27 -2 -57.5t-8 -57.5h-494v-4q0 -178 54.5 -255t168.5 -77q63 0 123 24.5t99 71.5l55 -39q-29 -98 -122 -151t-224 -53q-201 0 -296 119.5t-95 316.5zM215 1214l133 123l279 -327l-66 -76 q-104 61 -198 136t-148 144zM311 557h283q2 8 2 16.5v18.5q0 78 -32.5 127t-100.5 49q-61 0 -101 -47t-51 -164z" />
<glyph unicode="&#xe9;" horiz-adv-x="880" d="M70 418q0 217 108.5 333.5t304.5 116.5q164 0 246 -78.5t82 -209.5q0 -27 -2 -57.5t-8 -57.5h-494v-4q0 -178 54.5 -255t168.5 -77q63 0 123 24.5t99 71.5l55 -39q-29 -98 -122 -151t-224 -53q-201 0 -296 119.5t-95 316.5zM311 557h283q2 8 2 16.5v18.5q0 78 -32.5 127 t-100.5 49q-61 0 -101 -47t-51 -164zM324 1006l289 331l133 -123q-51 -68 -153 -143.5t-208 -136.5z" />
<glyph unicode="&#xea;" horiz-adv-x="880" d="M70 418q0 217 108.5 333.5t304.5 116.5q164 0 246 -78.5t82 -209.5q0 -27 -2 -57.5t-8 -57.5h-494v-4q0 -178 54.5 -255t168.5 -77q63 0 123 24.5t99 71.5l55 -39q-29 -98 -122 -151t-224 -53q-201 0 -296 119.5t-95 316.5zM154 1008l219 290l149 15l242 -299l-78 -72 l-239 195l-219 -197zM311 557h283q2 8 2 16.5v18.5q0 78 -32.5 127t-100.5 49q-61 0 -101 -47t-51 -164z" />
<glyph unicode="&#xeb;" horiz-adv-x="880" d="M70 418q0 217 108.5 333.5t304.5 116.5q164 0 246 -78.5t82 -209.5q0 -27 -2 -57.5t-8 -57.5h-494v-4q0 -178 54.5 -255t168.5 -77q63 0 123 24.5t99 71.5l55 -39q-29 -98 -122 -151t-224 -53q-201 0 -296 119.5t-95 316.5zM168 1100q0 53 32 85t85 32q51 0 82 -32 t31 -85t-31 -86t-82 -33q-53 0 -85 33t-32 86zM311 557h283q2 8 2 16.5v18.5q0 78 -32.5 127t-100.5 49q-61 0 -101 -47t-51 -164zM518 1100q0 53 33 85t84 32t82 -32t31 -85t-31 -86t-82 -33t-84 33t-33 86z" />
<glyph unicode="&#xec;" horiz-adv-x="579" d="M26 1214l133 123l279 -327l-66 -76q-104 61 -198 136t-148 144zM55 727v98q76 20 166 30.5t164 12.5l33 -30v-682q0 -20 9 -31.5t28 -13.5l84 -15v-96h-476v96l84 15q18 2 27.5 13t9.5 32v510q0 18 -8 30.5t-26 14.5z" />
<glyph unicode="&#xed;" horiz-adv-x="579" d="M55 727v98q76 20 166 30.5t164 12.5l33 -30v-682q0 -20 9 -31.5t28 -13.5l84 -15v-96h-476v96l84 15q18 2 27.5 13t9.5 32v510q0 18 -8 30.5t-26 14.5zM135 1006l289 331l133 -123q-51 -68 -153 -143.5t-208 -136.5z" />
<glyph unicode="&#xee;" horiz-adv-x="579" d="M-6 1004l190 292l149 13l213 -299l-77 -68l-211 195l-191 -195zM55 727v98q76 20 166 30.5t164 12.5l33 -30v-682q0 -20 9 -31.5t28 -13.5l84 -15v-96h-476v96l84 15q18 2 27.5 13t9.5 32v510q0 18 -8 30.5t-26 14.5z" />
<glyph unicode="&#xef;" horiz-adv-x="579" d="M-21 1100q0 53 32 85t85 32q51 0 82 -32t31 -85t-31 -86t-82 -33q-53 0 -85 33t-32 86zM55 727v98q76 20 166 30.5t164 12.5l33 -30v-682q0 -20 9 -31.5t28 -13.5l84 -15v-96h-476v96l84 15q18 2 27.5 13t9.5 32v510q0 18 -8 30.5t-26 14.5zM329 1100q0 53 33 85t84 32 t82 -32t31 -85t-31 -86t-82 -33t-84 33t-33 86z" />
<glyph unicode="&#xf0;" horiz-adv-x="968" d="M70 410q0 119 32.5 200.5t83 132t111.5 73t119 22.5q49 0 97 -14.5t87 -47.5q-23 76 -60.5 140.5t-90.5 121.5l-211 -147l-68 106l195 119q-45 37 -99.5 70t-118.5 65l41 88q90 -23 169 -56.5t145 -78.5l192 131l70 -106l-166 -96q143 -125 215 -295t72 -353 q0 -100 -22.5 -192t-73 -159.5t-133 -108.5t-199.5 -41q-182 0 -284.5 109.5t-102.5 316.5zM322 408q0 -141 34.5 -230.5t122.5 -89.5t125 85t37 278q0 53 -3 103t-11 95q-27 29 -64 44.5t-82 15.5q-74 0 -116.5 -64.5t-42.5 -236.5z" />
<glyph unicode="&#xf1;" horiz-adv-x="1103" d="M55 727v98q72 20 153 30.5t150 12.5l35 -30l15 -86q57 61 128.5 87.5t153.5 26.5q147 0 202.5 -85t55.5 -238v-387q0 -20 9.5 -31.5t27.5 -13.5l84 -15v-96h-451v96l62 15q18 6 27.5 15t9.5 30v358q0 111 -32 160t-107 49q-39 0 -81 -11.5t-79 -35.5v-520q0 -20 9 -29.5 t26 -15.5l61 -15v-96h-451v96l87 15q16 2 25 13t9 32v510q0 18 -8 30.5t-26 14.5zM231 1010q20 84 76.5 150.5t138.5 66.5q41 0 75 -16.5t62.5 -36t56.5 -36t54 -16.5q35 0 64.5 29t52.5 68l72 -41q-23 -82 -78 -148.5t-139 -66.5q-41 0 -75 16t-62.5 35.5t-55.5 36 t-53 16.5q-37 0 -66.5 -28.5t-50.5 -67.5z" />
<glyph unicode="&#xf2;" horiz-adv-x="972" d="M68 418q0 244 125.5 348t306.5 104q197 0 300 -112.5t103 -325.5q0 -244 -124 -347t-306 -103q-197 0 -301 111.5t-104 324.5zM241 1214l133 123l279 -327l-66 -76q-104 61 -198 136t-148 144zM319 436q0 -180 36 -266t137 -86q82 0 120.5 75t38.5 255q0 182 -35.5 268 t-134.5 86q-82 0 -122 -75t-40 -257z" />
<glyph unicode="&#xf3;" horiz-adv-x="972" d="M68 418q0 244 125.5 348t306.5 104q197 0 300 -112.5t103 -325.5q0 -244 -124 -347t-306 -103q-197 0 -301 111.5t-104 324.5zM319 436q0 -180 36 -266t137 -86q82 0 120.5 75t38.5 255q0 182 -35.5 268t-134.5 86q-82 0 -122 -75t-40 -257zM350 1006l289 331l133 -123 q-51 -68 -153 -143.5t-208 -136.5z" />
<glyph unicode="&#xf4;" horiz-adv-x="972" d="M68 418q0 244 125.5 348t306.5 104q197 0 300 -112.5t103 -325.5q0 -244 -124 -347t-306 -103q-197 0 -301 111.5t-104 324.5zM180 1008l219 290l149 15l242 -299l-78 -72l-239 195l-219 -197zM319 436q0 -180 36 -266t137 -86q82 0 120.5 75t38.5 255q0 182 -35.5 268 t-134.5 86q-82 0 -122 -75t-40 -257z" />
<glyph unicode="&#xf5;" horiz-adv-x="972" d="M68 418q0 244 125.5 348t306.5 104q197 0 300 -112.5t103 -325.5q0 -244 -124 -347t-306 -103q-197 0 -301 111.5t-104 324.5zM159 1010q20 84 76.5 150.5t138.5 66.5q41 0 75 -16.5t62.5 -36t56.5 -36t54 -16.5q35 0 64.5 29t52.5 68l72 -41q-23 -82 -78 -148.5 t-139 -66.5q-41 0 -75 16t-62.5 35.5t-55.5 36t-53 16.5q-37 0 -66.5 -28.5t-50.5 -67.5zM319 436q0 -180 36 -266t137 -86q82 0 120.5 75t38.5 255q0 182 -35.5 268t-134.5 86q-82 0 -122 -75t-40 -257z" />
<glyph unicode="&#xf6;" horiz-adv-x="972" d="M68 418q0 244 125.5 348t306.5 104q197 0 300 -112.5t103 -325.5q0 -244 -124 -347t-306 -103q-197 0 -301 111.5t-104 324.5zM194 1100q0 53 32 85t85 32q51 0 82 -32t31 -85t-31 -86t-82 -33q-53 0 -85 33t-32 86zM319 436q0 -180 36 -266t137 -86q82 0 120.5 75 t38.5 255q0 182 -35.5 268t-134.5 86q-82 0 -122 -75t-40 -257zM544 1100q0 53 33 85t84 32t82 -32t31 -85t-31 -86t-82 -33t-84 33t-33 86z" />
<glyph unicode="&#xf7;" horiz-adv-x="860" d="M84 391v141h692v-141h-692zM307 184q0 51 34 82t89 31t89 -31t34 -82q0 -49 -34 -79.5t-89 -30.5t-89 30.5t-34 79.5zM307 737q0 51 34 81t89 30t89 -30t34 -81t-34 -80.5t-89 -29.5t-89 29.5t-34 80.5z" />
<glyph unicode="&#xf8;" horiz-adv-x="972" d="M68 418q0 244 125.5 348t306.5 104q35 0 67.5 -3t61.5 -11l69 139l101 -53l-64 -131q82 -51 125 -147.5t43 -231.5q0 -244 -124 -347t-306 -103q-33 0 -64.5 3t-60.5 9l-74 -152l-100 54l68 141q-86 51 -130 146.5t-44 234.5zM301 436q0 -80 7 -141.5t24 -104.5l252 549 q-20 14 -45 22.5t-58 8.5q-88 0 -134 -75t-46 -259zM393 106q20 -12 45 -18t54 -6q88 0 134 74.5t46 257.5q0 78 -7.5 137t-21.5 102z" />
<glyph unicode="&#xf9;" horiz-adv-x="1064" d="M39 731v98q74 18 161 27.5t158 11.5l31 -30v-523q0 -111 32 -154.5t103 -43.5q39 0 77 12t71 35v506q0 18 -9.5 30.5t-25.5 14.5l-94 18v98q76 18 166 27.5t165 9.5l31 -30v-678q0 -25 10.5 -34t28.5 -11l78 -11v-90q-27 -8 -75 -18t-93 -10q-63 0 -104 26.5t-62 75.5 q-47 -49 -109.5 -76.5t-154.5 -27.5q-135 0 -200.5 72.5t-65.5 226.5v385q0 18 -8.5 30.5t-26.5 14.5zM266 1214l133 123l279 -327l-66 -76q-104 61 -198 136t-148 144z" />
<glyph unicode="&#xfa;" horiz-adv-x="1064" d="M39 731v98q74 18 161 27.5t158 11.5l31 -30v-523q0 -111 32 -154.5t103 -43.5q39 0 77 12t71 35v506q0 18 -9.5 30.5t-25.5 14.5l-94 18v98q76 18 166 27.5t165 9.5l31 -30v-678q0 -25 10.5 -34t28.5 -11l78 -11v-90q-27 -8 -75 -18t-93 -10q-63 0 -104 26.5t-62 75.5 q-47 -49 -109.5 -76.5t-154.5 -27.5q-135 0 -200.5 72.5t-65.5 226.5v385q0 18 -8.5 30.5t-26.5 14.5zM375 1006l289 331l133 -123q-51 -68 -153 -143.5t-208 -136.5z" />
<glyph unicode="&#xfb;" horiz-adv-x="1064" d="M39 731v98q74 18 161 27.5t158 11.5l31 -30v-523q0 -111 32 -154.5t103 -43.5q39 0 77 12t71 35v506q0 18 -9.5 30.5t-25.5 14.5l-94 18v98q76 18 166 27.5t165 9.5l31 -30v-678q0 -25 10.5 -34t28.5 -11l78 -11v-90q-27 -8 -75 -18t-93 -10q-63 0 -104 26.5t-62 75.5 q-47 -49 -109.5 -76.5t-154.5 -27.5q-135 0 -200.5 72.5t-65.5 226.5v385q0 18 -8.5 30.5t-26.5 14.5zM205 1008l219 290l149 15l242 -299l-78 -72l-239 195l-219 -197z" />
<glyph unicode="&#xfc;" horiz-adv-x="1064" d="M39 731v98q74 18 161 27.5t158 11.5l31 -30v-523q0 -111 32 -154.5t103 -43.5q39 0 77 12t71 35v506q0 18 -9.5 30.5t-25.5 14.5l-94 18v98q76 18 166 27.5t165 9.5l31 -30v-678q0 -25 10.5 -34t28.5 -11l78 -11v-90q-27 -8 -75 -18t-93 -10q-63 0 -104 26.5t-62 75.5 q-47 -49 -109.5 -76.5t-154.5 -27.5q-135 0 -200.5 72.5t-65.5 226.5v385q0 18 -8.5 30.5t-26.5 14.5zM219 1100q0 53 32 85t85 32q51 0 82 -32t31 -85t-31 -86t-82 -33q-53 0 -85 33t-32 86zM569 1100q0 53 33 85t84 32t82 -32t31 -85t-31 -86t-82 -33t-84 33t-33 86z" />
<glyph unicode="&#xfd;" horiz-adv-x="956" d="M14 754v94l465 -2v-94l-114 -25l188 -541l170 543l-111 23v96h334v-94l-59 -19q-16 -6 -26.5 -14t-16.5 -25l-248 -716q-63 -184 -149.5 -274.5t-215.5 -90.5q-47 0 -99 5t-95 13v115q172 23 275.5 69t170.5 183h-100l-266 696q-6 14 -17.5 24.5t-27.5 14.5zM377 1006 l289 331l133 -123q-51 -68 -153 -143.5t-208 -136.5z" />
<glyph unicode="&#xfe;" horiz-adv-x="987" d="M-10 1202v92q76 20 170 32.5t170 14.5l30 -30v-537q43 43 101.5 69.5t134.5 26.5q137 0 230.5 -97t93.5 -308q0 -231 -123 -356t-330 -125q-25 0 -52.5 3t-54.5 9v-213q0 -16 9.5 -27.5t27.5 -13.5l119 -16v-95h-510v95l86 16q16 2 26.5 13.5t10.5 27.5v1360 q0 18 -10 29.5t-27 13.5zM360 104q23 -12 50.5 -17t58.5 -5q92 0 147.5 74.5t57.5 267.5q2 162 -43 233.5t-135 71.5q-39 0 -75 -11t-61 -28v-586z" />
<glyph unicode="&#xff;" horiz-adv-x="956" d="M14 754v94l465 -2v-94l-114 -25l188 -541l170 543l-111 23v96h334v-94l-59 -19q-16 -6 -26.5 -14t-16.5 -25l-248 -716q-63 -184 -149.5 -274.5t-215.5 -90.5q-47 0 -99 5t-95 13v115q172 23 275.5 69t170.5 183h-100l-266 696q-6 14 -17.5 24.5t-27.5 14.5zM221 1100 q0 53 32 85t85 32q51 0 82 -32t31 -85t-31 -86t-82 -33q-53 0 -85 33t-32 86zM571 1100q0 53 33 85t84 32t82 -32t31 -85t-31 -86t-82 -33t-84 33t-33 86z" />
<glyph unicode="&#x152;" horiz-adv-x="1607" d="M78 559q0 293 141 456t397 163q37 0 76 -3.5t78 -11.5h711q8 -76 9 -151.5t-7 -155.5h-115l-39 139q-4 18 -15 28.5t-28 18.5q-20 8 -57 12.5t-78 4.5h-145v-406l333 13v-142l-333 8v-421h182q39 0 81 4t62 12q16 8 24.5 18.5t16.5 30.5l62 176l114 -18q0 -84 -7 -166 t-21 -168h-756v2q-41 -8 -85 -13t-89 -5q-262 0 -387 150.5t-125 424.5zM344 575q0 -260 65.5 -375.5t198.5 -115.5q41 0 81 11t75 38v899q-33 25 -73 35t-77 10q-135 0 -202.5 -117.5t-67.5 -384.5z" />
<glyph unicode="&#x153;" horiz-adv-x="1466" d="M68 420q0 240 124.5 345t299.5 105q98 0 171.5 -28.5t118.5 -83.5q51 53 125 81.5t166 28.5q160 0 242 -78.5t82 -209.5q0 -27 -3 -57.5t-8 -57.5h-493v-4q0 -178 54 -255t167 -77q63 0 123.5 24.5t97.5 71.5l58 -39q-31 -100 -125 -152t-215 -52q-94 0 -166 30.5 t-117 85.5q-51 -59 -130 -87.5t-175 -28.5q-188 0 -292.5 111.5t-104.5 326.5zM319 428q0 -172 37 -257t131 -85q84 0 123 75t39 263q0 174 -37 257t-131 83q-82 0 -122 -75t-40 -261zM897 557h283v35q0 78 -31.5 127t-101.5 49q-59 0 -99.5 -47t-50.5 -164z" />
<glyph unicode="&#x178;" horiz-adv-x="1114" d="M-14 1063v100h530v-100l-123 -29l228 -434l215 434l-136 29v100h406v-100l-88 -21q-14 -4 -25.5 -11t-17.5 -21l-285 -559v-285q0 -18 9.5 -28.5t27.5 -12.5l141 -29v-96h-608v96l143 29q16 2 26.5 12t10.5 29v287l-317 555q-8 14 -19.5 22t-25.5 10zM266 1378 q0 51 31.5 85t82.5 34t83 -34t32 -85q0 -53 -31.5 -85.5t-83.5 -32.5q-51 0 -82.5 32.5t-31.5 85.5zM655 1378q0 51 31.5 85t83.5 34q51 0 82.5 -34t31.5 -85q0 -53 -31.5 -85.5t-82.5 -32.5t-83 32.5t-32 85.5z" />
<glyph unicode="&#x2c6;" horiz-adv-x="745" d="M68 1008l219 290l149 15l242 -299l-78 -72l-239 195l-219 -197z" />
<glyph unicode="&#x2dc;" horiz-adv-x="745" d="M47 1010q20 84 76.5 150.5t138.5 66.5q41 0 75 -16.5t62.5 -36t56.5 -36t54 -16.5q35 0 64.5 29t52.5 68l72 -41q-23 -82 -78 -148.5t-139 -66.5q-41 0 -75 16t-62.5 35.5t-55.5 36t-53 16.5q-37 0 -66.5 -28.5t-50.5 -67.5z" />
<glyph unicode="&#x2000;" horiz-adv-x="791" />
<glyph unicode="&#x2001;" horiz-adv-x="1583" />
<glyph unicode="&#x2002;" horiz-adv-x="791" />
<glyph unicode="&#x2003;" horiz-adv-x="1583" />
<glyph unicode="&#x2004;" horiz-adv-x="527" />
<glyph unicode="&#x2005;" horiz-adv-x="395" />
<glyph unicode="&#x2006;" horiz-adv-x="263" />
<glyph unicode="&#x2007;" horiz-adv-x="263" />
<glyph unicode="&#x2008;" horiz-adv-x="197" />
<glyph unicode="&#x2009;" horiz-adv-x="316" />
<glyph unicode="&#x200a;" horiz-adv-x="87" />
<glyph unicode="&#x2010;" horiz-adv-x="778" d="M104 369v151h570v-151h-570z" />
<glyph unicode="&#x2011;" horiz-adv-x="778" d="M104 369v151h570v-151h-570z" />
<glyph unicode="&#x2012;" horiz-adv-x="778" d="M104 369v151h570v-151h-570z" />
<glyph unicode="&#x2013;" horiz-adv-x="1081" d="M104 367v153h873v-153h-873z" />
<glyph unicode="&#x2014;" horiz-adv-x="1665" d="M104 367v153h1459v-153h-1459z" />
<glyph unicode="&#x2018;" horiz-adv-x="430" d="M63 1063q0 119 79 215t180 147l47 -59q-53 -43 -92 -96t-39 -103q0 -31 13 -41t34 -22q23 -14 41 -42t18 -67q0 -55 -36 -90t-91 -35q-68 0 -111 50.5t-43 142.5z" />
<glyph unicode="&#x2019;" horiz-adv-x="432" d="M72 913q51 45 90 97.5t39 103.5q0 31 -13.5 40t-31.5 24q-25 14 -43.5 40.5t-18.5 67.5q0 53 36 89t93 36q66 0 109 -50t43 -142q0 -119 -78 -216.5t-180 -148.5z" />
<glyph unicode="&#x201a;" horiz-adv-x="471" d="M70 -172q51 45 90 97.5t39 103.5q0 31 -13.5 40t-31.5 24q-25 14 -43.5 40.5t-18.5 67.5q0 53 36 89t93 36q66 0 109 -50t43 -142q0 -119 -78 -216.5t-180 -148.5z" />
<glyph unicode="&#x201c;" horiz-adv-x="430" d="M63 1063q0 119 79 215t180 147l47 -59q-53 -43 -92 -96t-39 -103q0 -31 13 -41t34 -22q23 -14 41 -42t18 -67q0 -55 -36 -90t-91 -35q-68 0 -111 50.5t-43 142.5zM407 1063q0 119 79 215t180 147l47 -59q-53 -43 -92 -96t-39 -103q0 -31 13 -41t34 -22q23 -14 41 -42 t18 -67q0 -55 -36 -90t-91 -35q-68 0 -111 50.5t-43 142.5z" />
<glyph unicode="&#x201d;" horiz-adv-x="432" d="M72 913q51 45 90 97.5t39 103.5q0 31 -13.5 40t-31.5 24q-25 14 -43.5 40.5t-18.5 67.5q0 53 36 89t93 36q66 0 109 -50t43 -142q0 -119 -78 -216.5t-180 -148.5zM416 913q51 45 90 97.5t39 103.5q0 31 -13.5 40t-31.5 24q-25 14 -43.5 40.5t-18.5 67.5q0 53 36 89t93 36 q66 0 109 -50t43 -142q0 -119 -78 -216.5t-180 -148.5z" />
<glyph unicode="&#x201e;" horiz-adv-x="817" d="M70 -172q51 45 90 97.5t39 103.5q0 31 -13.5 40t-31.5 24q-25 14 -43.5 40.5t-18.5 67.5q0 53 36 89t93 36q66 0 109 -50t43 -142q0 -119 -78 -216.5t-180 -148.5zM416 -172q51 45 90 97.5t39 103.5q0 31 -13.5 40t-31.5 24q-25 14 -43.5 40.5t-18.5 67.5q0 53 36 89 t93 36q66 0 109 -50t43 -142q0 -119 -78 -216.5t-180 -148.5z" />
<glyph unicode="&#x2022;" horiz-adv-x="692" d="M141 471q0 88 55.5 141.5t149.5 53.5t149.5 -53.5t55.5 -141.5t-55.5 -140t-149.5 -52t-149.5 52t-55.5 140z" />
<glyph unicode="&#x2026;" horiz-adv-x="1361" d="M90 115q0 57 38 92t99 35t99.5 -35t38.5 -92t-38 -93t-100 -36q-61 0 -99 35.5t-38 93.5zM545 115q0 57 36.5 92t98.5 35q63 0 100 -35t37 -92t-37 -93t-100 -36q-61 0 -98 35.5t-37 93.5zM997 115q0 57 38 92t100 35q63 0 100 -35t37 -92t-37 -93t-100 -36 q-61 0 -99.5 35.5t-38.5 93.5z" />
<glyph unicode="&#x202f;" horiz-adv-x="316" />
<glyph unicode="&#x2039;" horiz-adv-x="632" d="M61 397v115l437 342l65 -82l-254 -317l258 -312l-69 -82z" />
<glyph unicode="&#x203a;" horiz-adv-x="632" d="M66 143l258 312l-254 317l65 82l436 -342v-115l-436 -336z" />
<glyph unicode="&#x205f;" horiz-adv-x="395" />
<glyph unicode="&#x20ac;" horiz-adv-x="1126" d="M63 346v98h162v20.5v20.5v40t2 38h-153v99h168q39 193 164.5 285.5t310.5 92.5q74 0 154.5 -14t148.5 -41q4 -63 0 -134t-16 -146h-130l-32 145q-6 27 -15.5 41t-23.5 24q-18 14 -48 22.5t-63 8.5q-86 0 -139 -67.5t-68 -216.5h293v-99h-301v-25.5v-27.5v-33.5t2 -32.5 h287v-98h-281q16 -129 64.5 -198.5t136.5 -69.5q37 0 71 14t50 29q10 8 18.5 21.5t14.5 29.5l51 143l131 -10q4 -57 1 -126.5t-13 -139.5q-63 -27 -154.5 -42t-171.5 -15q-197 0 -308.5 93t-139.5 271h-173z" />
<glyph unicode="&#x2122;" horiz-adv-x="1732" d="M83 1056q3 56 11 107h576q6 -51 7 -108.5t-3 -120.5h-72l-27 125q-2 14 -11 20t-25 6h-76v-415q0 -14 8 -24.5t23 -12.5l81 -12v-62h-382v62l73 12q14 4 22.5 12t8.5 23v417h-70q-16 0 -26.5 -6t-12.5 -20l-32 -125h-72q-4 66 -1 122zM705 559v62l53 12q14 4 21 10t9 25 l54 381q2 16 -7.5 24t-23.5 10l-55 13v67h311l119 -395l121 395h290v-67l-53 -11q-14 -2 -22.5 -12t-5.5 -24l49 -381q2 -14 10 -22.5t20 -12.5l52 -12v-62h-316v62l78 14l-51 414l-152 -494h-110l-164 504l-53 -424l79 -14v-62h-253z" />
<glyph unicode="&#x25fc;" horiz-adv-x="849" d="M0 0v850h850v-850h-850z" />
<glyph unicode="&#xfb02;" horiz-adv-x="1202" d="M53 733v90l137 25v61q0 82 39 159t101.5 137.5t141.5 97t157 36.5q47 0 98 -15t96 -42q45 20 92.5 35.5t85.5 23.5l35 -32v-1153q0 -20 9.5 -31.5t25.5 -13.5l96 -15v-96h-481v96l84 15q16 2 26.5 13t10.5 30v968q-45 14 -96.5 21.5t-98.5 7.5q-76 0 -138 -37t-62 -137 v-131h247v-129h-245v-563q0 -18 9 -28.5t30 -12.5l131 -17v-96h-518v96l81 15q18 2 27.5 12t9.5 31v557z" />
<glyph unicode="&#xfb04;" horiz-adv-x="1822" d="M53 733v90l137 23v31q4 160 123 288.5t260 128.5q57 0 110.5 -20.5t100.5 -50.5l-51 -138q-41 10 -85 16.5t-70 6.5q-78 -2 -121 -35t-43 -137v-90h397v63q0 82 39 159t101.5 137.5t141 97t156.5 36.5q47 0 97.5 -15t95.5 -40q45 20 92 34.5t86 22.5l35 -32v-1153 q0 -20 9 -31.5t28 -13.5l96 -15v-96h-481v96l84 15q16 2 26 13t10 30v968q-45 14 -95 21.5t-99 7.5q-76 0 -138.5 -37t-62.5 -137v-131h246v-129h-244v-563q0 -18 9.5 -28.5t27.5 -12.5l133 -17v-96h-518v96l82 15q18 2 27.5 12t9.5 31v563h-391v-563q0 -18 9 -28.5 t30 -12.5l129 -17v-96h-516v96l81 15q18 2 27.5 12t9.5 31v557z" />
</font>
</defs>
</svg>
