<?xml version="1.0" standalone="no"?>
<!DOCTYPE svg PUBLIC "-//W3C//DTD SVG 1.1//EN" "http://www.w3.org/Graphics/SVG/1.1/DTD/svg11.dtd" >
<svg xmlns="http://www.w3.org/2000/svg">
<metadata></metadata>
<defs>
<font id="yrsaregular" horiz-adv-x="899" >
<font-face units-per-em="2048" ascent="1638" descent="-410" />
<missing-glyph horiz-adv-x="442" />
<glyph horiz-adv-x="0" />
<glyph unicode="&#xd;" horiz-adv-x="0" />
<glyph unicode=" "  horiz-adv-x="442" />
<glyph unicode="&#x09;" horiz-adv-x="442" />
<glyph unicode="&#xa0;" horiz-adv-x="442" />
<glyph unicode="!" horiz-adv-x="489" d="M141 84q0 45 29 72.5t74 27.5q47 0 75.5 -27.5t28.5 -72.5q0 -43 -28.5 -71.5t-75.5 -28.5q-45 0 -74 28.5t-29 71.5zM154 1153v123h182v-123l-43 -807h-94z" />
<glyph unicode="&#x22;" horiz-adv-x="382" d="M111 1262h161l-30 -568h-101zM508 1262h161l-30 -568h-101z" />
<glyph unicode="#" horiz-adv-x="1079" d="M90 268v94h174l31 314h-180v90h190l25 256h125l-25 -256h258l25 256h125l-25 -256h180l-2 -90h-188l-29 -314h184l3 -94h-197l-25 -268h-127l25 268h-258l-25 -268h-127l25 268h-162zM389 362h256l31 314h-256z" />
<glyph unicode="$" horiz-adv-x="868" d="M90 96q-2 61 2 126t12 126h101l24 -141q2 -10 8.5 -21.5t16.5 -21.5q23 -25 72 -46.5t118 -21.5q92 0 141.5 44t49.5 110q0 74 -62.5 116t-173.5 93q-106 47 -198 111.5t-92 183.5q0 102 77.5 174.5t225.5 83.5v170h110v-170q59 -4 116.5 -17.5t100.5 -33.5q4 -63 1 -123 t-11 -117l-96 -2l-27 127q-2 10 -8 21.5t-20 21.5q-20 16 -58.5 29.5t-89.5 13.5q-88 0 -129 -38t-41 -95q0 -74 65.5 -116t178.5 -93q129 -59 212 -124t83 -169q0 -98 -82 -184t-248 -99v-170h-109v170q-86 8 -156.5 33t-113.5 49z" />
<glyph unicode="%" horiz-adv-x="1441" d="M61 836q0 160 90.5 244.5t200.5 84.5q129 0 205 -85t76 -218q0 -160 -91 -245t-200 -85q-129 0 -205 86.5t-76 217.5zM201 858q0 -109 41 -175.5t112 -66.5q63 0 99 59.5t36 162.5q0 109 -39.5 176t-113.5 67q-63 0 -99 -59.5t-36 -163.5zM303 0l707 1163h129l-707 -1163 h-129zM809 301q0 160 91 245t200 85q129 0 204.5 -86t75.5 -217q0 -160 -90 -245t-200 -85q-129 0 -205 85t-76 218zM948 326q0 -111 42 -177.5t112 -66.5q66 0 100.5 59.5t34.5 161.5q0 106 -40 175t-112 69q-66 0 -101.5 -59.5t-35.5 -161.5z" />
<glyph unicode="&#x26;" horiz-adv-x="1196" d="M82 272q0 131 74.5 202t158.5 104q-63 88 -98 164.5t-35 152.5q0 117 81 201t226 84q123 0 200 -66.5t77 -183.5q0 -113 -74 -194t-200 -134q70 -88 158.5 -187.5t164.5 -174.5q39 55 54.5 122.5t15.5 129.5q0 12 -5.5 27.5t-27.5 19.5l-117 22v78h381v-78l-76 -22 q-20 -8 -26 -18.5t-8 -31.5q-12 -82 -42 -159.5t-94 -143.5q61 -59 106.5 -74.5t137.5 -15.5v-78q-33 -10 -72.5 -20t-78.5 -10q-47 0 -95.5 20.5t-109.5 71.5q-66 -53 -150 -76.5t-166 -23.5q-147 0 -253.5 70.5t-106.5 221.5zM236 293q0 -100 63 -162.5t176 -62.5 q57 0 115.5 17t107.5 50q-88 82 -183 192.5t-153 190.5q-51 -39 -88.5 -91t-37.5 -134zM336 924q0 -45 22.5 -106.5t94.5 -162.5q74 55 122 125t48 158q0 70 -32 122t-104 52q-76 0 -113.5 -57t-37.5 -131z" />
<glyph unicode="'" horiz-adv-x="382" d="M111 1262h161l-30 -568h-101z" />
<glyph unicode="(" horiz-adv-x="530" d="M84 598q0 195 44 353.5t102.5 274t118 190.5t89.5 104l60 -60q-31 -39 -74 -110.5t-83 -175t-68.5 -241.5t-30.5 -308q-2 -193 27.5 -347.5t72.5 -267t87 -185.5t69 -106l-60 -57q-25 20 -83 89t-118.5 183.5t-106.5 280.5t-46 383z" />
<glyph unicode=")" horiz-adv-x="530" d="M35 -281q31 39 74 111t81.5 175.5t68.5 240.5t32 307q2 195 -29 348.5t-73 266t-86 186t-68 106.5l59 60q25 -20 83.5 -89t118.5 -185t106.5 -282.5t46.5 -383.5q0 -195 -44.5 -353.5t-103.5 -274.5t-117.5 -189.5t-89.5 -100.5z" />
<glyph unicode="*" d="M102 862l177 78l127 37l-127 37l-177 80l74 127l156 -113l96 -92l-31 129l-20 192h145l-18 -192l-33 -129l96 92l156 113l74 -127l-176 -80l-127 -37l127 -37l176 -78l-74 -129l-156 115l-96 92l33 -129l18 -193h-145l20 193l31 129l-96 -92l-156 -115z" />
<glyph unicode="+" horiz-adv-x="847" d="M84 401v113h160l125 -6l-7 127v168h121v-168l-4 -127l125 6h160v-113h-160l-125 7l4 -127v-168h-121v168l7 127l-125 -7h-160z" />
<glyph unicode="," horiz-adv-x="454" d="M84 -254q59 53 92 109.5t33 107.5q0 27 -11.5 38t-27.5 19q-20 14 -39.5 37t-19.5 62q0 43 29.5 73.5t76.5 30.5q51 0 89 -43t38 -127q0 -111 -64.5 -204t-160.5 -150z" />
<glyph unicode="-" horiz-adv-x="800" d="M121 387v113h559v-113h-559z" />
<glyph unicode="." horiz-adv-x="432" d="M106 92q0 47 31 77t80 30t79 -30t30 -77t-30 -77.5t-79 -30.5t-80 30.5t-31 77.5z" />
<glyph unicode="/" horiz-adv-x="718" d="M55 -215l473 1511h140l-473 -1511h-140z" />
<glyph unicode="0" horiz-adv-x="983" d="M102 504q0 268 108.5 403t291.5 135q109 0 182.5 -42t116.5 -112.5t61.5 -164.5t18.5 -199q0 -272 -109 -406t-291 -134q-109 0 -181.5 42t-116.5 113.5t-62.5 165.5t-18.5 199zM281 539q0 -207 45 -337t174 -130q111 0 156.5 107.5t45.5 307.5q0 207 -45 337t-174 130 q-113 0 -157.5 -106.5t-44.5 -308.5z" />
<glyph unicode="1" horiz-adv-x="700" d="M86 899q80 18 162 59t135 86l90 -16v-885q0 -20 10.5 -30.5t30.5 -12.5l152 -24v-76h-568v76l170 24q20 2 33.5 13.5t13.5 31.5v721q-33 -12 -99 -28.5t-114 -20.5z" />
<glyph unicode="2" horiz-adv-x="892" d="M70 96q143 131 240.5 224.5t155.5 163t82.5 126t24.5 111.5q0 92 -56 140t-132 48q-70 0 -123 -36.5t-96 -106.5l-60 45q27 86 113 158.5t223 72.5q131 0 220.5 -76.5t89.5 -213.5q0 -160 -134.5 -299.5t-392.5 -335.5h201q61 0 106.5 3t71.5 9q31 4 42 14.5t18 28.5 l51 127l84 -10q0 -68 -7.5 -143.5t-19.5 -145.5h-668z" />
<glyph unicode="3" horiz-adv-x="862" d="M70 98l43 62q49 -31 111.5 -50.5t131.5 -19.5q92 0 163 44t73 155q2 90 -51.5 145t-141.5 64q-27 -8 -56.5 -15.5t-55.5 -9.5l-23 82q123 27 203 83t80 150q0 59 -43 100.5t-117 41.5q-68 0 -124 -33t-97 -78l-51 49q41 76 127 125t192 49q117 0 200 -61t83 -166 q0 -100 -71 -171t-148 -97q90 2 182 -60.5t92 -191.5q0 -135 -111.5 -224t-271.5 -89q-100 0 -184 33.5t-135 82.5z" />
<glyph unicode="4" horiz-adv-x="903" d="M33 287q109 178 215 366.5t203 384.5h151l21 -43q-150 -268 -252.5 -436t-202.5 -272l364 14l17 246l137 8v-250l164 6v-114h-164v-197h-158v197h-446z" />
<glyph unicode="5" horiz-adv-x="872" d="M72 111l47 65q45 -35 105.5 -60.5t133.5 -25.5q104 0 174 61.5t70 176.5q0 98 -56.5 160.5t-160.5 62.5q-41 0 -88 -12.5t-92 -36.5l-62 43l31 479h557l-16 -127h-432l-27 -297q45 33 97.5 46t103.5 13q152 0 238.5 -85t86.5 -230q0 -162 -108.5 -262t-280.5 -100 q-106 0 -190 37.5t-131 91.5z" />
<glyph unicode="6" horiz-adv-x="937" d="M96 453q0 256 130 422.5t352 166.5q63 0 119.5 -15t101.5 -42l-27 -78q-43 18 -82 26.5t-74 8.5q-141 0 -230 -104.5t-107 -270.5q43 49 114.5 72t145.5 23q143 0 228 -90.5t85 -227.5q0 -156 -102.5 -259t-270.5 -103q-174 0 -278.5 121.5t-104.5 349.5zM272 422 q0 -154 54.5 -253t165.5 -99q94 0 142 71.5t48 175.5q0 109 -53.5 173.5t-147.5 64.5q-51 0 -110.5 -17.5t-98.5 -50.5v-6v-8v-51z" />
<glyph unicode="7" horiz-adv-x="839" d="M78 688q-2 88 4 175t18 161h660l43 -98q-135 -168 -232.5 -397.5t-121.5 -528.5h-152l-25 35q27 244 141.5 480t268.5 390h-227q-61 0 -108.5 -3t-76.5 -9q-20 -4 -33.5 -13.5t-19.5 -29.5l-51 -160z" />
<glyph unicode="8" horiz-adv-x="948" d="M90 256q0 94 60.5 166t160.5 106q-70 41 -118 100.5t-48 147.5q0 117 95.5 191.5t242.5 74.5q141 0 234.5 -66.5t93.5 -170.5q0 -82 -57.5 -150.5t-143.5 -101.5q100 -51 173 -114.5t73 -170.5q0 -131 -109.5 -208.5t-277.5 -77.5q-160 0 -269.5 72.5t-109.5 201.5z M250 270q0 -102 68.5 -152t160.5 -50q94 0 149.5 46t55.5 122q0 90 -71.5 135t-166.5 88q-14 6 -30.5 13t-30.5 15q-70 -39 -102.5 -95t-32.5 -122zM295 813q0 -82 69.5 -129t163.5 -92q66 37 98.5 87t32.5 109q0 82 -51 127.5t-135 45.5q-86 0 -132 -43.5t-46 -104.5z" />
<glyph unicode="9" horiz-adv-x="935" d="M84 678q0 158 101.5 261t271.5 103q172 0 276.5 -122.5t104.5 -356.5q0 -264 -124 -422.5t-331 -158.5q-76 0 -142.5 21.5t-107.5 53.5l33 76q33 -18 81 -33.5t103 -15.5q127 0 209 99.5t98 273.5q-43 -45 -111.5 -70t-144.5 -25q-147 0 -232 90.5t-85 225.5zM252 707 q0 -106 53.5 -172t151.5 -66q51 0 108.5 17.5t96.5 45.5v9v59q0 141 -54.5 247.5t-165.5 106.5q-94 0 -142 -72.5t-48 -174.5z" />
<glyph unicode=":" horiz-adv-x="464" d="M123 92q0 47 29.5 77t80.5 30q49 0 79 -30t30 -77t-29.5 -77.5t-79.5 -30.5q-51 0 -80.5 30.5t-29.5 77.5zM123 721q0 47 29.5 76.5t80.5 29.5q49 0 79 -29.5t30 -76.5t-29.5 -77t-79.5 -30q-51 0 -80.5 30t-29.5 77z" />
<glyph unicode=";" horiz-adv-x="497" d="M111 -254q61 53 93 109.5t32 107.5q0 27 -10.5 38t-28.5 19q-20 14 -39 37t-19 62q0 43 30 73.5t75 30.5q51 0 90 -43t39 -127q0 -111 -65.5 -204t-160.5 -150zM139 723q0 47 30 76.5t79 29.5t79.5 -29.5t30.5 -76.5q0 -49 -30.5 -79t-79.5 -30t-79 30t-30 79z" />
<glyph unicode="&#x3c;" horiz-adv-x="858" d="M74 412v92l628 311l52 -108l-539 -248l539 -252l-52 -109z" />
<glyph unicode="=" horiz-adv-x="925" d="M121 256v113h682v-113h-682zM121 547v112h682v-112h-682z" />
<glyph unicode="&#x3e;" horiz-adv-x="858" d="M104 207l537 250l-537 250l52 108l630 -311v-92l-630 -314z" />
<glyph unicode="?" horiz-adv-x="798" d="M61 1194q51 43 133 76t179 33q170 0 270 -99.5t100 -228.5q0 -113 -70.5 -190.5t-162.5 -149.5q-63 -51 -83.5 -78t-27.5 -86l-14 -125h-88q-14 39 -26.5 90t-12.5 90q0 63 35 102.5t94 94.5q94 86 137 147.5t43 143.5q0 84 -45 139t-131 55q-47 0 -87 -16t-60 -37 q-16 -16 -22.5 -33.5t-8.5 -40.5l-16 -149h-95q-18 57 -29.5 127.5t-11.5 134.5zM248 84q0 45 27.5 72.5t72.5 27.5q47 0 76 -27.5t29 -72.5q0 -43 -29 -71.5t-76 -28.5q-45 0 -72.5 28.5t-27.5 71.5z" />
<glyph unicode="@" horiz-adv-x="1579" d="M84 276q0 197 67.5 360t180 276.5t264.5 176t315 62.5q246 0 411 -144.5t165 -420.5q0 -152 -48 -266.5t-117 -190.5t-143.5 -114t-125.5 -38q-63 0 -91 49.5t-28 125.5q0 31 5 75.5t15 102.5q-49 -135 -133 -246t-188 -111q-90 0 -151.5 87t-61.5 223q0 86 27.5 175 t79 161.5t125 118.5t167.5 46q45 0 93.5 -13t97.5 -40l32 49l99 -32q-10 -51 -23.5 -123t-25 -149t-19.5 -150.5t-8 -126.5q0 -63 11 -86t36 -23q33 0 79 31t88 89t71.5 145t29.5 198q0 133 -44 228.5t-115.5 155.5t-164.5 88t-190 28q-135 0 -256 -51.5t-211 -146.5 t-143 -232.5t-53 -309.5q0 -295 148.5 -447.5t367.5 -152.5q86 0 181 21.5t140 50.5l31 -59q-59 -47 -160.5 -79t-220.5 -32q-287 0 -445.5 184.5t-160.5 476.5zM561 328q0 -86 26 -155t81 -69q70 0 142.5 109t121.5 254q14 39 23.5 75t15.5 66q-39 39 -88 56.5t-88 17.5 q-115 0 -174.5 -109.5t-59.5 -244.5z" />
<glyph unicode="A" horiz-adv-x="1150" d="M2 0v76l90 22q16 4 28.5 13.5t16.5 25.5l355 1030h159l371 -1030q6 -16 17.5 -25.5t27.5 -13.5l86 -22v-76h-442v76l149 28l-88 252h-448l-82 -252l147 -28v-76h-387zM354 446h387l-200 572z" />
<glyph unicode="B" horiz-adv-x="1120" d="M82 0v76l123 22q14 2 24.5 14.5t10.5 26.5v881q0 14 -9.5 26.5t-23.5 14.5l-125 24v78h240q70 0 128 6.5t123 6.5q209 0 297 -71t88 -202q0 -104 -52 -180t-150 -102q129 -4 205.5 -79t76.5 -200q0 -147 -101.5 -248.5t-371.5 -101.5q-63 0 -113.5 4t-134.5 4h-235z M403 84q31 -4 76 -7t82 -3q160 0 228.5 62.5t68.5 187.5t-63.5 180t-196.5 55q-33 0 -88 -1t-107 -1v-473zM403 647q33 -1 65 -1h32q48 1 71 1q109 0 166.5 58.5t57.5 177.5q0 109 -56.5 161t-191.5 52q-45 0 -84.5 -4.5t-59.5 -4.5v-440z" />
<glyph unicode="C" horiz-adv-x="1071" d="M92 561q0 309 152.5 465t408.5 156q72 0 161 -13.5t165 -42.5q1 -21 1 -43q0 -45 -3 -95q-4 -75 -14 -148h-97l-35 168q-4 16 -13 29.5t-25 21.5q-25 14 -74 26.5t-103 12.5q-154 0 -244.5 -121t-90.5 -387q0 -231 78.5 -379t258.5 -148q49 0 97.5 12.5t81.5 33.5 q14 10 22 22t15 31l51 153l96 -10q1 -17 1 -35q0 -45 -4 -95q-5 -71 -15 -136q-66 -27 -157 -43t-181 -16q-268 0 -400.5 154.5t-132.5 426.5z" />
<glyph unicode="D" horiz-adv-x="1243" d="M82 0v76l121 22q16 2 26.5 14.5t10.5 28.5v879q0 14 -9.5 26.5t-23.5 14.5l-125 24v78h240q70 0 135 6.5t135 6.5q287 0 423 -143.5t136 -416.5q1 -312 -157 -472q-152 -155 -406 -154h-19q-49 0 -117.5 5t-127.5 5h-242zM406 88q33 -8 86 -12q35 -3 65 -3q15 0 29 1 q184 4 285.5 124.5t101.5 389.5q0 258 -103.5 381t-314.5 123q-47 0 -86 -4.5t-63 -6.5v-993z" />
<glyph unicode="E" horiz-adv-x="1046" d="M82 0v76l119 22q20 2 29.5 14.5t9.5 30.5v873q0 18 -10.5 31.5t-28.5 15.5l-119 22v78h827q4 -70 4 -140t-6 -146h-84l-32 141q-4 16 -15.5 26.5t-27.5 18.5q-27 8 -68 12t-88 4h-186v-436l362 12v-114l-362 8v-459h227q49 0 94 4t70 15q18 6 27.5 17t15.5 28l55 159 l82 -10q0 -74 -8 -150.5t-23 -152.5h-864z" />
<glyph unicode="F" horiz-adv-x="964" d="M82 0v76l119 22q20 2 29.5 14.5t9.5 30.5v873q0 18 -10.5 31.5t-28.5 15.5l-119 22v78h827q4 -70 4 -140.5t-6 -145.5h-84l-32 141q-4 16 -15.5 26.5t-27.5 18.5q-27 8 -68 12t-88 4h-186v-452l362 12v-115l-362 11v-394q0 -14 10 -26.5t26 -14.5l189 -24v-76h-549z" />
<glyph unicode="G" horiz-adv-x="1185" d="M92 567q0 305 161 460t419 155q92 0 181 -17.5t165 -56.5q2 -28 2 -57q0 -35 -3 -72q-5 -66 -13 -131h-99l-35 149q-6 20 -14 35t-25 23q-31 18 -78.5 31.5t-109.5 13.5q-160 0 -261 -126t-101 -388q0 -213 82.5 -355.5t279.5 -142.5q63 0 121.5 16.5t103.5 55.5v325 l-204 15v88h456v-88l-88 -15v-475l-41 -18l-94 98q-57 -51 -133 -79.5t-172 -28.5q-244 0 -372 162.5t-128 422.5z" />
<glyph unicode="H" horiz-adv-x="1357" d="M82 0v76l119 22q20 2 29.5 14.5t9.5 32.5v869q0 20 -10.5 33.5t-28.5 15.5l-119 22v78h471v-78l-111 -22q-18 -2 -27 -14.5t-9 -32.5v-373h548v373q0 20 -9 31.5t-30 15.5l-104 22v78h467v-78l-119 -22q-20 -2 -29.5 -15.5t-9.5 -33.5v-869q0 -20 9.5 -32.5t29.5 -14.5 l119 -22v-76h-465v76l100 22q20 2 30.5 14.5t10.5 32.5v404h-548v-406q0 -18 9 -30.5t29 -14.5l109 -22v-76h-471z" />
<glyph unicode="I" horiz-adv-x="645" d="M82 0v76l119 22q20 2 29.5 14.5t9.5 30.5v873q0 18 -10.5 31.5t-28.5 15.5l-119 22v78h479v-78l-117 -22q-20 -2 -29 -14.5t-9 -32.5v-871q0 -20 9 -32.5t29 -14.5l117 -22v-76h-479z" />
<glyph unicode="J" horiz-adv-x="604" d="M-6 -207q141 100 184 195.5t43 298.5v729q0 18 -9 31.5t-28 15.5l-118 22v78h464v-78l-102 -22q-20 -4 -30.5 -15.5t-10.5 -31.5v-701q0 -129 -11 -220t-49 -157.5t-107.5 -117.5t-186.5 -103z" />
<glyph unicode="K" horiz-adv-x="1183" d="M82 0v76l117 22q20 2 30.5 13.5t10.5 31.5v873q0 20 -10.5 32.5t-30.5 14.5l-117 22v78h479v-78l-117 -22q-20 -2 -30.5 -14.5t-10.5 -32.5v-490l465 533l-133 26v78h404v-78l-107 -22q-14 -2 -26.5 -8t-24.5 -19l-309 -342q39 -43 73.5 -97t83.5 -134l189 -307 q16 -29 30.5 -41.5t41.5 -18.5l81 -20v-76h-235q-27 0 -58.5 44t-76.5 120l-127 231q-31 57 -57.5 100.5t-51.5 79.5l-162 -178v-254q0 -20 11.5 -30.5t31.5 -14.5l125 -22v-76h-489z" />
<glyph unicode="L" horiz-adv-x="1017" d="M82 0v76l119 20q20 2 29.5 14.5t9.5 32.5v873q0 20 -9.5 32.5t-29.5 14.5l-119 22v78h518v-78l-156 -24q-20 -2 -29 -13.5t-9 -31.5v-926h210q53 0 95.5 5t68.5 14q16 6 26.5 17.5t16.5 27.5l66 200l84 -10q-2 -80 -8.5 -171t-24.5 -173h-858z" />
<glyph unicode="M" horiz-adv-x="1624" d="M47 0v76l113 22q16 2 26.5 13.5t12.5 31.5l106 871q2 20 -7 33.5t-30 15.5l-133 22v78h404l280 -872l248 872h406v-78l-136 -22q-20 -2 -29.5 -16.5t-7.5 -34.5l140 -871q2 -18 13 -29.5t28 -13.5l110 -22v-76h-452v76l139 24l-145 918l-277 -969h-117l-325 967 l-105 -916l152 -24v-76h-414z" />
<glyph unicode="N" horiz-adv-x="1325" d="M82 0v76l119 22q20 2 29.5 14.5t9.5 30.5v873q0 18 -10.5 31.5t-28.5 15.5l-119 22v78h324l593 -907v760q0 18 -9 31.5t-29 15.5l-125 22v78h417v-78l-106 -22q-18 -4 -28.5 -15.5t-10.5 -31.5v-1016h-139l-623 952v-809q0 -18 10.5 -30.5t30.5 -14.5l135 -22v-76h-440z " />
<glyph unicode="O" horiz-adv-x="1193" d="M92 563q0 297 143.5 458t380.5 161q240 0 362 -157t122 -425q0 -293 -142 -455.5t-380 -162.5q-240 0 -363 156.5t-123 424.5zM276 580q0 -250 79 -380t239 -130q152 0 236.5 128t84.5 388q0 250 -78.5 379t-238.5 129q-152 0 -237 -127t-85 -387z" />
<glyph unicode="P" horiz-adv-x="1050" d="M82 0v76l119 22q18 2 28.5 14.5t10.5 28.5v879q0 14 -9.5 26.5t-23.5 14.5l-125 24v78h242q70 0 119 5.5t145 5.5q231 0 318 -87.5t87 -240.5q0 -190 -125 -295t-317 -105q-37 0 -73 1.5t-72 3.5v-310q0 -14 10 -26.5t26 -14.5l181 -24v-76h-541zM406 537 q37 -2 68.5 -4.5t76.5 -2.5q104 0 185 67t81 247q0 135 -65.5 191.5t-200.5 56.5q-51 0 -85 -4.5t-60 -4.5v-546z" />
<glyph unicode="Q" horiz-adv-x="1193" d="M92 563q0 295 143.5 457t380.5 162q240 0 362 -157t122 -425q0 -238 -96.5 -391.5t-260.5 -204.5q39 -14 75 -36.5t69 -47.5q57 -43 112.5 -72.5t128.5 -29.5h38t32 2l16 -70q-23 -18 -74 -38.5t-110 -20.5q-80 0 -138 35.5t-107.5 83t-99.5 96.5t-112 76 q-238 2 -359.5 158.5t-121.5 422.5zM274 580q0 -252 80 -381t240 -129q154 0 239 127t85 389q0 252 -80 380t-240 128q-154 0 -239 -126t-85 -388z" />
<glyph unicode="R" horiz-adv-x="1161" d="M82 0v76l117 22q20 2 30.5 13.5t10.5 31.5v873q0 20 -10.5 32.5t-30.5 14.5l-117 22v78h240q66 0 122 6.5t131 6.5q223 0 318.5 -77t95.5 -233q0 -172 -87 -240.5t-165 -88.5q43 -27 75 -69t65 -103l110 -218q14 -27 28.5 -37t39.5 -16l82 -18v-76h-230q-35 0 -64.5 49 t-68.5 131l-74 158q-27 57 -52 102t-52 72h-193v-369q0 -20 11.5 -30.5t31.5 -14.5l125 -22v-76h-489zM403 596q49 -2 109.5 -2h85.5q94 2 154.5 64.5t60.5 197.5q0 111 -56.5 173.5t-207.5 62.5q-45 0 -85.5 -4.5t-60.5 -6.5v-485z" />
<glyph unicode="S" horiz-adv-x="954" d="M100 72q-1 24 -1 48q0 48 3 98q4 74 13 147h98l29 -175q2 -14 7 -26t19 -27q29 -31 84.5 -55.5t124.5 -24.5q109 0 166 54.5t57 146.5q0 109 -72.5 162t-189.5 106q-53 25 -110.5 54.5t-102.5 70.5t-74.5 96.5t-29.5 131.5q0 131 96 218t285 87q82 0 165 -17.5t140 -44.5 q4 -44 4 -87q0 -29 -2 -57q-4 -70 -12 -132h-97l-28 151q-4 14 -11.5 28.5t-21.5 27.5q-25 20 -69 34.5t-97 14.5q-96 0 -146.5 -46t-50.5 -128q0 -100 72 -151.5t203 -114.5q121 -57 219 -134.5t98 -218.5q0 -123 -96 -228.5t-307 -105.5q-117 0 -212 31t-153 66z" />
<glyph unicode="T" horiz-adv-x="1128" d="M60 989q3 86 12 174h989q10 -88 11 -174v-19q0 -77 -7 -161h-88l-49 209q-2 18 -12.5 28.5t-24.5 16.5q-23 8 -61.5 12t-90.5 4h-90v-932q0 -20 10.5 -31.5t30.5 -13.5l174 -26v-76h-596v76l174 26q20 2 30.5 13.5t10.5 31.5v932h-88q-49 0 -90 -4t-61 -12 q-18 -6 -28.5 -16.5t-12.5 -28.5l-49 -209h-91q-4 63 -4 122q0 29 1 58z" />
<glyph unicode="U" horiz-adv-x="1259" d="M76 1085v78h463v-78l-131 -24q-18 -2 -28.5 -14.5t-10.5 -32.5v-584q0 -201 77.5 -281.5t206.5 -80.5q154 0 221.5 91t67.5 261v596q0 20 -9 32.5t-28 14.5l-129 22v78h410v-78l-88 -20q-20 -4 -29.5 -16.5t-9.5 -32.5v-588q0 -231 -115 -337.5t-319 -106.5 q-219 0 -322.5 115.5t-103.5 346.5v570q0 20 -9.5 32.5t-27.5 16.5z" />
<glyph unicode="V" horiz-adv-x="1148" d="M-6 1085v78h448v-78l-153 -28l325 -891l289 891l-151 28v78h393v-78l-90 -22q-16 -4 -28.5 -13.5t-16.5 -25.5l-348 -1028h-152l-387 1028q-6 16 -16.5 25.5t-28.5 13.5z" />
<glyph unicode="W" horiz-adv-x="1669" d="M-2 1085v78h446v-78l-149 -28l264 -893l227 770l-30 88q-6 16 -16.5 26.5t-26.5 14.5l-76 22v78h434v-78l-151 -28l256 -885l249 885l-149 28v78h387v-78l-92 -22q-16 -4 -27.5 -13.5t-15.5 -27.5l-301 -1030h-156l-233 780l-226 -780h-155l-326 1030q-4 16 -15.5 26.5 t-27.5 14.5z" />
<glyph unicode="X" horiz-adv-x="1118" d="M18 0v76l103 22q16 2 27.5 10.5t19.5 22.5l307 440l-299 457q-8 14 -20.5 22.5t-26.5 12.5l-86 22v78h459v-78l-146 -26l232 -371l241 371l-133 26v78h375v-78l-92 -22q-14 -4 -25.5 -11.5t-19.5 -21.5l-291 -416l324 -483q8 -14 20 -22.5t27 -10.5l86 -22v-76h-455v76 l139 24l-249 396l-259 -396l152 -24v-76h-410z" />
<glyph unicode="Y" horiz-adv-x="1093" d="M-4 1085v78h453v-78l-136 -26l273 -492l252 492l-140 26v78h383v-78l-92 -20q-14 -4 -26.5 -12.5t-20.5 -22.5l-303 -581v-302q0 -20 9 -31.5t30 -13.5l143 -26v-76h-534v76l143 26q20 2 30.5 13.5t10.5 31.5v297l-336 584q-8 14 -20.5 23.5t-26.5 11.5z" />
<glyph unicode="Z" horiz-adv-x="1017" d="M51 68l670 1009h-244q-51 0 -94 -3t-70 -13q-16 -6 -26.5 -16.5t-16.5 -26.5l-51 -187h-92q-2 36 -2 72q0 46 3 95q5 87 17 165h750l33 -65l-664 -1008h307q51 0 95.5 5t70.5 14q14 6 25.5 16t15.5 29l62 196l88 -10v-32q0 -62 -6 -138q-8 -96 -19 -170h-813z" />
<glyph unicode="[" horiz-adv-x="591" d="M170 -279v1735l23 23q74 2 174 -4.5t182 -14.5v-76l-193 -16q-20 -2 -31.5 -13.5t-11.5 -31.5v-1468q0 -20 11.5 -31.5t31.5 -13.5l193 -15v-76q-82 -10 -182.5 -16t-173.5 -4z" />
<glyph unicode="\" horiz-adv-x="718" d="M53 1296h137l474 -1511h-138z" />
<glyph unicode="]" horiz-adv-x="591" d="M43 -205l193 15q20 2 31.5 13t11.5 32v1468q0 20 -11.5 31.5t-31.5 13.5l-193 16v76q82 8 181.5 14.5t174.5 4.5l25 -23v-1735l-25 -22q-76 -2 -175 4t-181 16v76z" />
<glyph unicode="^" horiz-adv-x="913" d="M78 645l303 490l137 10l320 -500l-76 -49l-313 387l-304 -387z" />
<glyph unicode="_" horiz-adv-x="1304" d="M0 -186h1305v-95h-1305v95z" />
<glyph unicode="`" horiz-adv-x="745" d="M148 1217l108 94l262 -318l-51 -55q-90 59 -182 139t-137 140z" />
<glyph unicode="a" d="M72 188q0 66 29.5 109t76.5 69.5t106.5 40t116.5 17.5l170 14v101q0 117 -46 163t-140 46q-70 0 -133.5 -23t-116.5 -74l-39 37q31 88 124 133t210 45q147 0 222 -75.5t75 -229.5v-420q0 -25 11.5 -36t33.5 -13l84 -8v-70q-20 -6 -64 -16t-79 -10q-53 0 -88 27.5 t-47 78.5q-47 -51 -118 -80.5t-149 -29.5q-102 0 -170.5 52t-68.5 152zM242 203q0 -53 32 -84t95 -31q53 0 108 19.5t94 52.5v200l-143 -14q-90 -6 -138 -40t-48 -103z" />
<glyph unicode="b" horiz-adv-x="966" d="M-10 1229v67q66 18 143.5 29.5t140.5 13.5l25 -22v-549q45 45 106.5 73.5t143.5 28.5q141 0 237.5 -96t96.5 -309q0 -219 -115 -350t-332 -131q-94 0 -176 20.5t-121 36.5v1126q0 20 -10 31.5t-29 13.5zM299 104q27 -14 64 -25t86 -11q125 0 191.5 85t68.5 271v12 q-1 177 -59 249q-60 75 -165 75q-55 0 -101 -17.5t-85 -48.5v-590z" />
<glyph unicode="c" horiz-adv-x="839" d="M82 414q0 197 104.5 326.5t307.5 129.5q70 0 142.5 -16t117.5 -39q2 -25 2 -53q0 -34 -3 -72q-5 -68 -14 -125h-82l-32 125q-4 20 -10.5 34.5t-20.5 27.5q-18 14 -48 24t-69 10q-104 0 -161.5 -84t-57.5 -253q0 -178 65.5 -266.5t182.5 -88.5q70 0 124 26.5t89 63.5 l45 -39q-35 -76 -115 -118.5t-190 -42.5q-186 0 -281.5 122t-95.5 308z" />
<glyph unicode="d" horiz-adv-x="1009" d="M84 401q0 238 121 353.5t313 115.5q41 0 81 -5t71 -13v315q0 20 -10.5 31.5t-28.5 13.5l-115 17v67q63 20 144 30.5t145 12.5l24 -24v-1174q0 -27 11.5 -37t31.5 -12l86 -8v-70q-27 -8 -67.5 -17t-75.5 -9q-61 0 -93 31.5t-46 78.5q-43 -47 -106.5 -80.5t-149.5 -33.5 q-135 0 -235.5 99t-100.5 318zM256 426q0 -195 66.5 -264.5t154.5 -69.5q57 0 105.5 18.5t87.5 49.5v585q-27 14 -70 26.5t-90 12.5q-104 0 -178 -76.5t-76 -281.5z" />
<glyph unicode="e" horiz-adv-x="878" d="M84 416q0 213 108.5 333.5t288.5 120.5q137 0 224.5 -74.5t87.5 -217.5q0 -20 -2.5 -50t-6.5 -55h-532v-10v-12q0 -201 71.5 -279t180.5 -78q72 0 134 32t99 89l51 -31q-27 -90 -113.5 -145t-215.5 -55q-190 0 -282.5 121.5t-92.5 310.5zM258 551h373q2 10 3 18.5t1 18.5 q0 88 -46 143t-130 55q-80 0 -133.5 -56t-67.5 -179z" />
<glyph unicode="f" horiz-adv-x="661" d="M59 756v69l150 21v86q0 170 111.5 287.5t238.5 117.5q49 0 97.5 -15t93.5 -42l-27 -104q-43 8 -90 13t-82 5q-96 -2 -140 -45t-44 -154v-149h251v-103h-251v-608q0 -20 10 -31.5t31 -13.5l157 -14v-76h-489v76l90 14q20 2 30.5 13.5t10.5 31.5v602z" />
<glyph unicode="g" horiz-adv-x="952" d="M70 -176q0 76 40 125t103 78q-37 20 -55.5 51t-18.5 74q0 59 33 97t78 60q-72 33 -112 96.5t-40 155.5q0 158 105.5 233.5t253.5 75.5q72 0 132 -18t101 -53q35 33 71 52t73 19q18 0 40.5 -5t43.5 -9v-121h-173q18 -31 28.5 -68.5t10.5 -82.5q0 -139 -96 -224.5 t-260 -85.5q-31 0 -59.5 3.5t-55.5 9.5q-20 -14 -32.5 -35t-12.5 -47q0 -45 40 -64.5t128 -19.5h182q135 0 204 -56.5t69 -156.5q0 -145 -132 -232.5t-335 -87.5q-178 0 -266 65.5t-88 170.5zM225 -150q0 -76 49.5 -125t178.5 -49q125 0 203.5 50.5t78.5 152.5 q0 55 -33.5 86t-128.5 31h-190q-27 0 -52.5 2t-45.5 6q-27 -27 -43.5 -64.5t-16.5 -89.5zM262 580q0 -109 44 -165.5t143 -56.5q86 0 130 50.5t44 160.5q0 115 -45.5 167t-139.5 52q-74 0 -125 -42.5t-51 -165.5z" />
<glyph unicode="h" horiz-adv-x="1062" d="M35 1231v67q63 20 142 29.5t142 11.5l25 -24v-559q61 61 137 85.5t154 24.5q147 0 200.5 -86t53.5 -239v-404q0 -20 11 -32.5t30 -14.5l92 -14v-76h-412v76l80 14q16 4 28.5 14.5t12.5 32.5v375q0 123 -33.5 183.5t-132.5 60.5q-57 0 -114.5 -18.5t-106.5 -55.5v-545 q0 -20 10.5 -31.5t30.5 -15.5l80 -14v-76h-412v76l90 14q20 2 30.5 13.5t10.5 31.5v1034q0 20 -10 31.5t-31 13.5z" />
<glyph unicode="i" horiz-adv-x="548" d="M61 752v73q66 20 142 29.5t139 11.5l23 -24v-705q0 -20 10 -32.5t31 -14.5l90 -14v-76h-422v76l90 14q20 2 30.5 14.5t10.5 32.5v555q0 18 -9.5 30.5t-29.5 14.5zM156 1096q0 47 30.5 76.5t81.5 29.5q47 0 78 -29.5t31 -76.5t-31 -77t-78 -30q-51 0 -81.5 30t-30.5 77z " />
<glyph unicode="j" horiz-adv-x="495" d="M-35 -324q133 84 178 167t45 247v602q0 18 -10 30.5t-28 14.5l-105 15v73q63 20 139.5 29.5t139.5 11.5l22 -24v-752q0 -160 -25.5 -237.5t-91.5 -133.5q-45 -39 -105.5 -67.5t-121.5 -48.5zM123 1096q0 47 30.5 76.5t81.5 29.5q47 0 78 -29.5t31 -76.5t-31 -77t-78 -30 q-51 0 -81.5 30t-30.5 77z" />
<glyph unicode="k" horiz-adv-x="999" d="M35 1229v67q63 18 142 29.5t142 13.5l25 -22v-932l336 365l-150 24v72h406v-72l-88 -20q-23 -2 -37 -8.5t-29 -20.5l-190 -199q20 -29 39.5 -57.5t40.5 -67.5l155 -258q10 -20 24.5 -31.5t31.5 -15.5l94 -20v-76h-227q-31 0 -54.5 36t-54.5 93l-84 160q-20 35 -37.5 67.5 t-34.5 59.5l-141 -148v-131q0 -20 10.5 -32.5t30.5 -14.5l90 -14v-76h-422v76l92 14q18 2 28.5 14.5t10.5 32.5v1030q0 20 -10 31.5t-31 13.5z" />
<glyph unicode="l" horiz-adv-x="534" d="M35 1229v67q63 20 144 30.5t145 12.5l24 -24v-1178q0 -20 10.5 -32.5t28.5 -14.5l109 -16v-74h-457v76l108 14q20 2 30.5 13.5t10.5 31.5v1032q0 20 -10 31.5t-31 13.5z" />
<glyph unicode="m" horiz-adv-x="1587" d="M61 752v73q61 18 131 28.5t127 12.5l29 -26l10 -88q57 63 130 88.5t149 25.5q88 0 140 -31.5t79 -89.5q66 70 143.5 95.5t151.5 25.5q152 0 207 -85t55 -249v-395q0 -20 10.5 -32.5t28.5 -14.5l94 -14v-76h-413v76l79 14q18 4 29.5 14.5t11.5 32.5v373q0 127 -35.5 186.5 t-136.5 59.5q-51 0 -103 -16.5t-101 -53.5q6 -31 9 -67.5t3 -77.5v-404q0 -20 10 -31.5t31 -15.5l80 -14v-76h-402v76l80 14q18 4 29.5 14.5t11.5 32.5v375q0 123 -28.5 183.5t-125.5 60.5q-51 0 -108 -17.5t-102 -50.5v-551q0 -20 9 -31.5t29 -15.5l82 -14v-76h-411v76 l92 14q18 2 28.5 14.5t10.5 32.5v555q0 18 -9.5 30.5t-29.5 14.5z" />
<glyph unicode="n" horiz-adv-x="1083" d="M61 752v73q61 18 131 28.5t127 12.5l29 -26l10 -92q63 66 139 92t158 26q147 0 200.5 -86t53.5 -239v-404q0 -20 11.5 -32.5t29.5 -14.5l92 -14v-76h-413v76l82 14q18 4 29.5 14.5t11.5 32.5v375q0 123 -34 183.5t-130 60.5q-61 0 -117.5 -18.5t-105.5 -55.5v-545 q0 -20 10 -31.5t28 -15.5l84 -14v-76h-413v76l90 14q20 2 30.5 14.5t10.5 32.5v555q0 18 -9.5 30.5t-29.5 14.5z" />
<glyph unicode="o" horiz-adv-x="958" d="M84 420q0 236 121 343t289 107q199 0 289.5 -121.5t90.5 -318.5q0 -233 -119.5 -339.5t-289.5 -106.5q-197 0 -289 119.5t-92 316.5zM260 436q0 -166 48 -267t177 -101q109 0 161 82t52 266q0 168 -48 269t-177 101q-109 0 -161 -82.5t-52 -267.5z" />
<glyph unicode="p" horiz-adv-x="1013" d="M45 752v73q63 18 129 28.5t129 12.5l27 -26l10 -86q41 49 104.5 82.5t155.5 33.5q139 0 234.5 -97t95.5 -308q0 -225 -116 -353t-318 -128q-33 0 -74 4t-76 16v-240q0 -18 11.5 -29t29.5 -14l125 -14v-76h-457v76l92 14q20 2 29.5 13.5t9.5 29.5v926q0 20 -8 32.5 t-28 14.5zM346 104q27 -16 67 -26t87 -10q117 0 186.5 79.5t71.5 278.5v12q0 157 -52 238q-55 84 -171 84q-63 0 -110.5 -21.5t-78.5 -48.5v-586z" />
<glyph unicode="q" horiz-adv-x="974" d="M84 401q0 227 120 348t306 121q55 0 108.5 -12t96.5 -33l82 41l30 -26v-1076q0 -18 10.5 -30.5t28.5 -14.5l68 -12v-76h-434v76l127 14q20 2 30.5 13.5t10.5 29.5v326q-43 -45 -104.5 -75.5t-139.5 -30.5q-141 0 -240.5 99t-99.5 318zM256 430q0 -197 65.5 -267.5 t155.5 -70.5q55 0 103.5 18.5t87.5 49.5v575q-29 25 -69 37t-85 12q-109 0 -183.5 -78.5t-74.5 -275.5z" />
<glyph unicode="r" horiz-adv-x="798" d="M61 752v73q59 18 128 28.5t128 12.5l25 -24l16 -137q47 63 124 114t159 51q20 0 51 -6t51 -14q2 -28 2 -59q0 -39 -3 -83q-5 -79 -19 -143h-76l-22 115q-6 25 -17.5 35t-34.5 10q-51 0 -106 -22.5t-102 -69.5v-496q0 -20 11 -32.5t32 -14.5l149 -16v-74h-483v76l90 14 q20 2 30.5 14.5t10.5 32.5v551q0 20 -9.5 33.5t-31.5 15.5z" />
<glyph unicode="s" horiz-adv-x="796" d="M92 164q2 58 8 110h86l31 -112q6 -25 13.5 -38t21.5 -24q20 -12 61 -26.5t95 -14.5q78 0 117.5 36t39.5 95q0 72 -59.5 107t-169.5 80q-100 41 -165 93t-65 155q0 121 88.5 183t227.5 62q66 0 135.5 -14t116.5 -35q1 -18 1 -36q0 -37 -3 -73q-4 -56 -15 -110h-79l-25 105 q-4 20 -12.5 33.5t-28.5 25.5q-16 8 -43 16.5t-61 10.5h-8q-61 0 -101 -29q-43 -31 -43 -94q0 -76 60.5 -108t134.5 -60q102 -39 185 -96.5t83 -174.5q0 -119 -92 -184t-240 -65q-88 0 -164 21.5t-125 41.5q-6 49 -6 96v23z" />
<glyph unicode="t" horiz-adv-x="681" d="M47 756v69l94 15q20 2 31.5 12t13.5 29l56 219h92l2 -254h278v-101h-276v-481q0 -98 31.5 -130t89.5 -32q47 0 87 16.5t68 49.5l45 -43q-33 -70 -102.5 -105.5t-153.5 -35.5q-92 0 -159.5 47t-67.5 180v528z" />
<glyph unicode="u" horiz-adv-x="1038" d="M43 756v73q63 16 134 25.5t134 11.5l23 -24v-520q0 -119 34.5 -175.5t129.5 -56.5q53 0 104 17.5t96 54.5v530q0 20 -10 33.5t-29 15.5l-110 17v73q63 16 143 25.5t144 9.5l22 -24v-701q0 -27 11.5 -37t31.5 -12l86 -8v-70q-27 -8 -67.5 -17t-77.5 -9q-57 0 -90 30.5 t-45 77.5q-51 -49 -115 -80.5t-152 -31.5q-139 0 -202.5 76.5t-63.5 232.5v399q0 20 -9 32.5t-30 14.5z" />
<glyph unicode="v" horiz-adv-x="925" d="M14 774v72h398v-72l-129 -22l217 -607l209 607l-129 22v72h323v-72l-55 -16q-14 -4 -26.5 -13.5t-18.5 -25.5l-264 -731h-140l-286 731q-6 14 -16.5 24.5t-26.5 14.5z" />
<glyph unicode="w" horiz-adv-x="1351" d="M20 774v72h363v-72l-115 -22l172 -600l193 694h149l191 -690l166 596l-117 22v72h307v-72l-49 -14q-16 -4 -27.5 -14.5t-17.5 -26.5l-221 -731h-137l-201 671l-191 -671h-139l-235 731q-4 18 -15.5 27.5t-27.5 13.5z" />
<glyph unicode="x" horiz-adv-x="952" d="M35 0v76l74 10q14 2 27.5 8t23.5 19l233 305l-231 313q-8 12 -20.5 20.5t-26.5 10.5l-60 12v72h385v-72l-106 -18l170 -246l180 246l-111 18v72h326v-72l-65 -12q-14 -2 -26.5 -10.5t-21.5 -18.5l-225 -291l244 -329q8 -12 20.5 -19.5t28.5 -9.5l61 -8v-76h-393v76 l103 14l-174 258l-185 -258l125 -14v-76h-356z" />
<glyph unicode="y" horiz-adv-x="933" d="M20 774v72h404v-72l-127 -24l223 -619l195 621l-121 22v72h324v-72l-62 -18q-16 -4 -27.5 -13.5t-17.5 -27.5l-254 -748q-61 -180 -140 -266t-208 -86q-41 0 -86 3t-88 11v95q176 14 274.5 65t163.5 211h-76l-270 717q-6 14 -17.5 24.5t-27.5 14.5z" />
<glyph unicode="z" horiz-adv-x="866" d="M63 68l517 700h-164q-35 0 -71 -3t-62 -7q-23 -2 -34 -13.5t-16 -31.5l-32 -138h-84q-6 71 -7 141v15q0 62 7 115h635l30 -66l-512 -696h172q43 0 82 1t74 7q20 2 33.5 11.5t19.5 29.5l43 148l82 -11q1 -32 1 -65.5t-1 -69.5q-2 -72 -10 -135h-672z" />
<glyph unicode="{" horiz-adv-x="657" d="M27 524v129q141 10 171.5 61.5t30.5 116.5q0 82 -12 176.5t-12 209.5q0 119 65.5 184t204.5 74q41 2 76 4t65 2l11 -78l-103 -21q-84 -16 -126 -59t-42 -137q0 -86 7.5 -187.5t7.5 -189.5q0 -90 -51.5 -141.5t-155.5 -73.5q104 -25 155.5 -79t51.5 -146 q0 -88 -7.5 -189.5t-7.5 -187.5q0 -94 42 -137t126 -60l103 -16l-11 -80q-31 0 -65.5 1t-75.5 5q-139 8 -204.5 72.5t-65.5 185.5q0 113 12 208t12 177q0 66 -30.5 116t-171.5 60z" />
<glyph unicode="|" horiz-adv-x="471" d="M170 -225v1636h131v-1636h-131z" />
<glyph unicode="}" horiz-adv-x="657" d="M33 -221l102 16q84 16 125 59.5t41 137.5q0 86 -7 187.5t-7 189.5q0 92 51 144t156 75q-104 23 -155.5 77t-51.5 144q0 88 7 189.5t7 187.5q0 94 -41 138t-125 58l-102 21l8 78q33 0 67.5 -2t75.5 -4q137 -8 204 -73t67 -185q0 -115 -13.5 -209.5t-13.5 -176.5 q0 -66 32 -116.5t173 -61.5v-129q-141 -10 -173 -60t-32 -116q0 -82 13.5 -177t13.5 -208q0 -121 -67 -186.5t-204 -73.5q-41 -2 -75.5 -3t-67.5 -1z" />
<glyph unicode="~" horiz-adv-x="978" d="M119 399q33 70 93 121t136 51q88 0 163 -51t144 -51q43 0 82 26.5t68 65.5l53 -45q-33 -70 -93 -121t-136 -51q-88 0 -163 50t-144 50q-43 0 -82 -25.5t-68 -64.5z" />
<glyph unicode="&#xa1;" horiz-adv-x="464" d="M129 772q0 43 29.5 70.5t74.5 27.5t74 -27.5t29 -70.5q0 -45 -28.5 -72.5t-74.5 -27.5q-45 0 -74.5 27.5t-29.5 72.5zM143 -297l41 807h97l43 -807v-123h-181v123z" />
<glyph unicode="&#xa2;" horiz-adv-x="880" d="M86 440q0 188 97.5 312.5t281.5 140.5v158h110v-158q61 -6 118 -21.5t91 -31.5q2 -57 -3 -125t-13 -125h-82l-31 125q-4 20 -10 34.5t-20 26.5q-20 14 -54 24.5t-73 10.5q-111 0 -173.5 -89t-62.5 -253q0 -170 66.5 -261t183.5 -91q72 0 131 29.5t96 72.5l45 -45 q-35 -70 -111.5 -113t-168.5 -51v-166h-109v168q-147 23 -228 139.5t-81 288.5z" />
<glyph unicode="&#xa3;" horiz-adv-x="991" d="M72 78q57 43 115.5 109.5t58.5 213.5v74h-154v88h154v86q0 184 100 289.5t254 105.5q53 0 109.5 -13t107.5 -38q2 -61 -2 -127.5t-12 -130.5h-90l-27 144q-2 14 -9 28.5t-24 24.5q-20 14 -47.5 20t-54.5 6q-47 0 -94 -51t-47 -207v-137h258v-88h-258v-59 q0 -94 -20.5 -160t-47.5 -98q88 0 165 -24.5t140 -24.5q57 0 88 30.5t41 73.5q6 23 11.5 59.5t7.5 65.5h96q6 -27 12 -69t6 -85q0 -106 -58 -155t-146 -49q-57 0 -109.5 18t-102 38.5t-100.5 39t-106 18.5q-41 -39 -86 -64.5t-80 -39.5z" />
<glyph unicode="&#xa4;" horiz-adv-x="1050" d="M100 217l158 158q-27 39 -43 88t-16 104q0 57 16 109.5t47 95.5l-162 162l82 82l164 -162q39 27 83 41t95 14t97.5 -13t85.5 -38l161 160l82 -82l-157 -158q31 -39 47 -89t16 -105q0 -57 -17.5 -109.5t-50.5 -95.5l160 -160l-82 -82l-161 160q-39 -25 -85.5 -39 t-95.5 -14q-51 0 -96 13t-84 38l-162 -162zM322 571q0 -88 59 -150.5t143 -62.5q102 0 152.5 63.5t50.5 151.5q0 90 -61.5 155t-145.5 65q-98 0 -148 -68t-50 -154z" />
<glyph unicode="&#xa5;" horiz-adv-x="1114" d="M68 952v72h436v-72l-131 -26l223 -348l213 356l-135 24v72h370v-72l-88 -18q-16 -4 -26 -11t-19 -22l-237 -381h262v-82h-291v-116h291v-82h-291v-105q0 -20 10.5 -30.5t28.5 -12.5l139 -26v-72h-512v72l140 26q18 2 28 12.5t10 30.5v105h-290v82h290v116h-290v82h258 l-256 373q-8 12 -18.5 20.5t-26.5 12.5z" />
<glyph unicode="&#xa6;" horiz-adv-x="466" d="M168 -225v702h131v-702h-131zM168 707v704h131v-704h-131z" />
<glyph unicode="&#xa7;" horiz-adv-x="952" d="M90 530q0 88 46 150.5t110 95.5q-51 37 -79 84t-28 113q0 102 83 179t263 77q100 0 190.5 -23.5t131.5 -50.5q4 -61 0 -122.5t-14 -123.5h-97l-24 140q-2 14 -11.5 27.5t-23.5 25.5q-27 16 -74 29.5t-98 13.5q-92 0 -136 -38t-44 -95q0 -78 77.5 -122t208.5 -104 q133 -59 212 -124.5t79 -176.5q0 -82 -42 -145.5t-103 -95.5q55 -35 84.5 -81t29.5 -114q0 -106 -88 -183t-266 -77q-119 0 -212 29.5t-138 56.5q-2 61 1 122.5t13 125.5h97l26 -143q2 -12 9.5 -25.5t23.5 -26.5q33 -27 85 -41t112 -14q92 0 141 38t49 99q0 76 -78 115 t-219 102q-137 63 -217 129t-80 174zM223 582q0 -78 77.5 -128t231.5 -118q33 -14 65 -28.5t58 -28.5q33 31 54.5 73.5t21.5 83.5q0 78 -76.5 127t-228.5 117q-33 14 -65.5 30.5t-59.5 30.5q-33 -31 -55.5 -73.5t-22.5 -85.5z" />
<glyph unicode="&#xa8;" horiz-adv-x="745" d="M111 1090q0 45 26.5 71.5t69.5 26.5q41 0 67.5 -26.5t26.5 -71.5t-26.5 -72t-67.5 -27q-43 0 -69.5 26.5t-26.5 72.5zM443 1090q0 45 26.5 71.5t69.5 26.5t68.5 -26.5t25.5 -71.5t-25.5 -72t-68.5 -27t-69.5 26.5t-26.5 72.5z" />
<glyph unicode="&#xa9;" horiz-adv-x="1490" d="M86 584q0 141 50 263t138 211t209 139t262 50t263 -50t209.5 -139t137.5 -211t50 -263t-50 -264t-138.5 -212.5t-209 -139.5t-262.5 -50q-141 0 -262 50t-209 139.5t-138 212.5t-50 264zM180 584q0 -254 160 -419t405 -165q246 0 407 165t161 419t-161 419.5t-407 165.5 t-405.5 -165.5t-159.5 -419.5zM418 578q0 178 99 278t257 100q70 0 135.5 -18t94.5 -39q2 -47 -1.5 -101.5t-11.5 -109.5h-80l-26 109q-2 12 -8.5 24.5t-22.5 22.5q-20 14 -47 21t-55 7q-92 0 -139.5 -71.5t-47.5 -198.5q0 -135 55.5 -209t159.5 -74q57 0 108.5 20.5 t80.5 53.5l41 -41q-31 -59 -100 -99t-169 -40q-154 0 -238.5 102.5t-84.5 262.5z" />
<glyph unicode="&#xaa;" horiz-adv-x="815" d="M94 662q0 96 84 137t178 45l133 10v72q0 82 -35.5 114.5t-107.5 32.5q-57 0 -106.5 -17.5t-89.5 -54.5l-35 33q25 68 99.5 105t174.5 37q125 0 185.5 -59.5t60.5 -178.5v-307q0 -18 9 -25.5t26 -9.5l63 -6v-62q-16 -4 -52 -12t-67 -8q-45 0 -74.5 19.5t-43.5 58.5 q-37 -39 -91.5 -59.5t-117.5 -20.5q-84 0 -138.5 41t-54.5 115zM252 678q0 -39 22.5 -60.5t69.5 -21.5q39 0 78 12.5t67 32.5v147l-100 -8q-70 -4 -103.5 -29.5t-33.5 -72.5z" />
<glyph unicode="&#xab;" horiz-adv-x="630" d="M80 403v105l416 336l53 -62l-295 -325l299 -320l-57 -61zM500 403v105l416 336l53 -62l-295 -325l299 -320l-57 -61z" />
<glyph unicode="&#xac;" horiz-adv-x="972" d="M123 399v115h727v-434h-123v319h-604z" />
<glyph unicode="&#xad;" horiz-adv-x="827" d="M121 387v113h586v-113h-586z" />
<glyph unicode="&#xae;" horiz-adv-x="1325" d="M88 813q0 248 165 412t409 164t408.5 -165t164.5 -411t-165 -411.5t-408 -165.5q-244 0 -409 165.5t-165 411.5zM174 813q0 -219 138.5 -360.5t349.5 -141.5q213 0 351 141.5t138 360.5t-138.5 360.5t-350.5 141.5q-211 0 -349.5 -141.5t-138.5 -360.5zM379 500v53l49 12 q12 2 18.5 10.5t6.5 22.5v430q0 14 -6.5 22.5t-20.5 10.5l-47 10v59h129q49 0 94 1.5t76 1.5q117 0 177 -42t60 -130q0 -70 -36.5 -118t-106.5 -65q20 -8 35.5 -23.5t28.5 -41.5l55 -105q10 -20 25.5 -29.5t54.5 -17.5v-61h-125q-25 0 -38 15t-28 48l-51 115q-8 23 -20.5 44 t-26.5 36l-113 -2v-160q0 -14 6.5 -22.5t20.5 -10.5l55 -10v-53h-272zM569 827q27 -2 50.5 -2h46.5q57 0 91 32t34 95t-35 90t-111 27q-18 0 -35.5 -2t-40.5 -6v-234z" />
<glyph unicode="&#xaf;" horiz-adv-x="745" d="M125 1014v108h496v-108h-496z" />
<glyph unicode="&#xb0;" horiz-adv-x="690" d="M82 963q0 111 78 186.5t184 75.5q115 0 189.5 -78t74.5 -184q0 -111 -76.5 -186t-187.5 -75q-106 0 -184 77t-78 184zM186 963q0 -66 47 -115t113 -49q70 0 113 46t43 118q0 68 -45 115.5t-113 47.5q-70 0 -114 -47t-44 -116z" />
<glyph unicode="&#xb1;" d="M109 479v111h159l127 -4l-6 127v145h121v-145l-6 -127l127 4h160v-111h-160l-127 4l6 -125v-145h-121v145l6 125l-127 -4h-159zM117 0v111h665v-111h-665z" />
<glyph unicode="&#xb2;" horiz-adv-x="757" d="M100 530q193 147 281 237.5t88 182.5q0 66 -38 104t-105 38q-59 0 -105.5 -29t-73.5 -62l-36 31q16 59 81.5 108.5t169.5 49.5q117 0 182.5 -65.5t65.5 -153.5q0 -125 -110.5 -225.5t-239.5 -186.5h164q66 0 97.5 12.5t41.5 36.5l33 76l70 -10q-2 -49 -10.5 -105.5 t-22.5 -101.5h-512z" />
<glyph unicode="&#xb3;" horiz-adv-x="727" d="M86 555l37 57q39 -27 94 -46t115 -19q72 0 121 30.5t49 92.5q0 57 -47 83.5t-131 26.5h-78v80h28q88 0 136.5 34t48.5 91q0 53 -40 82t-104 29q-45 0 -88 -16.5t-82 -53.5l-34 33q29 70 97 100.5t144 30.5q102 0 172 -49t70 -129q0 -70 -51 -117t-115 -57q92 0 153.5 -45 t61.5 -127q0 -88 -79 -148.5t-208 -60.5q-88 0 -159.5 28.5t-110.5 69.5z" />
<glyph unicode="&#xb4;" horiz-adv-x="745" d="M252 991l273 320l108 -94q-45 -59 -142.5 -139.5t-189.5 -139.5z" />
<glyph unicode="&#xb5;" horiz-adv-x="1089" d="M153 842l142 28l22 -24l-2 -486q2 -133 62.5 -183t121.5 -50q57 0 119 38t98 126l-6 553l135 26l25 -24l-14 -572q-2 -96 20.5 -130.5t63.5 -34.5h96v-70q-33 -27 -76 -42t-82 -15q-63 0 -102 46t-49 146q-39 -98 -112 -145t-142 -47q-45 0 -96.5 23.5t-84.5 84.5 l31 -436l-135 -47l-25 24q2 168 4.5 314.5t2.5 281.5q0 129 -5.5 274.5t-11.5 340.5z" />
<glyph unicode="&#xb6;" horiz-adv-x="1077" d="M55 854q0 137 95.5 231.5t298.5 94.5q76 0 171 -8.5t209 -8.5h162v-78l-108 -22q-20 -2 -30.5 -14.5t-10.5 -28.5v-879q0 -16 11 -28.5t28 -14.5l118 -22v-76h-292v1067q-37 2 -83 5t-89 3v-897q0 -197 -68 -286t-254 -150l-37 78q141 78 182 168t41 254v270 q-123 6 -233.5 91t-110.5 251z" />
<glyph unicode="&#xb7;" horiz-adv-x="458" d="M120 495q0 47 31 77t80 30t79 -30t30 -77t-30 -77.5t-79 -30.5t-80 30.5t-31 77.5z" />
<glyph unicode="&#xb8;" horiz-adv-x="745" d="M228 -319q74 6 115.5 37.5t41.5 74.5q0 39 -31.5 56.5t-70.5 19.5l57 170h70l-33 -102q6 0 15.5 -1.5t17.5 -3.5q51 -8 85 -41.5t34 -89.5q0 -82 -76 -134t-186 -52h-31z" />
<glyph unicode="&#xb9;" horiz-adv-x="684" d="M102 1061q61 16 129 46t131 79l78 -12v-580q0 -20 7.5 -28.5t27.5 -10.5l135 -18v-70h-489v70l158 18q20 2 27 10t7 29v442q-45 -18 -96 -29.5t-98 -15.5z" />
<glyph unicode="&#xba;" horiz-adv-x="823" d="M88 831q0 184 98.5 264.5t235.5 80.5q160 0 236.5 -88.5t76.5 -245.5q0 -182 -97 -262t-237 -80q-160 0 -236.5 87.5t-76.5 243.5zM252 846q0 -131 35 -202t129 -71q78 0 116.5 59.5t38.5 196.5q0 131 -34.5 202t-128.5 71q-78 0 -117 -59.5t-39 -196.5z" />
<glyph unicode="&#xbb;" horiz-adv-x="1036" d="M78 137l299 320l-295 325l53 62l416 -336v-105l-416 -327zM483 137l299 320l-295 325l54 62l415 -336v-105l-415 -327z" />
<glyph unicode="&#xbc;" horiz-adv-x="1730" d="M84 1061q61 16 129 46t131 79l78 -12v-580q0 -20 7.5 -28.5t27.5 -10.5l135 -18v-70h-489v70l158 18q20 2 27 10t7 29v442q-45 -18 -96 -29.5t-98 -15.5zM431 0l706 1163h129l-706 -1163h-129zM1058 192q88 129 162 262.5t137 264.5h117l23 -27q-117 -221 -188.5 -323.5 t-135.5 -159.5l258 12l23 193h96v-187l127 6v-98h-127v-135h-121v135h-330z" />
<glyph unicode="&#xbd;" horiz-adv-x="1726" d="M80 1061q61 16 129 46t131 79l78 -12v-580q0 -20 7.5 -28.5t27.5 -10.5l135 -18v-70h-489v70l158 18q20 2 27 10t7 29v442q-45 -18 -96 -29.5t-98 -15.5zM426 0l706 1163h129l-706 -1163h-129zM1104 63q193 147 281 237.5t88 182.5q0 66 -38 104t-105 38 q-59 0 -105.5 -29t-73.5 -62l-36 31q16 59 81.5 108.5t169.5 49.5q117 0 182.5 -65.5t65.5 -153.5q0 -125 -110.5 -225.5t-239.5 -186.5h164q66 0 97.5 12.5t41.5 36.5l33 76l70 -10q-2 -49 -10.5 -105.5t-22.5 -101.5h-512z" />
<glyph unicode="&#xbe;" horiz-adv-x="1738" d="M69 555l37 57q39 -27 94 -46t115 -19q72 0 121 30.5t49 92.5q0 57 -47 83.5t-131 26.5h-78v80h28q88 0 136.5 34t48.5 91q0 53 -40 82t-104 29q-45 0 -88 -16.5t-82 -53.5l-34 33q29 70 97 100.5t144 30.5q102 0 172 -49t70 -129q0 -70 -51 -117t-115 -57q92 0 153.5 -45 t61.5 -127q0 -88 -79 -148.5t-208 -60.5q-88 0 -159.5 28.5t-110.5 69.5zM439 0l706 1163h129l-706 -1163h-129zM1067 192q88 129 162 262.5t137 264.5h117l23 -27q-117 -221 -188.5 -323.5t-135.5 -159.5l258 12l23 193h96v-187l127 6v-98h-127v-135h-121v135h-330z" />
<glyph unicode="&#xbf;" horiz-adv-x="786" d="M51 -119q0 111 69.5 188.5t162.5 151.5q63 51 83.5 78t26.5 86l15 125h88q14 -41 27.5 -92t13.5 -90q0 -63 -35 -101.5t-94 -93.5q-94 -86 -138.5 -148.5t-44.5 -144.5t44 -139t130 -57q49 0 90 18.5t62 38.5q14 16 20.5 32.5t10.5 41.5l14 147h96q16 -59 27.5 -127.5 t13.5 -134.5q-51 -41 -134 -73.5t-179 -32.5q-172 0 -270.5 99t-98.5 228zM340 772q0 43 28.5 70.5t73.5 27.5t75 -27.5t30 -70.5q0 -45 -30 -72.5t-75 -27.5t-73.5 27.5t-28.5 72.5z" />
<glyph unicode="&#xc0;" horiz-adv-x="1150" d="M2 0v76l90 22q16 4 28.5 13.5t16.5 25.5l355 1030h159l371 -1030q6 -16 17.5 -25.5t27.5 -13.5l86 -22v-76h-442v76l149 28l-88 252h-448l-82 -252l147 -28v-76h-387zM307 1438l90 114l338 -247l-37 -64q-98 39 -213 92t-178 105zM354 446h387l-200 572z" />
<glyph unicode="&#xc1;" horiz-adv-x="1150" d="M2 0v76l90 22q16 4 28.5 13.5t16.5 25.5l355 1030h159l371 -1030q6 -16 17.5 -25.5t27.5 -13.5l86 -22v-76h-442v76l149 28l-88 252h-448l-82 -252l147 -28v-76h-387zM354 446h387l-200 572zM417 1305l355 239l86 -117q-63 -49 -185.5 -99t-222.5 -85z" />
<glyph unicode="&#xc2;" horiz-adv-x="1150" d="M2 0v76l90 22q16 4 28.5 13.5t16.5 25.5l355 1030h159l371 -1030q6 -16 17.5 -25.5t27.5 -13.5l86 -22v-76h-442v76l149 28l-88 252h-448l-82 -252l147 -28v-76h-387zM284 1294l217 232l127 6l236 -232l-56 -61l-243 162l-228 -162zM354 446h387l-200 572z" />
<glyph unicode="&#xc3;" horiz-adv-x="1150" d="M2 0v76l90 22q16 4 28.5 13.5t16.5 25.5l355 1030h159l371 -1030q6 -16 17.5 -25.5t27.5 -13.5l86 -22v-76h-442v76l149 28l-88 252h-448l-82 -252l147 -28v-76h-387zM256 1300q20 68 74.5 127.5t131.5 59.5q41 0 75 -16.5t63.5 -36t57.5 -36t56 -16.5q39 0 70 32t53 65 l57 -31q-20 -66 -74.5 -126t-131.5 -60q-41 0 -75 16t-63.5 35.5t-57.5 36t-56 16.5q-39 0 -70 -31.5t-53 -64.5zM354 446h387l-200 572z" />
<glyph unicode="&#xc4;" horiz-adv-x="1150" d="M2 0v76l90 22q16 4 28.5 13.5t16.5 25.5l355 1030h159l371 -1030q6 -16 17.5 -25.5t27.5 -13.5l86 -22v-76h-442v76l149 28l-88 252h-448l-82 -252l147 -28v-76h-387zM296 1368q0 43 27 70.5t70 27.5t69.5 -27.5t26.5 -70.5q0 -45 -26.5 -71.5t-69.5 -26.5t-70 26.5 t-27 71.5zM354 446h387l-200 572zM661 1368q0 43 26.5 70.5t69.5 27.5t70 -27.5t27 -70.5q0 -45 -27 -71.5t-70 -26.5t-69.5 26.5t-26.5 71.5z" />
<glyph unicode="&#xc5;" horiz-adv-x="1150" d="M2 0v76l90 22q16 4 28.5 13.5t16.5 25.5l355 1030h159l371 -1030q6 -16 17.5 -25.5t27.5 -13.5l86 -22v-76h-442v76l149 28l-88 252h-448l-82 -252l147 -28v-76h-387zM354 446h387l-200 572zM372 1333q2 80 66.5 127t142.5 47q94 0 145.5 -51t51.5 -127 q-2 -82 -62.5 -130t-142.5 -48q-96 0 -148.5 51t-52.5 131zM477 1331q0 -39 24.5 -71.5t75.5 -32.5q47 0 71.5 26.5t24.5 73.5q0 39 -22.5 71t-73.5 32q-45 0 -72.5 -27t-27.5 -72z" />
<glyph unicode="&#xc6;" horiz-adv-x="1554" d="M-4 0v76l100 22q14 2 25.5 11.5t19.5 23.5l396 920l-193 32v78h1071q6 -70 6 -140.5t-6 -145.5h-84l-33 141q-4 16 -15 26.5t-28 18.5q-27 8 -67.5 12t-87.5 4h-187v-438l363 12v-114l-363 8v-457h228q49 0 94 4t70 15q18 6 27 17t16 28l55 159l82 -10q0 -74 -8.5 -150.5 t-22.5 -152.5h-858v76l119 22q20 2 29.5 14.5t9.5 30.5v285h-367l-139 -330l147 -22v-76h-399zM426 520h328v551h-95z" />
<glyph unicode="&#xc7;" horiz-adv-x="1071" d="M92 561q0 309 152.5 465t408.5 156q72 0 161 -13.5t165 -42.5q2 -63 -2 -138t-14 -148h-97l-35 168q-4 16 -13 29.5t-25 21.5q-25 14 -74 26.5t-103 12.5q-154 0 -244.5 -121t-90.5 -387q0 -231 78.5 -379t258.5 -148q49 0 97.5 12.5t81.5 33.5q14 10 22 22t15 31l51 153 l96 -10q2 -59 -3 -130t-15 -136q-66 -27 -157 -43t-181 -16q-268 0 -400.5 154.5t-132.5 426.5zM463 -319q74 6 115.5 37.5t41.5 74.5q0 39 -31.5 56.5t-70.5 19.5l57 170h70l-33 -102q6 0 15.5 -1.5t17.5 -3.5q51 -8 85 -41.5t34 -89.5q0 -82 -76 -134t-186 -52h-31z" />
<glyph unicode="&#xc8;" horiz-adv-x="1046" d="M82 0v76l119 22q20 2 29.5 14.5t9.5 30.5v873q0 18 -10.5 31.5t-28.5 15.5l-119 22v78h827q4 -70 4 -140t-6 -146h-84l-32 141q-4 16 -15.5 26.5t-27.5 18.5q-27 8 -68 12t-88 4h-186v-436l362 12v-114l-362 8v-459h227q49 0 94 4t70 15q18 6 27.5 17t15.5 28l55 159 l82 -10q0 -74 -8 -150.5t-23 -152.5h-864zM279 1438l90 114l338 -247l-37 -64q-98 39 -213 92t-178 105z" />
<glyph unicode="&#xc9;" horiz-adv-x="1046" d="M82 0v76l119 22q20 2 29.5 14.5t9.5 30.5v873q0 18 -10.5 31.5t-28.5 15.5l-119 22v78h827q4 -70 4 -140t-6 -146h-84l-32 141q-4 16 -15.5 26.5t-27.5 18.5q-27 8 -68 12t-88 4h-186v-436l362 12v-114l-362 8v-459h227q49 0 94 4t70 15q18 6 27.5 17t15.5 28l55 159 l82 -10q0 -74 -8 -150.5t-23 -152.5h-864zM389 1305l355 239l86 -117q-63 -49 -185.5 -99t-222.5 -85z" />
<glyph unicode="&#xca;" horiz-adv-x="1046" d="M82 0v76l119 22q20 2 29.5 14.5t9.5 30.5v873q0 18 -10.5 31.5t-28.5 15.5l-119 22v78h827q4 -70 4 -140t-6 -146h-84l-32 141q-4 16 -15.5 26.5t-27.5 18.5q-27 8 -68 12t-88 4h-186v-436l362 12v-114l-362 8v-459h227q49 0 94 4t70 15q18 6 27.5 17t15.5 28l55 159 l82 -10q0 -74 -8 -150.5t-23 -152.5h-864zM256 1294l217 232l127 6l236 -232l-56 -61l-243 162l-228 -162z" />
<glyph unicode="&#xcb;" horiz-adv-x="1046" d="M82 0v76l119 22q20 2 29.5 14.5t9.5 30.5v873q0 18 -10.5 31.5t-28.5 15.5l-119 22v78h827q4 -70 4 -140t-6 -146h-84l-32 141q-4 16 -15.5 26.5t-27.5 18.5q-27 8 -68 12t-88 4h-186v-436l362 12v-114l-362 8v-459h227q49 0 94 4t70 15q18 6 27.5 17t15.5 28l55 159 l82 -10q0 -74 -8 -150.5t-23 -152.5h-864zM268 1368q0 43 27 70.5t70 27.5t69.5 -27.5t26.5 -70.5q0 -45 -26.5 -71.5t-69.5 -26.5t-70 26.5t-27 71.5zM633 1368q0 43 26.5 70.5t69.5 27.5t70 -27.5t27 -70.5q0 -45 -27 -71.5t-70 -26.5t-69.5 26.5t-26.5 71.5z" />
<glyph unicode="&#xcc;" horiz-adv-x="645" d="M54 1438l90 114l338 -247l-37 -64q-98 39 -213 92t-178 105zM82 0v76l119 22q20 2 29.5 14.5t9.5 30.5v873q0 18 -10.5 31.5t-28.5 15.5l-119 22v78h479v-78l-117 -22q-20 -2 -29 -14.5t-9 -32.5v-871q0 -20 9 -32.5t29 -14.5l117 -22v-76h-479z" />
<glyph unicode="&#xcd;" horiz-adv-x="645" d="M82 0v76l119 22q20 2 29.5 14.5t9.5 30.5v873q0 18 -10.5 31.5t-28.5 15.5l-119 22v78h479v-78l-117 -22q-20 -2 -29 -14.5t-9 -32.5v-871q0 -20 9 -32.5t29 -14.5l117 -22v-76h-479zM164 1305l355 239l86 -117q-63 -49 -185.5 -99t-222.5 -85z" />
<glyph unicode="&#xce;" horiz-adv-x="645" d="M31 1294l217 232l127 6l236 -232l-56 -61l-243 162l-228 -162zM82 0v76l119 22q20 2 29.5 14.5t9.5 30.5v873q0 18 -10.5 31.5t-28.5 15.5l-119 22v78h479v-78l-117 -22q-20 -2 -29 -14.5t-9 -32.5v-871q0 -20 9 -32.5t29 -14.5l117 -22v-76h-479z" />
<glyph unicode="&#xcf;" horiz-adv-x="645" d="M43 1368q0 43 27 70.5t70 27.5t69.5 -27.5t26.5 -70.5q0 -45 -26.5 -71.5t-69.5 -26.5t-70 26.5t-27 71.5zM82 0v76l119 22q20 2 29.5 14.5t9.5 30.5v873q0 18 -10.5 31.5t-28.5 15.5l-119 22v78h479v-78l-117 -22q-20 -2 -29 -14.5t-9 -32.5v-871q0 -20 9 -32.5 t29 -14.5l117 -22v-76h-479zM408 1368q0 43 26.5 70.5t69.5 27.5t70 -27.5t27 -70.5q0 -45 -27 -71.5t-70 -26.5t-69.5 26.5t-26.5 71.5z" />
<glyph unicode="&#xd0;" horiz-adv-x="1245" d="M84 0v76l119 22q18 2 27.5 14.5t9.5 28.5v410h-148v94h148v375q0 14 -9.5 26.5t-23.5 14.5l-123 24v78h238q72 0 137 6.5t135 6.5q287 0 423 -144t136 -416q0 -311 -157.5 -471.5t-424.5 -154.5q-49 0 -117.5 5t-127.5 5h-242zM406 88q33 -8 87 -12t93 -2 q184 4 286.5 124.5t102.5 389.5q0 258 -103.5 381t-314.5 123q-47 0 -86 -4.5t-65 -6.5v-436h264v-94h-264v-463z" />
<glyph unicode="&#xd1;" horiz-adv-x="1325" d="M82 0v76l119 22q20 2 29.5 14.5t9.5 30.5v873q0 18 -10.5 31.5t-28.5 15.5l-119 22v78h324l593 -907v760q0 18 -9 31.5t-29 15.5l-125 22v78h417v-78l-106 -22q-18 -4 -28.5 -15.5t-10.5 -31.5v-1016h-139l-623 952v-809q0 -18 10.5 -30.5t30.5 -14.5l135 -22v-76h-440z M336 1300q20 68 74.5 127.5t131.5 59.5q41 0 75 -16.5t63.5 -36t57.5 -36t56 -16.5q39 0 70 32t53 65l57 -31q-20 -66 -74.5 -126t-131.5 -60q-41 0 -75 16t-63.5 35.5t-57.5 36t-56 16.5q-39 0 -70 -31.5t-53 -64.5z" />
<glyph unicode="&#xd2;" horiz-adv-x="1193" d="M92 563q0 297 143.5 458t380.5 161q240 0 362 -157t122 -425q0 -293 -142 -455.5t-380 -162.5q-240 0 -363 156.5t-123 424.5zM276 580q0 -250 79 -380t239 -130q152 0 236.5 128t84.5 388q0 250 -78.5 379t-238.5 129q-152 0 -237 -127t-85 -387zM330 1438l90 114 l338 -247l-37 -64q-98 39 -213 92t-178 105z" />
<glyph unicode="&#xd3;" horiz-adv-x="1193" d="M92 563q0 297 143.5 458t380.5 161q240 0 362 -157t122 -425q0 -293 -142 -455.5t-380 -162.5q-240 0 -363 156.5t-123 424.5zM276 580q0 -250 79 -380t239 -130q152 0 236.5 128t84.5 388q0 250 -78.5 379t-238.5 129q-152 0 -237 -127t-85 -387zM440 1305l355 239 l86 -117q-63 -49 -185.5 -99t-222.5 -85z" />
<glyph unicode="&#xd4;" horiz-adv-x="1193" d="M92 563q0 297 143.5 458t380.5 161q240 0 362 -157t122 -425q0 -293 -142 -455.5t-380 -162.5q-240 0 -363 156.5t-123 424.5zM276 580q0 -250 79 -380t239 -130q152 0 236.5 128t84.5 388q0 250 -78.5 379t-238.5 129q-152 0 -237 -127t-85 -387zM307 1294l217 232 l127 6l236 -232l-56 -61l-243 162l-228 -162z" />
<glyph unicode="&#xd5;" horiz-adv-x="1193" d="M92 563q0 297 143.5 458t380.5 161q240 0 362 -157t122 -425q0 -293 -142 -455.5t-380 -162.5q-240 0 -363 156.5t-123 424.5zM276 580q0 -250 79 -380t239 -130q152 0 236.5 128t84.5 388q0 250 -78.5 379t-238.5 129q-152 0 -237 -127t-85 -387zM279 1300 q20 68 74.5 127.5t131.5 59.5q41 0 75 -16.5t63.5 -36t57.5 -36t56 -16.5q39 0 70 32t53 65l57 -31q-20 -66 -74.5 -126t-131.5 -60q-41 0 -75 16t-63.5 35.5t-57.5 36t-56 16.5q-39 0 -70 -31.5t-53 -64.5z" />
<glyph unicode="&#xd6;" horiz-adv-x="1193" d="M92 563q0 297 143.5 458t380.5 161q240 0 362 -157t122 -425q0 -293 -142 -455.5t-380 -162.5q-240 0 -363 156.5t-123 424.5zM276 580q0 -250 79 -380t239 -130q152 0 236.5 128t84.5 388q0 250 -78.5 379t-238.5 129q-152 0 -237 -127t-85 -387zM319 1368q0 43 27 70.5 t70 27.5t69.5 -27.5t26.5 -70.5q0 -45 -26.5 -71.5t-69.5 -26.5t-70 26.5t-27 71.5zM684 1368q0 43 26.5 70.5t69.5 27.5t70 -27.5t27 -70.5q0 -45 -27 -71.5t-70 -26.5t-69.5 26.5t-26.5 71.5z" />
<glyph unicode="&#xd7;" horiz-adv-x="829" d="M106 233l232 226l-232 225l87 90l223 -239l223 239l84 -90l-231 -225l231 -226l-84 -88l-223 240l-223 -240z" />
<glyph unicode="&#xd8;" horiz-adv-x="1193" d="M92 563q0 297 143.5 458t378.5 161q59 0 111.5 -10.5t97.5 -28.5l68 131l84 -45l-68 -133q96 -72 144.5 -199t48.5 -297q0 -293 -143.5 -455.5t-381.5 -162.5q-57 0 -109 9t-97 29l-80 -159l-86 45l84 162q-96 70 -145.5 197.5t-49.5 297.5zM268 580q0 -131 21.5 -231.5 t64.5 -164.5l422 858q-35 27 -80 41.5t-100 14.5q-156 0 -242 -127t-86 -391zM414 121q37 -27 82 -41t98 -14q154 0 241 128t87 392q0 129 -21.5 228t-62.5 163z" />
<glyph unicode="&#xd9;" horiz-adv-x="1259" d="M76 1085v78h463v-78l-131 -24q-18 -2 -28.5 -14.5t-10.5 -32.5v-584q0 -201 77.5 -281.5t206.5 -80.5q154 0 221.5 91t67.5 261v596q0 20 -9 32.5t-28 14.5l-129 22v78h410v-78l-88 -20q-20 -4 -29.5 -16.5t-9.5 -32.5v-588q0 -231 -115 -337.5t-319 -106.5 q-219 0 -322.5 115.5t-103.5 346.5v570q0 20 -9.5 32.5t-27.5 16.5zM379 1438l90 114l338 -247l-37 -64q-98 39 -213 92t-178 105z" />
<glyph unicode="&#xda;" horiz-adv-x="1259" d="M76 1085v78h463v-78l-131 -24q-18 -2 -28.5 -14.5t-10.5 -32.5v-584q0 -201 77.5 -281.5t206.5 -80.5q154 0 221.5 91t67.5 261v596q0 20 -9 32.5t-28 14.5l-129 22v78h410v-78l-88 -20q-20 -4 -29.5 -16.5t-9.5 -32.5v-588q0 -231 -115 -337.5t-319 -106.5 q-219 0 -322.5 115.5t-103.5 346.5v570q0 20 -9.5 32.5t-27.5 16.5zM489 1305l355 239l86 -117q-63 -49 -185.5 -99t-222.5 -85z" />
<glyph unicode="&#xdb;" horiz-adv-x="1259" d="M76 1085v78h463v-78l-131 -24q-18 -2 -28.5 -14.5t-10.5 -32.5v-584q0 -201 77.5 -281.5t206.5 -80.5q154 0 221.5 91t67.5 261v596q0 20 -9 32.5t-28 14.5l-129 22v78h410v-78l-88 -20q-20 -4 -29.5 -16.5t-9.5 -32.5v-588q0 -231 -115 -337.5t-319 -106.5 q-219 0 -322.5 115.5t-103.5 346.5v570q0 20 -9.5 32.5t-27.5 16.5zM356 1294l217 232l127 6l236 -232l-56 -61l-243 162l-228 -162z" />
<glyph unicode="&#xdc;" horiz-adv-x="1259" d="M76 1085v78h463v-78l-131 -24q-18 -2 -28.5 -14.5t-10.5 -32.5v-584q0 -201 77.5 -281.5t206.5 -80.5q154 0 221.5 91t67.5 261v596q0 20 -9 32.5t-28 14.5l-129 22v78h410v-78l-88 -20q-20 -4 -29.5 -16.5t-9.5 -32.5v-588q0 -231 -115 -337.5t-319 -106.5 q-219 0 -322.5 115.5t-103.5 346.5v570q0 20 -9.5 32.5t-27.5 16.5zM368 1368q0 43 27 70.5t70 27.5t69.5 -27.5t26.5 -70.5q0 -45 -26.5 -71.5t-69.5 -26.5t-70 26.5t-27 71.5zM733 1368q0 43 26.5 70.5t69.5 27.5t70 -27.5t27 -70.5q0 -45 -27 -71.5t-70 -26.5t-69.5 26.5 t-26.5 71.5z" />
<glyph unicode="&#xdd;" horiz-adv-x="1093" d="M-4 1085v78h453v-78l-136 -26l273 -492l252 492l-140 26v78h383v-78l-92 -20q-14 -4 -26.5 -12.5t-20.5 -22.5l-303 -581v-302q0 -20 9 -31.5t30 -13.5l143 -26v-76h-534v76l143 26q20 2 30.5 13.5t10.5 31.5v297l-336 584q-8 14 -20.5 23.5t-26.5 11.5zM391 1305 l355 239l86 -117q-63 -49 -185.5 -99t-222.5 -85z" />
<glyph unicode="&#xde;" horiz-adv-x="1046" d="M92 0v76l105 22q20 2 29.5 14.5t9.5 30.5v873q0 18 -10.5 30.5t-28.5 16.5l-105 22v78h471v-78l-125 -22q-20 -2 -30.5 -14.5t-10.5 -32.5v-113q57 6 111.5 9t109.5 3q176 0 269.5 -76.5t93.5 -238.5q0 -182 -104.5 -267t-294.5 -85q-57 0 -101.5 2t-83.5 4v-109 q0 -20 10.5 -32.5t30.5 -14.5l125 -22v-76h-471zM397 338q45 -4 87 -7t81 -3q106 0 172 58t66 206q0 115 -55.5 177t-190.5 62q-41 0 -82 -4t-78 -6v-483z" />
<glyph unicode="&#xdf;" horiz-adv-x="1130" d="M59 756v69l146 21v55q0 188 127 312t289 124q133 0 219 -86t86 -223q0 -47 -10.5 -100.5t-24.5 -91.5q-94 -20 -147.5 -65.5t-53.5 -106.5q0 -57 49 -92t125 -74q92 -47 152.5 -104.5t60.5 -157.5q0 -123 -93 -189.5t-230 -66.5q-84 0 -153 22.5t-112 42.5q-2 27 -4 51.5 t-2 48.5q0 33 3 65t6 58h86l28 -106q8 -27 15.5 -39t21.5 -23q18 -14 52 -27.5t79 -13.5q66 0 108 35t42 96q0 68 -52.5 107t-134.5 84q-76 41 -137 93t-61 147q0 96 62.5 155.5t137.5 89.5q12 33 16.5 69t4.5 62q0 94 -49 159t-152 65q-90 0 -142 -61.5t-52 -215.5v-944 h-291v76l92 14q18 2 28.5 13.5t10.5 31.5v602z" />
<glyph unicode="&#xe0;" d="M72 188q0 66 29.5 109t76.5 69.5t106.5 40t116.5 17.5l170 14v101q0 117 -46 163t-140 46q-70 0 -133.5 -23t-116.5 -74l-39 37q31 88 124 133t210 45q147 0 222 -75.5t75 -229.5v-420q0 -25 11.5 -36t33.5 -13l84 -8v-70q-20 -6 -64 -16t-79 -10q-53 0 -88 27.5 t-47 78.5q-47 -51 -118 -80.5t-149 -29.5q-102 0 -170.5 52t-68.5 152zM205 1217l108 94l262 -318l-51 -55q-90 59 -182 139t-137 140zM242 203q0 -53 32 -84t95 -31q53 0 108 19.5t94 52.5v200l-143 -14q-90 -6 -138 -40t-48 -103z" />
<glyph unicode="&#xe1;" d="M72 188q0 66 29.5 109t76.5 69.5t106.5 40t116.5 17.5l170 14v101q0 117 -46 163t-140 46q-70 0 -133.5 -23t-116.5 -74l-39 37q31 88 124 133t210 45q147 0 222 -75.5t75 -229.5v-420q0 -25 11.5 -36t33.5 -13l84 -8v-70q-20 -6 -64 -16t-79 -10q-53 0 -88 27.5 t-47 78.5q-47 -51 -118 -80.5t-149 -29.5q-102 0 -170.5 52t-68.5 152zM242 203q0 -53 32 -84t95 -31q53 0 108 19.5t94 52.5v200l-143 -14q-90 -6 -138 -40t-48 -103zM309 991l273 320l108 -94q-45 -59 -142.5 -139.5t-189.5 -139.5z" />
<glyph unicode="&#xe2;" d="M72 188q0 66 29.5 109t76.5 69.5t106.5 40t116.5 17.5l170 14v101q0 117 -46 163t-140 46q-70 0 -133.5 -23t-116.5 -74l-39 37q31 88 124 133t210 45q147 0 222 -75.5t75 -229.5v-420q0 -25 11.5 -36t33.5 -13l84 -8v-70q-20 -6 -64 -16t-79 -10q-53 0 -88 27.5 t-47 78.5q-47 -51 -118 -80.5t-149 -29.5q-102 0 -170.5 52t-68.5 152zM151 987l207 289l125 12l230 -295l-62 -53l-231 207l-211 -209zM242 203q0 -53 32 -84t95 -31q53 0 108 19.5t94 52.5v200l-143 -14q-90 -6 -138 -40t-48 -103z" />
<glyph unicode="&#xe3;" d="M72 188q0 66 29.5 109t76.5 69.5t106.5 40t116.5 17.5l170 14v101q0 117 -46 163t-140 46q-70 0 -133.5 -23t-116.5 -74l-39 37q31 88 124 133t210 45q147 0 222 -75.5t75 -229.5v-420q0 -25 11.5 -36t33.5 -13l84 -8v-70q-20 -6 -64 -16t-79 -10q-53 0 -88 27.5 t-47 78.5q-47 -51 -118 -80.5t-149 -29.5q-102 0 -170.5 52t-68.5 152zM123 1004q20 68 69.5 128t128.5 60q39 0 72 -16.5t61.5 -36t56.5 -36t54 -16.5q37 0 66.5 32t50.5 65l55 -33q-20 -68 -69.5 -127t-128.5 -59q-78 0 -133.5 51t-110.5 51q-39 0 -67.5 -30.5 t-49.5 -63.5zM242 203q0 -53 32 -84t95 -31q53 0 108 19.5t94 52.5v200l-143 -14q-90 -6 -138 -40t-48 -103z" />
<glyph unicode="&#xe4;" d="M72 188q0 66 29.5 109t76.5 69.5t106.5 40t116.5 17.5l170 14v101q0 117 -46 163t-140 46q-70 0 -133.5 -23t-116.5 -74l-39 37q31 88 124 133t210 45q147 0 222 -75.5t75 -229.5v-420q0 -25 11.5 -36t33.5 -13l84 -8v-70q-20 -6 -64 -16t-79 -10q-53 0 -88 27.5 t-47 78.5q-47 -51 -118 -80.5t-149 -29.5q-102 0 -170.5 52t-68.5 152zM168 1090q0 45 26.5 71.5t69.5 26.5q41 0 67.5 -26.5t26.5 -71.5t-26.5 -72t-67.5 -27q-43 0 -69.5 26.5t-26.5 72.5zM242 203q0 -53 32 -84t95 -31q53 0 108 19.5t94 52.5v200l-143 -14 q-90 -6 -138 -40t-48 -103zM500 1090q0 45 26.5 71.5t69.5 26.5t68.5 -26.5t25.5 -71.5t-25.5 -72t-68.5 -27t-69.5 26.5t-26.5 72.5z" />
<glyph unicode="&#xe5;" d="M72 188q0 66 29.5 109t76.5 69.5t106.5 40t116.5 17.5l170 14v101q0 117 -46 163t-140 46q-70 0 -133.5 -23t-116.5 -74l-39 37q31 88 124 133t210 45q147 0 222 -75.5t75 -229.5v-420q0 -25 11.5 -36t33.5 -13l84 -8v-70q-20 -6 -64 -16t-79 -10q-53 0 -88 27.5 t-47 78.5q-47 -51 -118 -80.5t-149 -29.5q-102 0 -170.5 52t-68.5 152zM231 1130q0 78 63.5 124t141.5 46q92 0 142.5 -49t50.5 -125q0 -80 -60.5 -126t-140.5 -46q-94 0 -145.5 49.5t-51.5 126.5zM242 203q0 -53 32 -84t95 -31q53 0 108 19.5t94 52.5v200l-143 -14 q-90 -6 -138 -40t-48 -103zM338 1130q0 -39 22.5 -69.5t71.5 -30.5q45 0 67.5 24.5t22.5 69.5q0 37 -22.5 68t-67.5 31t-69.5 -26t-24.5 -67z" />
<glyph unicode="&#xe6;" horiz-adv-x="1359" d="M72 186q0 129 106.5 179.5t222.5 58.5l170 12v103q0 115 -49 162t-143 47q-59 0 -124 -23t-120 -74l-39 37q29 88 124 133t200 45q94 0 155.5 -32.5t94.5 -94.5q51 63 124.5 97t168.5 34q137 0 224 -74.5t87 -217.5q0 -20 -2 -50t-6 -55h-533v-9v-11q0 -203 74 -281 t176 -78q70 0 134.5 32t101.5 89l53 -31q-31 -92 -120 -146t-210 -54q-106 0 -182 41t-121 112q-51 -74 -138 -113.5t-184 -39.5q-111 0 -178 52t-67 150zM242 203q0 -53 32 -84t95 -31q57 0 123.5 24.5t119.5 75.5q-14 37 -25.5 80t-13.5 90l-145 -12q-90 -6 -138 -40 t-48 -103zM739 551h375v35q0 88 -45 142t-129 54q-80 0 -133 -55t-68 -176z" />
<glyph unicode="&#xe7;" horiz-adv-x="839" d="M82 414q0 197 104.5 326.5t307.5 129.5q70 0 142.5 -16t117.5 -39q4 -57 -1 -124.5t-14 -125.5h-82l-32 125q-4 20 -10.5 34.5t-20.5 27.5q-18 14 -48 24t-69 10q-104 0 -161.5 -84t-57.5 -253q0 -178 65.5 -266.5t182.5 -88.5q70 0 124 26.5t89 63.5l45 -39 q-35 -76 -115 -118.5t-190 -42.5q-186 0 -281.5 122t-95.5 308zM293 -319q74 6 115.5 37.5t41.5 74.5q0 39 -31.5 56.5t-70.5 19.5l57 170h70l-33 -102q6 0 15.5 -1.5t17.5 -3.5q51 -8 85 -41.5t34 -89.5q0 -82 -76 -134t-186 -52h-31z" />
<glyph unicode="&#xe8;" horiz-adv-x="878" d="M84 416q0 213 108.5 333.5t288.5 120.5q137 0 224.5 -74.5t87.5 -217.5q0 -20 -2.5 -50t-6.5 -55h-532v-10v-12q0 -201 71.5 -279t180.5 -78q72 0 134 32t99 89l51 -31q-27 -90 -113.5 -145t-215.5 -55q-190 0 -282.5 121.5t-92.5 310.5zM236 1217l108 94l262 -318 l-51 -55q-90 59 -182 139t-137 140zM258 551h373q2 10 3 18.5t1 18.5q0 88 -46 143t-130 55q-80 0 -133.5 -56t-67.5 -179z" />
<glyph unicode="&#xe9;" horiz-adv-x="878" d="M84 416q0 213 108.5 333.5t288.5 120.5q137 0 224.5 -74.5t87.5 -217.5q0 -20 -2.5 -50t-6.5 -55h-532v-10v-12q0 -201 71.5 -279t180.5 -78q72 0 134 32t99 89l51 -31q-27 -90 -113.5 -145t-215.5 -55q-190 0 -282.5 121.5t-92.5 310.5zM258 551h373q2 10 3 18.5t1 18.5 q0 88 -46 143t-130 55q-80 0 -133.5 -56t-67.5 -179zM340 991l273 320l108 -94q-45 -59 -142.5 -139.5t-189.5 -139.5z" />
<glyph unicode="&#xea;" horiz-adv-x="878" d="M84 416q0 213 108.5 333.5t288.5 120.5q137 0 224.5 -74.5t87.5 -217.5q0 -20 -2.5 -50t-6.5 -55h-532v-10v-12q0 -201 71.5 -279t180.5 -78q72 0 134 32t99 89l51 -31q-27 -90 -113.5 -145t-215.5 -55q-190 0 -282.5 121.5t-92.5 310.5zM182 987l207 289l125 12 l230 -295l-62 -53l-231 207l-211 -209zM258 551h373q2 10 3 18.5t1 18.5q0 88 -46 143t-130 55q-80 0 -133.5 -56t-67.5 -179z" />
<glyph unicode="&#xeb;" horiz-adv-x="878" d="M84 416q0 213 108.5 333.5t288.5 120.5q137 0 224.5 -74.5t87.5 -217.5q0 -20 -2.5 -50t-6.5 -55h-532v-10v-12q0 -201 71.5 -279t180.5 -78q72 0 134 32t99 89l51 -31q-27 -90 -113.5 -145t-215.5 -55q-190 0 -282.5 121.5t-92.5 310.5zM199 1090q0 45 26.5 71.5 t69.5 26.5q41 0 67.5 -26.5t26.5 -71.5t-26.5 -72t-67.5 -27q-43 0 -69.5 26.5t-26.5 72.5zM258 551h373q2 10 3 18.5t1 18.5q0 88 -46 143t-130 55q-80 0 -133.5 -56t-67.5 -179zM531 1090q0 45 26.5 71.5t69.5 26.5t68.5 -26.5t25.5 -71.5t-25.5 -72t-68.5 -27t-69.5 26.5 t-26.5 72.5z" />
<glyph unicode="&#xec;" horiz-adv-x="548" d="M27 1217l108 94l262 -318l-51 -55q-90 59 -182 139t-137 140zM61 752v73q66 20 142 29.5t139 11.5l23 -24v-705q0 -20 10 -32.5t31 -14.5l90 -14v-76h-422v76l90 14q20 2 30.5 14.5t10.5 32.5v555q0 18 -9.5 30.5t-29.5 14.5z" />
<glyph unicode="&#xed;" horiz-adv-x="548" d="M61 752v73q66 20 142 29.5t139 11.5l23 -24v-705q0 -20 10 -32.5t31 -14.5l90 -14v-76h-422v76l90 14q20 2 30.5 14.5t10.5 32.5v555q0 18 -9.5 30.5t-29.5 14.5zM131 991l273 320l108 -94q-45 -59 -142.5 -139.5t-189.5 -139.5z" />
<glyph unicode="&#xee;" horiz-adv-x="548" d="M-2 985l182 289l125 10l205 -295l-61 -49l-207 203l-187 -203zM61 752v73q66 20 142 29.5t139 11.5l23 -24v-705q0 -20 10 -32.5t31 -14.5l90 -14v-76h-422v76l90 14q20 2 30.5 14.5t10.5 32.5v555q0 18 -9.5 30.5t-29.5 14.5z" />
<glyph unicode="&#xef;" horiz-adv-x="548" d="M-10 1090q0 45 26.5 71.5t69.5 26.5q41 0 67.5 -26.5t26.5 -71.5t-26.5 -72t-67.5 -27q-43 0 -69.5 26.5t-26.5 72.5zM61 752v73q66 20 142 29.5t139 11.5l23 -24v-705q0 -20 10 -32.5t31 -14.5l90 -14v-76h-422v76l90 14q20 2 30.5 14.5t10.5 32.5v555q0 18 -9.5 30.5 t-29.5 14.5zM322 1090q0 45 26.5 71.5t69.5 26.5t68.5 -26.5t25.5 -71.5t-25.5 -72t-68.5 -27t-69.5 26.5t-26.5 72.5z" />
<glyph unicode="&#xf0;" horiz-adv-x="952" d="M84 408q0 119 33 200.5t83 132t111.5 73t120.5 22.5q53 0 108.5 -17.5t94.5 -54.5q-27 84 -73 156.5t-107 136.5l-215 -160l-60 86l207 137q-51 41 -110.5 77t-126.5 69l30 71q88 -27 165 -64.5t142 -82.5l191 139l59 -84l-176 -115q147 -129 220 -300t73 -351 q0 -219 -102 -357t-303 -138q-174 0 -269.5 113.5t-95.5 310.5zM258 406q0 -139 47 -238.5t164 -99.5q115 0 164 99t49 290q0 51 -5 100t-13 94q-37 39 -87.5 60.5t-105.5 21.5q-92 0 -152.5 -72.5t-60.5 -254.5z" />
<glyph unicode="&#xf1;" horiz-adv-x="1083" d="M61 752v73q61 18 131 28.5t127 12.5l29 -26l10 -92q63 66 139 92t158 26q147 0 200.5 -86t53.5 -239v-404q0 -20 11.5 -32.5t29.5 -14.5l92 -14v-76h-413v76l82 14q18 4 29.5 14.5t11.5 32.5v375q0 123 -34 183.5t-130 60.5q-61 0 -117.5 -18.5t-105.5 -55.5v-545 q0 -20 10 -31.5t28 -15.5l84 -14v-76h-413v76l90 14q20 2 30.5 14.5t10.5 32.5v555q0 18 -9.5 30.5t-29.5 14.5zM240 1004q20 68 69.5 128t128.5 60q39 0 72 -16.5t61.5 -36t56.5 -36t54 -16.5q37 0 66.5 32t50.5 65l55 -33q-20 -68 -69.5 -127t-128.5 -59q-78 0 -133.5 51 t-110.5 51q-39 0 -67.5 -30.5t-49.5 -63.5z" />
<glyph unicode="&#xf2;" horiz-adv-x="958" d="M84 420q0 236 121 343t289 107q199 0 289.5 -121.5t90.5 -318.5q0 -233 -119.5 -339.5t-289.5 -106.5q-197 0 -289 119.5t-92 316.5zM254 1217l108 94l262 -318l-51 -55q-90 59 -182 139t-137 140zM260 436q0 -166 48 -267t177 -101q109 0 161 82t52 266q0 168 -48 269 t-177 101q-109 0 -161 -82.5t-52 -267.5z" />
<glyph unicode="&#xf3;" horiz-adv-x="958" d="M84 420q0 236 121 343t289 107q199 0 289.5 -121.5t90.5 -318.5q0 -233 -119.5 -339.5t-289.5 -106.5q-197 0 -289 119.5t-92 316.5zM260 436q0 -166 48 -267t177 -101q109 0 161 82t52 266q0 168 -48 269t-177 101q-109 0 -161 -82.5t-52 -267.5zM358 991l273 320 l108 -94q-45 -59 -142.5 -139.5t-189.5 -139.5z" />
<glyph unicode="&#xf4;" horiz-adv-x="958" d="M84 420q0 236 121 343t289 107q199 0 289.5 -121.5t90.5 -318.5q0 -233 -119.5 -339.5t-289.5 -106.5q-197 0 -289 119.5t-92 316.5zM200 987l207 289l125 12l230 -295l-62 -53l-231 207l-211 -209zM260 436q0 -166 48 -267t177 -101q109 0 161 82t52 266q0 168 -48 269 t-177 101q-109 0 -161 -82.5t-52 -267.5z" />
<glyph unicode="&#xf5;" horiz-adv-x="958" d="M84 420q0 236 121 343t289 107q199 0 289.5 -121.5t90.5 -318.5q0 -233 -119.5 -339.5t-289.5 -106.5q-197 0 -289 119.5t-92 316.5zM172 1004q20 68 69.5 128t128.5 60q39 0 72 -16.5t61.5 -36t56.5 -36t54 -16.5q37 0 66.5 32t50.5 65l55 -33q-20 -68 -69.5 -127 t-128.5 -59q-78 0 -133.5 51t-110.5 51q-39 0 -67.5 -30.5t-49.5 -63.5zM260 436q0 -166 48 -267t177 -101q109 0 161 82t52 266q0 168 -48 269t-177 101q-109 0 -161 -82.5t-52 -267.5z" />
<glyph unicode="&#xf6;" horiz-adv-x="958" d="M84 420q0 236 121 343t289 107q199 0 289.5 -121.5t90.5 -318.5q0 -233 -119.5 -339.5t-289.5 -106.5q-197 0 -289 119.5t-92 316.5zM217 1090q0 45 26.5 71.5t69.5 26.5q41 0 67.5 -26.5t26.5 -71.5t-26.5 -72t-67.5 -27q-43 0 -69.5 26.5t-26.5 72.5zM260 436 q0 -166 48 -267t177 -101q109 0 161 82t52 266q0 168 -48 269t-177 101q-109 0 -161 -82.5t-52 -267.5zM549 1090q0 45 26.5 71.5t69.5 26.5t68.5 -26.5t25.5 -71.5t-25.5 -72t-68.5 -27t-69.5 26.5t-26.5 72.5z" />
<glyph unicode="&#xf7;" horiz-adv-x="907" d="M115 403v111h680v-111h-680zM358 193q0 41 26 67.5t69 26.5t70.5 -26.5t27.5 -67.5q0 -39 -27.5 -66t-70.5 -27t-69 27t-26 66zM358 725q0 41 26 66.5t69 25.5t70.5 -25.5t27.5 -66.5t-27.5 -66.5t-70.5 -25.5t-69 25.5t-26 66.5z" />
<glyph unicode="&#xf8;" horiz-adv-x="958" d="M84 420q0 236 121 343t289 107q39 0 75.5 -6t67.5 -14l68 131l79 -43l-65 -129q80 -55 117.5 -152.5t37.5 -226.5q0 -233 -119.5 -339.5t-289.5 -106.5q-39 0 -74 5t-63 13l-74 -141l-78 43l68 137q-82 55 -121 152.5t-39 226.5zM254 436q0 -88 12.5 -159.5t42.5 -120.5 l285 598q-25 14 -54.5 22t-66.5 8q-111 0 -165 -82t-54 -266zM369 96q23 -14 52 -21t64 -7q111 0 166.5 82.5t55.5 265.5q0 88 -12.5 157.5t-43.5 118.5z" />
<glyph unicode="&#xf9;" horiz-adv-x="1038" d="M43 756v73q63 16 134 25.5t134 11.5l23 -24v-520q0 -119 34.5 -175.5t129.5 -56.5q53 0 104 17.5t96 54.5v530q0 20 -10 33.5t-29 15.5l-110 17v73q63 16 143 25.5t144 9.5l22 -24v-701q0 -27 11.5 -37t31.5 -12l86 -8v-70q-27 -8 -67.5 -17t-77.5 -9q-57 0 -90 30.5 t-45 77.5q-51 -49 -115 -80.5t-152 -31.5q-139 0 -202.5 76.5t-63.5 232.5v399q0 20 -9 32.5t-30 14.5zM262 1217l108 94l262 -318l-51 -55q-90 59 -182 139t-137 140z" />
<glyph unicode="&#xfa;" horiz-adv-x="1038" d="M43 756v73q63 16 134 25.5t134 11.5l23 -24v-520q0 -119 34.5 -175.5t129.5 -56.5q53 0 104 17.5t96 54.5v530q0 20 -10 33.5t-29 15.5l-110 17v73q63 16 143 25.5t144 9.5l22 -24v-701q0 -27 11.5 -37t31.5 -12l86 -8v-70q-27 -8 -67.5 -17t-77.5 -9q-57 0 -90 30.5 t-45 77.5q-51 -49 -115 -80.5t-152 -31.5q-139 0 -202.5 76.5t-63.5 232.5v399q0 20 -9 32.5t-30 14.5zM366 991l273 320l108 -94q-45 -59 -142.5 -139.5t-189.5 -139.5z" />
<glyph unicode="&#xfb;" horiz-adv-x="1038" d="M43 756v73q63 16 134 25.5t134 11.5l23 -24v-520q0 -119 34.5 -175.5t129.5 -56.5q53 0 104 17.5t96 54.5v530q0 20 -10 33.5t-29 15.5l-110 17v73q63 16 143 25.5t144 9.5l22 -24v-701q0 -27 11.5 -37t31.5 -12l86 -8v-70q-27 -8 -67.5 -17t-77.5 -9q-57 0 -90 30.5 t-45 77.5q-51 -49 -115 -80.5t-152 -31.5q-139 0 -202.5 76.5t-63.5 232.5v399q0 20 -9 32.5t-30 14.5zM208 987l207 289l125 12l230 -295l-62 -53l-231 207l-211 -209z" />
<glyph unicode="&#xfc;" horiz-adv-x="1038" d="M43 756v73q63 16 134 25.5t134 11.5l23 -24v-520q0 -119 34.5 -175.5t129.5 -56.5q53 0 104 17.5t96 54.5v530q0 20 -10 33.5t-29 15.5l-110 17v73q63 16 143 25.5t144 9.5l22 -24v-701q0 -27 11.5 -37t31.5 -12l86 -8v-70q-27 -8 -67.5 -17t-77.5 -9q-57 0 -90 30.5 t-45 77.5q-51 -49 -115 -80.5t-152 -31.5q-139 0 -202.5 76.5t-63.5 232.5v399q0 20 -9 32.5t-30 14.5zM225 1090q0 45 26.5 71.5t69.5 26.5q41 0 67.5 -26.5t26.5 -71.5t-26.5 -72t-67.5 -27q-43 0 -69.5 26.5t-26.5 72.5zM557 1090q0 45 26.5 71.5t69.5 26.5t68.5 -26.5 t25.5 -71.5t-25.5 -72t-68.5 -27t-69.5 26.5t-26.5 72.5z" />
<glyph unicode="&#xfd;" horiz-adv-x="933" d="M20 774v72h404v-72l-127 -24l223 -619l195 621l-121 22v72h324v-72l-62 -18q-16 -4 -27.5 -13.5t-17.5 -27.5l-254 -748q-61 -180 -140 -266t-208 -86q-41 0 -86 3t-88 11v95q176 14 274.5 65t163.5 211h-76l-270 717q-6 14 -17.5 24.5t-27.5 14.5zM373 991l273 320 l108 -94q-45 -59 -142.5 -139.5t-189.5 -139.5z" />
<glyph unicode="&#xfe;" horiz-adv-x="972" d="M-4 1229v67q66 18 143.5 29.5t143.5 13.5l22 -22v-549q45 45 106.5 73.5t143.5 28.5q141 0 237.5 -96t96.5 -309q0 -225 -117 -353t-319 -128q-35 0 -75 5t-73 15v-240q0 -18 10.5 -29t30.5 -14l123 -14v-76h-457v76l94 14q20 2 30.5 13.5t10.5 29.5v1403q0 20 -11 31.5 t-30 13.5zM305 102q27 -14 67 -24t87 -10q117 0 186.5 80.5t71.5 277.5q2 174 -55.5 254t-169.5 80q-59 0 -107.5 -19.5t-79.5 -46.5v-592z" />
<glyph unicode="&#xff;" horiz-adv-x="933" d="M20 774v72h404v-72l-127 -24l223 -619l195 621l-121 22v72h324v-72l-62 -18q-16 -4 -27.5 -13.5t-17.5 -27.5l-254 -748q-61 -180 -140 -266t-208 -86q-41 0 -86 3t-88 11v95q176 14 274.5 65t163.5 211h-76l-270 717q-6 14 -17.5 24.5t-27.5 14.5zM232 1090 q0 45 26.5 71.5t69.5 26.5q41 0 67.5 -26.5t26.5 -71.5t-26.5 -72t-67.5 -27q-43 0 -69.5 26.5t-26.5 72.5zM564 1090q0 45 26.5 71.5t69.5 26.5t68.5 -26.5t25.5 -71.5t-25.5 -72t-68.5 -27t-69.5 26.5t-26.5 72.5z" />
<glyph unicode="&#x152;" horiz-adv-x="1585" d="M92 557q0 305 145.5 462t389.5 157q37 0 76.5 -3.5t78.5 -11.5v2h666q6 -70 5 -140.5t-7 -145.5h-82l-35 141q-2 18 -14 28.5t-29 16.5q-25 8 -65.5 12t-90.5 4h-184v-436l363 12v-114l-363 8v-459h228q49 0 94 4t69 15q16 6 26.5 17t14.5 28l58 159l82 -10 q-2 -74 -10.5 -150.5t-22.5 -152.5h-703v2q-45 -8 -93 -13t-93 -5q-246 0 -375 146t-129 427zM274 580q0 -254 85 -384t253 -130q45 0 88 10t82 35v942q-39 23 -82 33t-84 10q-166 0 -254 -127t-88 -389z" />
<glyph unicode="&#x153;" horiz-adv-x="1497" d="M84 422q0 233 120 340.5t285 107.5q109 0 185 -38.5t117 -110.5q51 72 129.5 110.5t179.5 38.5q137 0 224 -74.5t87 -217.5q0 -20 -3 -50t-7 -55h-531v-10v-12q0 -201 72 -279t178 -78q70 0 134.5 32t99.5 89l53 -31q-29 -90 -118 -145t-210 -55q-104 0 -179 39.5 t-120 109.5q-51 -80 -135 -114.5t-182 -34.5q-197 0 -288 120.5t-91 317.5zM260 434q0 -164 48 -263t177 -99q109 0 160 82t51 264q0 166 -47 265t-176 99q-109 0 -161 -82t-52 -266zM877 551h372q2 10 2 18.5v18.5q0 88 -45 141t-129 53q-80 0 -133 -54t-67 -177z" />
<glyph unicode="&#x178;" horiz-adv-x="1093" d="M-4 1085v78h453v-78l-136 -26l273 -492l252 492l-140 26v78h383v-78l-92 -20q-14 -4 -26.5 -12.5t-20.5 -22.5l-303 -581v-302q0 -20 9 -31.5t30 -13.5l143 -26v-76h-534v76l143 26q20 2 30.5 13.5t10.5 31.5v297l-336 584q-8 14 -20.5 23.5t-26.5 11.5zM270 1368 q0 43 27 70.5t70 27.5t69.5 -27.5t26.5 -70.5q0 -45 -26.5 -71.5t-69.5 -26.5t-70 26.5t-27 71.5zM635 1368q0 43 26.5 70.5t69.5 27.5t70 -27.5t27 -70.5q0 -45 -27 -71.5t-70 -26.5t-69.5 26.5t-26.5 71.5z" />
<glyph unicode="&#x2c6;" horiz-adv-x="745" d="M94 987l207 289l125 12l230 -295l-62 -53l-231 207l-211 -209z" />
<glyph unicode="&#x2dc;" horiz-adv-x="745" d="M66 1004q20 68 69.5 128t128.5 60q39 0 72 -16.5t61.5 -36t56.5 -36t54 -16.5q37 0 66.5 32t50.5 65l55 -33q-20 -68 -69.5 -127t-128.5 -59q-78 0 -133.5 51t-110.5 51q-39 0 -67.5 -30.5t-49.5 -63.5z" />
<glyph unicode="&#x2000;" horiz-adv-x="776" />
<glyph unicode="&#x2001;" horiz-adv-x="1552" />
<glyph unicode="&#x2002;" horiz-adv-x="776" />
<glyph unicode="&#x2003;" horiz-adv-x="1552" />
<glyph unicode="&#x2004;" horiz-adv-x="517" />
<glyph unicode="&#x2005;" horiz-adv-x="388" />
<glyph unicode="&#x2006;" horiz-adv-x="258" />
<glyph unicode="&#x2007;" horiz-adv-x="258" />
<glyph unicode="&#x2008;" horiz-adv-x="194" />
<glyph unicode="&#x2009;" horiz-adv-x="310" />
<glyph unicode="&#x200a;" horiz-adv-x="86" />
<glyph unicode="&#x2010;" horiz-adv-x="800" d="M121 387v113h559v-113h-559z" />
<glyph unicode="&#x2011;" horiz-adv-x="800" d="M121 387v113h559v-113h-559z" />
<glyph unicode="&#x2012;" horiz-adv-x="800" d="M121 387v113h559v-113h-559z" />
<glyph unicode="&#x2013;" horiz-adv-x="1107" d="M121 385v115h866v-115h-866z" />
<glyph unicode="&#x2014;" horiz-adv-x="1658" d="M121 387v113h1419v-113h-1419z" />
<glyph unicode="&#x2018;" horiz-adv-x="417" d="M82 1077q0 100 63.5 185.5t159.5 136.5l37 -47q-51 -39 -88 -88.5t-37 -98.5q0 -27 10.5 -38t26.5 -21q23 -12 41 -34.5t18 -61.5q0 -43 -28.5 -74t-73.5 -31q-51 0 -90 43t-39 129z" />
<glyph unicode="&#x2019;" horiz-adv-x="421" d="M88 938q51 39 87 88t36 98q0 27 -10.5 38.5t-26.5 21.5q-20 12 -39.5 34.5t-19.5 61.5q0 43 29.5 73.5t74.5 30.5q51 0 90 -43t39 -129q0 -100 -63.5 -185t-161.5 -136z" />
<glyph unicode="&#x201a;" horiz-adv-x="466" d="M88 -158q51 39 87 88t36 98q0 27 -10.5 38.5t-26.5 21.5q-20 12 -39.5 34.5t-19.5 61.5q0 43 29.5 73.5t74.5 30.5q51 0 90 -43t39 -129q0 -100 -63.5 -185t-161.5 -136z" />
<glyph unicode="&#x201c;" horiz-adv-x="417" d="M82 1077q0 100 63.5 185.5t159.5 136.5l37 -47q-51 -39 -88 -88.5t-37 -98.5q0 -27 10.5 -38t26.5 -21q23 -12 41 -34.5t18 -61.5q0 -43 -28.5 -74t-73.5 -31q-51 0 -90 43t-39 129zM395 1077q0 100 63.5 185.5t159.5 136.5l37 -47q-51 -39 -88 -88.5t-37 -98.5 q0 -27 10.5 -38t26.5 -21q23 -12 41 -34.5t18 -61.5q0 -43 -28.5 -74t-73.5 -31q-51 0 -90 43t-39 129z" />
<glyph unicode="&#x201d;" horiz-adv-x="421" d="M88 938q51 39 87 88t36 98q0 27 -10.5 38.5t-26.5 21.5q-20 12 -39.5 34.5t-19.5 61.5q0 43 29.5 73.5t74.5 30.5q51 0 90 -43t39 -129q0 -100 -63.5 -185t-161.5 -136zM401 938q51 39 87 88t36 98q0 27 -10.5 38.5t-26.5 21.5q-20 12 -39.5 34.5t-19.5 61.5 q0 43 29.5 73.5t74.5 30.5q51 0 90 -43t39 -129q0 -100 -63.5 -185t-161.5 -136z" />
<glyph unicode="&#x201e;" horiz-adv-x="780" d="M88 -158q51 39 87 88t36 98q0 27 -10.5 38.5t-26.5 21.5q-20 12 -39.5 34.5t-19.5 61.5q0 43 29.5 73.5t74.5 30.5q51 0 90 -43t39 -129q0 -100 -63.5 -185t-161.5 -136zM401 -158q51 39 87 88t36 98q0 27 -10.5 38.5t-26.5 21.5q-20 12 -39.5 34.5t-19.5 61.5 q0 43 29.5 73.5t74.5 30.5q51 0 90 -43t39 -129q0 -100 -63.5 -185t-161.5 -136z" />
<glyph unicode="&#x2022;" horiz-adv-x="645" d="M141 473q0 78 50.5 126t132.5 48t131 -48t49 -126t-49 -125t-131 -47t-132.5 47t-50.5 125z" />
<glyph unicode="&#x2026;" horiz-adv-x="1296" d="M106 92q0 47 31 77t80 30t79 -30t30 -77t-30 -77.5t-79 -30.5t-80 30.5t-31 77.5zM539 92q0 47 30.5 77t79.5 30t79 -30t30 -77t-30 -77.5t-79 -30.5t-79.5 30.5t-30.5 77.5zM971 92q0 47 30.5 77t79.5 30t80 -30t31 -77t-31 -77.5t-80 -30.5t-79.5 30.5t-30.5 77.5z" />
<glyph unicode="&#x202f;" horiz-adv-x="310" />
<glyph unicode="&#x2039;" horiz-adv-x="630" d="M80 403v105l416 336l53 -62l-295 -325l299 -320l-57 -61z" />
<glyph unicode="&#x203a;" horiz-adv-x="630" d="M78 137l299 320l-295 325l53 62l416 -336v-105l-416 -327z" />
<glyph unicode="&#x205f;" horiz-adv-x="388" />
<glyph unicode="&#x20ac;" horiz-adv-x="1110" d="M74 358v84h162v21.5v21.5q0 20 1 42t3 42h-156v82h166q39 193 163 290t302 97q63 0 138 -12t138 -39q2 -59 -2 -127.5t-12 -132.5h-90l-31 145q-4 20 -13 31.5t-24 22.5q-23 14 -61.5 24.5t-77.5 10.5q-100 0 -170 -75t-90 -235h340v-82h-348q-2 -14 -2 -31.5v-33.5 v-30.5t2 -31.5h338v-84h-332q20 -141 83.5 -218t174.5 -77q45 0 84 14.5t59 28.5q14 10 22.5 22.5t14.5 29.5l47 135l92 -6q2 -57 -2 -121t-14 -125q-55 -25 -136 -41t-157 -16q-190 0 -303 96t-139 278h-170z" />
<glyph unicode="&#x2122;" horiz-adv-x="1675" d="M96 952q-2 57 0 109.5t10 101.5h549q6 -49 6.5 -101t-2.5 -110h-57l-27 113q-2 14 -11 22.5t-25 8.5h-97v-420q0 -14 9.5 -24.5t25.5 -12.5l78 -12v-54h-350v54l76 12q16 4 24 13.5t8 23.5v420h-90q-16 0 -27.5 -8.5t-13.5 -22.5l-26 -113h-60zM694 573v54l51 12 q16 4 24.5 12t10.5 25l49 379q2 16 -7 26.5t-25 12.5l-54 8v61h261l135 -420l131 420h250v-61l-54 -8q-16 -2 -25 -12.5t-7 -26.5l53 -379q2 -14 11 -23.5t24 -13.5l47 -12v-54h-281v54l78 16l-55 418l-154 -494h-82l-168 500l-53 -424l84 -16v-54h-244z" />
<glyph unicode="&#x25fc;" horiz-adv-x="849" d="M0 0v850h850v-850h-850z" />
<glyph unicode="&#xfb02;" horiz-adv-x="1150" d="M59 756v69l150 21v90q0 84 37 157.5t95 128t130 85t139 30.5q39 0 87 -12t96 -33q39 14 75.5 27.5t67.5 19.5l29 -24v-1178q0 -20 9 -32.5t30 -14.5l108 -16v-74h-436v76l88 14q20 2 30.5 13.5t10.5 31.5v1020q-57 23 -114.5 31t-104.5 8q-100 0 -160.5 -44t-60.5 -155 v-149h264v-103h-264v-608q0 -20 10 -31.5t31 -13.5l141 -14v-76h-471v76l90 14q20 2 30.5 13.5t10.5 31.5v602z" />
<glyph unicode="&#xfb04;" horiz-adv-x="1746" d="M59 756v69l150 21v53q2 170 112.5 284.5t237.5 114.5q49 0 97.5 -17t93.5 -44l-35 -104q-41 10 -86 16t-78 6q-96 -2 -141 -45t-45 -154v-110h440v90q0 84 37 157.5t95 128t130 85t139 30.5q39 0 87 -12t93 -33q39 14 77 27.5t69 19.5l27 -24v-1178q0 -20 10 -32.5 t30 -14.5l109 -16v-74h-436v76l88 14q20 2 30.5 13.5t10.5 31.5v1020q-57 23 -114.5 31t-104.5 8q-100 0 -160.5 -44t-60.5 -155v-149h262v-103h-262v-608q0 -20 10 -31.5t30 -13.5l142 -14v-76h-471v76l90 14q20 2 30.5 13.5t10.5 31.5v608h-438v-608q0 -20 10 -31.5 t31 -13.5l135 -14v-76h-465v76l90 14q20 2 30.5 13.5t10.5 31.5v602z" />
</font>
</defs>
</svg>
